<svg width="431" height="71" viewBox="0 0 431 71" fill="none" xmlns="http://www.w3.org/2000/svg">
<path d="M0 41.625L9.22933 37.5072L12.9739 40.9973L9.22933 59.76L21.8997 54.1104C21.8997 54.1104 24.6058 40.4588 25.4471 37.8013L28.1462 37.1548L31.6784 34.2702L28.1462 31.6074L25.4471 31.0733C23.8331 25.5143 21.8997 16.778 21.8997 16.778L9.22933 9.74151L12.9739 27.0132L9.22933 31.0733L0.706556 27.0132L0 41.625Z" fill="url(#paint0_linear_2199_11887)"/>
<path d="M59.4867 63.001L51.3207 57.0883L52.4746 52.1103L70.5821 45.9677L59.3745 37.8488C59.3745 37.8488 46.2088 42.334 43.489 42.9355L41.5836 40.9276L37.3256 39.3187L36.7819 43.6998L37.6654 46.2977C33.6584 50.4697 27.0604 56.5053 27.0604 56.5053L27.2873 70.9639L40.3703 59.0987L45.7517 60.3035L46.4869 69.6929L59.4867 63.001Z" fill="url(#paint1_linear_2199_11887)"/>
<path d="M59.0441 7.45275L50.9726 13.4939L52.2051 18.453L70.4075 24.3085L59.3297 32.6036C59.3297 32.6036 46.0947 28.3271 43.3657 27.7687L41.4923 29.8065L37.2603 31.4825L36.6474 27.1105L37.4897 24.499C33.4172 20.391 26.7246 14.4604 26.7246 14.4604L26.7229 0L39.9918 11.6569L45.3535 10.3671L45.9401 0.967276L59.0441 7.45275Z" fill="url(#paint2_linear_2199_11887)"/>
<path d="M103.977 11.6367V36.6757L102.722 38.9976V45.5869L103.977 48.2225V59.9576H95.8193V11.6367H103.977ZM100.714 42.1981C101.467 38.4747 102.764 35.2115 104.605 32.4084C106.488 29.6054 108.789 27.4299 111.508 25.882C114.227 24.334 117.219 23.5601 120.482 23.5601C123.912 23.5601 126.966 24.3549 129.644 25.9447C132.363 27.4927 134.476 29.6891 135.982 32.5339C137.488 35.337 138.241 38.5584 138.241 42.1981C138.241 45.8379 137.488 49.0802 135.982 51.9251C134.476 54.7281 132.363 56.9245 129.644 58.5143C126.966 60.0622 123.912 60.8362 120.482 60.8362C117.219 60.8362 114.227 60.0622 111.508 58.5143C108.83 56.9663 106.55 54.7908 104.668 51.9878C102.827 49.1848 101.509 45.9216 100.714 42.1981ZM129.958 42.1981C129.958 39.8553 129.456 37.7635 128.452 35.9227C127.489 34.0819 126.13 32.6595 124.373 31.6554C122.657 30.6095 120.712 30.0865 118.536 30.0865C115.273 30.0865 112.303 31.1952 109.625 33.4125C106.99 35.6298 104.981 38.5584 103.601 42.1981C104.981 45.8797 106.99 48.8292 109.625 51.0465C112.261 53.222 115.231 54.3097 118.536 54.3097C120.712 54.3097 122.657 53.8077 124.373 52.8036C126.13 51.7577 127.489 50.3144 128.452 48.4736C129.456 46.6328 129.958 44.541 129.958 42.1981Z" fill="#F8F7F8"/>
<path d="M176.784 46.7792L178.415 42.1981L176.784 37.6798L178.164 24.4386H186.574L184.691 42.1981L186.574 59.9576H178.164L176.784 46.7792ZM180.675 42.1981C179.88 45.9216 178.541 49.1848 176.658 51.9878C174.818 54.7908 172.537 56.9663 169.818 58.5143C167.141 60.0622 164.17 60.8362 160.907 60.8362C157.476 60.8362 154.401 60.0622 151.682 58.5143C149.005 56.9245 146.913 54.7281 145.407 51.9251C143.901 49.0802 143.147 45.8379 143.147 42.1981C143.147 38.5584 143.901 35.337 145.407 32.5339C146.913 29.6891 149.005 27.4927 151.682 25.9447C154.401 24.3549 157.476 23.5601 160.907 23.5601C164.17 23.5601 167.161 24.334 169.881 25.882C172.6 27.4299 174.88 29.6054 176.721 32.4084C178.604 35.2115 179.922 38.4747 180.675 42.1981ZM151.431 42.1981C151.431 44.541 151.912 46.6328 152.874 48.4736C153.878 50.3144 155.238 51.7577 156.953 52.8036C158.711 53.8077 160.677 54.3097 162.852 54.3097C166.157 54.3097 169.128 53.222 171.763 51.0465C174.399 48.8292 176.407 45.8797 177.788 42.1981C176.407 38.5584 174.378 35.6298 171.701 33.4125C169.065 31.1952 166.116 30.0865 162.852 30.0865C160.677 30.0865 158.711 30.6095 156.953 31.6554C155.238 32.6595 153.878 34.0819 152.874 35.9227C151.912 37.7635 151.431 39.8553 151.431 42.1981Z" fill="#F8F7F8"/>
<path d="M200.888 24.4386L203.022 37.2405V59.9576H194.864V36.0482L192.73 24.4386H200.888ZM217.142 23.5601C220.447 23.5601 223.271 24.2294 225.614 25.5682C227.998 26.907 229.797 28.8314 231.01 31.3416C232.266 33.8518 232.893 36.8431 232.893 40.3155V59.9576H224.735V41.6333C224.735 37.9517 223.857 35.1487 222.099 33.2242C220.384 31.2998 217.853 30.3375 214.506 30.3375C212.205 30.3375 210.176 30.8605 208.419 31.9064C206.704 32.9105 205.365 34.3329 204.403 36.1737C203.482 38.0145 203.022 40.1691 203.022 42.6374L200.135 41.0685C200.47 37.4706 201.411 34.3538 202.959 31.7181C204.507 29.0825 206.494 27.0743 208.921 25.6937C211.389 24.2713 214.13 23.5601 217.142 23.5601Z" fill="#F8F7F8"/>
<path d="M272.941 46.4654L274.761 42.2609L273.004 37.4288L275.639 11.6367H284.048L280.848 41.6961L282.668 59.9576H274.321L272.941 46.4654ZM276.706 42.1981C275.911 45.9216 274.572 49.1848 272.69 51.9878C270.849 54.7908 268.569 56.9663 265.85 58.5143C263.172 60.0622 260.202 60.8362 256.938 60.8362C253.508 60.8362 250.433 60.0622 247.713 58.5143C245.036 56.9245 242.944 54.7281 241.438 51.9251C239.932 49.0802 239.179 45.8379 239.179 42.1981C239.179 38.5584 239.932 35.337 241.438 32.5339C242.944 29.6891 245.036 27.4927 247.713 25.9447C250.433 24.3549 253.508 23.5601 256.938 23.5601C260.202 23.5601 263.193 24.334 265.912 25.882C268.632 27.4299 270.912 29.6054 272.752 32.4084C274.635 35.2115 275.953 38.4747 276.706 42.1981ZM247.462 42.1981C247.462 44.541 247.944 46.6328 248.906 48.4736C249.91 50.3144 251.27 51.7577 252.985 52.8036C254.742 53.8077 256.708 54.3097 258.884 54.3097C262.189 54.3097 265.159 53.222 267.795 51.0465C270.431 48.8292 272.439 45.8797 273.819 42.1981C272.439 38.5584 270.41 35.6298 267.732 33.4125C265.096 31.1952 262.147 30.0865 258.884 30.0865C256.708 30.0865 254.742 30.6095 252.985 31.6554C251.27 32.6595 249.91 34.0819 248.906 35.9227C247.944 37.7635 247.462 39.8553 247.462 42.1981Z" fill="#F8F7F8"/>
<path d="M322.271 46.7792L323.903 42.1981L322.271 37.6798L323.652 24.4386H332.061L330.178 42.1981L332.061 59.9576H323.652L322.271 46.7792ZM326.162 42.1981C325.367 45.9216 324.028 49.1848 322.146 51.9878C320.305 54.7908 318.025 56.9663 315.305 58.5143C312.628 60.0622 309.657 60.8362 306.394 60.8362C302.964 60.8362 299.889 60.0622 297.169 58.5143C294.492 56.9245 292.4 54.7281 290.894 51.9251C289.388 49.0802 288.635 45.8379 288.635 42.1981C288.635 38.5584 289.388 35.337 290.894 32.5339C292.4 29.6891 294.492 27.4927 297.169 25.9447C299.889 24.3549 302.964 23.5601 306.394 23.5601C309.657 23.5601 312.649 24.334 315.368 25.882C318.088 27.4299 320.368 29.6054 322.208 32.4084C324.091 35.2115 325.409 38.4747 326.162 42.1981ZM296.918 42.1981C296.918 44.541 297.399 46.6328 298.362 48.4736C299.366 50.3144 300.725 51.7577 302.441 52.8036C304.198 53.8077 306.164 54.3097 308.34 54.3097C311.645 54.3097 314.615 53.222 317.251 51.0465C319.886 48.8292 321.895 45.8797 323.275 42.1981C321.895 38.5584 319.866 35.6298 317.188 33.4125C314.552 31.1952 311.603 30.0865 308.34 30.0865C306.164 30.0865 304.198 30.6095 302.441 31.6554C300.725 32.6595 299.366 34.0819 298.362 35.9227C297.399 37.7635 296.918 39.8553 296.918 42.1981Z" fill="#F8F7F8"/>
<path d="M371.791 46.4654L373.611 42.2609L371.854 37.4288L374.49 11.6367H382.899L379.698 41.6961L381.518 59.9576H373.172L371.791 46.4654ZM375.557 42.1981C374.762 45.9216 373.423 49.1848 371.54 51.9878C369.699 54.7908 367.419 56.9663 364.7 58.5143C362.022 60.0622 359.052 60.8362 355.789 60.8362C352.358 60.8362 349.283 60.0622 346.564 58.5143C343.886 56.9245 341.795 54.7281 340.289 51.9251C338.782 49.0802 338.029 45.8379 338.029 42.1981C338.029 38.5584 338.782 35.337 340.289 32.5339C341.795 29.6891 343.886 27.4927 346.564 25.9447C349.283 24.3549 352.358 23.5601 355.789 23.5601C359.052 23.5601 362.043 24.334 364.763 25.882C367.482 27.4299 369.762 29.6054 371.603 32.4084C373.486 35.2115 374.803 38.4747 375.557 42.1981ZM346.313 42.1981C346.313 44.541 346.794 46.6328 347.756 48.4736C348.76 50.3144 350.12 51.7577 351.835 52.8036C353.592 53.8077 355.559 54.3097 357.734 54.3097C361.039 54.3097 364.01 53.222 366.645 51.0465C369.281 48.8292 371.289 45.8797 372.67 42.1981C371.289 38.5584 369.26 35.6298 366.583 33.4125C363.947 31.1952 360.997 30.0865 357.734 30.0865C355.559 30.0865 353.592 30.6095 351.835 31.6554C350.12 32.6595 348.76 34.0819 347.756 35.9227C346.794 37.7635 346.313 39.8553 346.313 42.1981Z" fill="#F8F7F8"/>
<path d="M421.122 46.7792L422.753 42.1981L421.122 37.6798L422.502 24.4386H430.911L429.029 42.1981L430.911 59.9576H422.502L421.122 46.7792ZM425.012 42.1981C424.217 45.9216 422.879 49.1848 420.996 51.9878C419.155 54.7908 416.875 56.9663 414.156 58.5143C411.478 60.0622 408.508 60.8362 405.245 60.8362C401.814 60.8362 398.739 60.0622 396.02 58.5143C393.342 56.9245 391.25 54.7281 389.744 51.9251C388.238 49.0802 387.485 45.8379 387.485 42.1981C387.485 38.5584 388.238 35.337 389.744 32.5339C391.25 29.6891 393.342 27.4927 396.02 25.9447C398.739 24.3549 401.814 23.5601 405.245 23.5601C408.508 23.5601 411.499 24.334 414.219 25.882C416.938 27.4299 419.218 29.6054 421.059 32.4084C422.941 35.2115 424.259 38.4747 425.012 42.1981ZM395.769 42.1981C395.769 44.541 396.25 46.6328 397.212 48.4736C398.216 50.3144 399.576 51.7577 401.291 52.8036C403.048 53.8077 405.015 54.3097 407.19 54.3097C410.495 54.3097 413.466 53.222 416.101 51.0465C418.737 48.8292 420.745 45.8797 422.126 42.1981C420.745 38.5584 418.716 35.6298 416.039 33.4125C413.403 31.1952 410.453 30.0865 407.19 30.0865C405.015 30.0865 403.048 30.6095 401.291 31.6554C399.576 32.6595 398.216 34.0819 397.212 35.9227C396.25 37.7635 395.769 39.8553 395.769 42.1981Z" fill="#F8F7F8"/>
<defs>
<linearGradient id="paint0_linear_2199_11887" x1="11.2931" y1="1.02807e-05" x2="71.161" y2="5.7117" gradientUnits="userSpaceOnUse">
<stop stop-color="#FF5242"/>
<stop offset="1" stop-color="#EB179B"/>
</linearGradient>
<linearGradient id="paint1_linear_2199_11887" x1="11.2931" y1="1.02807e-05" x2="71.161" y2="5.7117" gradientUnits="userSpaceOnUse">
<stop stop-color="#FF5242"/>
<stop offset="1" stop-color="#EB179B"/>
</linearGradient>
<linearGradient id="paint2_linear_2199_11887" x1="11.2931" y1="1.02807e-05" x2="71.161" y2="5.7117" gradientUnits="userSpaceOnUse">
<stop stop-color="#FF5242"/>
<stop offset="1" stop-color="#EB179B"/>
</linearGradient>
</defs>
</svg>
