<svg width="244" height="244" viewBox="0 0 244 244" fill="none" xmlns="http://www.w3.org/2000/svg">
<path d="M0.799805 143.21L32.4879 129.072L45.3446 141.055L32.4879 205.475L75.9905 186.078C75.9905 186.078 85.2816 139.206 88.1702 130.082L97.4375 127.862L109.565 117.958L97.4375 108.816L88.1702 106.982C82.6287 87.8955 75.9905 57.9 75.9905 57.9L32.4879 33.7409L45.3446 93.0419L32.4879 106.982L3.2257 93.0419L0.799805 143.21Z" fill="url(#paint0_linear_2206_695)"/>
<path d="M205.045 216.601L177.007 196.3L180.969 179.208L243.14 158.118L204.659 130.243C204.659 130.243 159.456 145.642 150.118 147.708L143.576 140.813L128.957 135.29L127.09 150.332L130.123 159.251C116.366 173.575 93.712 194.298 93.712 194.298L94.491 243.941L139.41 203.202L157.887 207.339L160.411 239.577L205.045 216.601Z" fill="url(#paint1_linear_2206_695)"/>
<path d="M203.528 25.8804L175.815 46.622L180.047 63.6487L242.543 83.7532L204.508 112.234C204.508 112.234 159.067 97.5508 149.698 95.6335L143.265 102.63L128.735 108.384L126.631 93.3737L129.523 84.4072C115.54 70.3026 92.5619 49.9406 92.5619 49.9406L92.5558 0.291992L138.114 40.3148L156.522 35.8864L158.536 3.61306L203.528 25.8804Z" fill="url(#paint2_linear_2206_695)"/>
<defs>
<linearGradient id="paint0_linear_2206_695" x1="39.5742" y1="0.292027" x2="245.127" y2="19.903" gradientUnits="userSpaceOnUse">
<stop stop-color="#FF5242"/>
<stop offset="1" stop-color="#EB179B"/>
</linearGradient>
<linearGradient id="paint1_linear_2206_695" x1="39.5742" y1="0.292027" x2="245.127" y2="19.903" gradientUnits="userSpaceOnUse">
<stop stop-color="#FF5242"/>
<stop offset="1" stop-color="#EB179B"/>
</linearGradient>
<linearGradient id="paint2_linear_2206_695" x1="39.5742" y1="0.292027" x2="245.127" y2="19.903" gradientUnits="userSpaceOnUse">
<stop stop-color="#FF5242"/>
<stop offset="1" stop-color="#EB179B"/>
</linearGradient>
</defs>
</svg>
