<svg width="514" height="99" viewBox="0 0 514 99" fill="none" xmlns="http://www.w3.org/2000/svg">
<path d="M466.771 12.1292C474.956 10.9562 478.359 12.4929 482.511 18.7796C500.068 26.4632 504.282 29.7311 487.43 35.4041C485.956 35.4041 484.847 38.4258 478.335 37.6251C470.274 38.9597 466.766 36.8533 465.223 36.8533C463.554 36.8533 462.194 38.3812 460.963 39.4231C459.667 40.519 457.161 41.4476 455.485 41.7055C451.179 42.368 445.788 42.5583 441.639 40.9447C437.772 39.4411 434.2 38.3749 430.058 38.3749C427.739 38.3749 425.481 38.6937 423.38 39.7443C421.172 40.8483 418.301 41.0819 416.228 42.517C412.922 44.8059 412.108 47.5535 413.642 51.004C414.667 53.3119 419.203 52.4842 421.248 52.1109L421.385 52.086C424.039 51.6034 426.424 49.9389 429.162 49.9389C432.009 49.9389 434.774 49.6858 437.378 50.9195C440.132 52.2239 442.938 52.982 445.967 52.982C449.344 52.982 451.555 51.5342 454.656 50.6151C456.89 49.9533 460.364 50.4346 462.332 51.5281C464.499 52.7321 466.791 54.8079 469.399 54.8079C481.517 60.1393 481.543 65.4799 484.187 65.4799C485.398 65.4799 488.62 66.5251 497.469 68.6474C514.216 73.4669 519.796 82.2581 504.017 82.2581C503.172 83.948 467.054 82.2581 465.223 82.2581C457.177 82.2581 451.739 86.1175 444.215 86.1175C435.603 86.1175 430.437 86.2376 418.384 84.2287C413.773 83.4603 409.162 86.1175 404.49 86.1175C398.827 86.1175 396.947 88.1231 391.517 89.3297C387.228 90.2829 383.468 90.1514 379.291 92.0077C374.944 93.9398 368.73 94.9573 363.922 94.9573H348.204C344.02 94.9573 340.674 91.2098 336.677 90.7657C333.81 90.4472 331.272 89.3686 328.294 89.3686C326.849 89.3686 322.928 89.0268 321.657 88.3207C317.294 85.8965 309.203 89.2076 304.697 89.3686C300.651 89.513 296.735 90.6495 292.665 90.7657C288.973 90.8712 284.314 91.5117 280.712 92.5122C276.652 93.6398 272.019 93.6585 267.865 94.2975C264.53 94.8107 262.969 95.11 259.831 93.7154C250.26 89.4614 239.638 88.0497 229.093 88.67C223.308 89.0103 217.153 93.0545 211.473 94.8021C206.431 96.3534 200.229 94.2587 195.25 94.2587H180.89C178.183 94.2587 176.901 95.1777 174.603 96.1993C172.268 97.2371 169.536 96.3887 167.306 97.4024C163.454 99.1536 155.599 97.9134 151.394 97.7517C145.802 97.5366 139.243 96.1425 133.735 94.9185C129.427 93.9613 124.958 90.3111 120.811 90.0672C115.928 89.7799 111.475 88.67 106.49 88.67C102.477 88.67 96.5141 87.5924 92.8671 89.2133C90.7047 90.1744 87.6076 88.4065 85.7259 89.9119C84.9915 90.4994 80.2656 90.7657 79.2445 90.7657C70.1597 90.7657 60.8225 90.0672 51.9604 90.0672C47.9876 90.0672 42.5029 87.9423 39.0752 86.4189C35.4282 84.798 29.4648 85.8756 25.4526 85.8756C17.3371 85.8756 9.32487 85.9673 3.09754 80.9854C-5.32185 74.2499 5.29231 63.9381 13.2272 63.5205C17.2578 63.3084 21.7674 62.8219 26.1512 62.8219C29.78 62.8219 37.4619 64.2523 40.3172 61.9681C43.8767 59.1205 47.4305 54.018 51.9992 53.0028C60.9262 51.019 70.7821 52.3898 79.4385 49.3934C89.7429 45.8265 102.206 45.0893 112.428 49.3934C114.485 50.2597 117.843 50.9458 120.112 50.9458C122.087 50.9458 123.411 51.0864 125.002 50.092C126.053 49.4356 125.954 47.9034 127.098 47.2976C131.836 44.7896 137.57 44.1073 142.817 43.3001C150.192 42.1654 157.841 39.5564 164.978 37.5172C169.1 36.3394 173.393 34.8781 177.708 34.8781C180.452 34.8781 184.97 34.0828 187.488 35.2274C192.198 37.3684 198.856 37.6725 204.099 37.6725C210.849 37.6725 216.329 34.7194 223.155 36.2365C226.12 36.8953 229.925 36.9739 232.974 36.9739C235.239 36.9739 241.58 39.1399 243.608 37.5172C247.722 34.2264 253.61 33.4869 258.434 31.0746C262.923 28.8305 271.198 29.3433 275.899 30.6865C281.782 32.3674 285.111 40.0096 289.328 43.8046C291.602 45.8517 293.032 47.4528 296.158 47.4528C297.395 47.4528 301.006 47.2757 301.786 46.3661C303.798 44.0184 303.457 41.9999 304.891 39.419C305.775 37.8284 307.472 36.2137 308.733 34.8781L308.848 34.7564C311.462 31.9879 316.478 26.6756 320.26 25.8352C322.567 25.3225 324.929 26.4949 327.285 26.4949C330.534 26.4949 332.16 24.2694 333.727 21.6048C335.92 17.8768 341.783 12.523 346.108 12.523C350.702 12.523 354.878 10.448 358.178 7.47762C359.31 6.45869 370.547 5.95942 371.607 7.28357C372.799 8.7735 376.164 6.93427 377.545 6.93427C380.749 6.93427 381.999 4.33838 384.88 2.89794C396.477 -2.90039 407.731 2.73034 418.413 7.47762C424.128 10.0179 439.047 6.18534 444.215 5.03683C449.507 3.86093 461.162 12.1292 466.771 12.1292Z" fill="url(#paint0_linear_1_816)"/>
<defs>
<linearGradient id="paint0_linear_1_816" x1="263.968" y1="-9.78705" x2="287.592" y2="131.167" gradientUnits="userSpaceOnUse">
<stop stop-color="#FF2A26"/>
<stop offset="1" stop-color="#FF9B79"/>
</linearGradient>
</defs>
</svg>
