<svg width="455" height="85" viewBox="0 0 455 85" fill="none" xmlns="http://www.w3.org/2000/svg">
<path d="M157.325 3.46972C161.806 3.46972 168.807 7.20267 168.807 7.20267C181.397 1.7046 189.425 8.50868 192.77 8.70542C196.915 8.94925 200.167 9.70203 204.401 8.76107C207.958 7.97066 214.783 5.24024 218.315 7.20274C222.235 9.38041 227.295 9.52248 231.394 11.9334C235.136 14.1347 238.986 19.7251 243.861 19.7251C247.271 19.7251 255.378 18.892 258.387 17.2206C262.805 14.766 268.459 15.7179 273.413 15.7179C278.478 15.7179 281.464 18.7038 284.876 22.1165L284.934 22.1739C287.666 24.9057 289.724 30.7447 293.449 30.7447C305.081 30.7447 317.715 25.3184 329.012 30.9673C333.402 33.1622 335.982 41.788 340.533 39.2599C344.425 37.0976 352.581 37.7572 357.062 37.7572C362.905 37.7572 368.465 38.4279 374.093 38.759C377.396 38.9533 384.702 44.2845 385.112 47.775C385.382 50.0619 400.739 48.5085 403.2 49.2777C408.791 51.0248 413.58 50.2062 419.173 52.5614C423.436 54.3562 425.253 57.7929 430.193 57.7929C435.177 57.7929 441.945 59.7817 445.72 62.8018C447.107 63.9113 454.236 69.9032 450.006 71.5953C443.57 74.1698 438.023 75.8251 430.972 75.8251C420.615 75.8251 407.026 73.6547 397.635 77.8286C391.365 80.6151 381.674 78.8304 374.872 78.8304C371.013 78.8304 367.357 77.9032 363.63 77.8286C359.962 77.7553 357.874 79.0397 354.558 79.7765C343.303 82.2778 328.147 82.2523 317.214 78.6078C312.008 76.8726 309.115 75.8251 303.467 75.8251C298.603 75.8251 293.676 77.8286 288.496 77.8286C282.962 77.8286 277.93 77.4225 272.912 75.0459C268.002 72.72 264.286 72.8197 258.887 72.8197C253.886 72.8197 249.833 75.8251 244.362 75.8251C239.894 75.8251 234.81 74.0269 230.837 72.0405C225.954 69.5988 225.111 65.8072 219.317 65.8072C214.127 65.8072 208.538 72.0405 203.123 72.0405C197.814 72.0405 192.575 65.8072 187.538 65.8072C177.959 72.3803 169.985 72.7203 160.212 66.809C155.094 66.809 151.421 64.9932 146.687 63.3027C137.31 59.9537 138.79 53.1427 128.01 55.5383C123.884 56.4553 111.994 58.4688 107.882 56.6412C90.6288 48.9732 94.4291 58.9836 82.3311 57.5603C77.2675 56.9646 75.4739 53.6944 70.0509 54.4691C64.9132 55.203 61.3821 58.5783 56.141 58.5783C53.3652 58.5783 43.7262 55.5667 43.7262 55.5667C44.566 54.9807 19.9381 59.3109 16.9432 55.5383C10.3604 55.5383 8.49456 56.9371 3.65475 51.5596C1.18671 48.8173 5.54323 42.1004 7.88451 40.7626C9.2653 39.9735 10.0094 38.2954 11.4464 37.5346C13.4872 36.4541 15.8231 36.2484 18.0137 35.2527C20.117 34.2967 23.6804 34.315 25.9723 33.8057C28.3403 33.2795 30.2647 31.9536 32.4839 30.9673C35.3962 29.673 40.2292 27.9117 43.5036 27.7393C47.8098 27.5127 52.6702 25.7358 57.0277 25.7358C62.8995 25.7358 65.2314 22.8688 70.0509 20.7268C74.7541 18.6365 78.2699 15.7179 83.575 15.7179C88.5663 15.7179 91.9785 15.5944 96.2086 13.7143C104.471 10.0422 116.062 15.9498 123.646 11.4882C128.202 8.80853 128.466 6.70185 134.165 6.70185C138.512 6.70185 141.783 4.69828 146.187 4.69828C150.695 4.69828 152.816 3.46972 157.325 3.46972Z" stroke="url(#paint0_linear_1_823)" stroke-width="5.74464" stroke-linecap="round"/>
<defs>
<linearGradient id="paint0_linear_1_823" x1="233.49" y1="-4.67806" x2="250.759" y2="108.215" gradientUnits="userSpaceOnUse">
<stop stop-color="#FF2A26"/>
<stop offset="1" stop-color="#FF9B79"/>
</linearGradient>
</defs>
</svg>
