<svg width="344" height="125" viewBox="0 0 344 125" fill="none" xmlns="http://www.w3.org/2000/svg">
<path d="M168.78 4.25863C166.669 4.52243 164.436 4.93531 162.013 4.93531C157.307 4.93531 153.378 8.99539 148.818 8.99539C143.235 8.99539 138.402 10.3488 132.916 10.3488C127.074 10.3488 122.575 11.1805 117.014 12.4164C113.138 13.2778 114.463 16.933 116.675 19.1456C119.389 21.8593 120.966 23.1349 124.645 24.4087C128.513 25.7476 131.466 24.559 135.322 24.559H144.419C147.94 24.559 150.933 25.9124 154.57 25.9124C157.679 25.9124 160.689 25.2357 163.893 25.2357C169.032 25.2357 178.253 24.268 178.253 31.6266C178.253 35.9452 177.066 34.8627 174.193 37.4159C171.833 39.514 169.751 39.446 166.75 39.446C165.313 39.446 164.179 38.7693 162.69 38.7693C161.115 38.7693 159.841 39.446 158.291 39.446C155.147 39.446 153.246 41.476 150.171 41.476C148.46 41.476 146.843 40.7993 145.058 40.7993C141.083 40.7993 143.595 46.5961 145.622 48.0924C148.141 49.9514 151.441 50.9495 154.419 50.9495C156.872 50.9495 169.201 49.547 170.096 52.6788C171.88 58.9231 166.685 62.4531 161.336 62.4531C152.541 62.4531 143.643 63.1298 134.946 63.1298C131.051 63.1298 128.012 65.8365 124.119 65.8365H115.472C109.291 65.8365 102.069 63.6291 95.9991 65.8365C88.2089 68.6693 80.4939 65.8365 72.4281 65.8365C67.5172 65.8365 64.7372 67.3862 60.3606 69.0695C56.6744 70.4873 52.3761 69.8966 48.4812 69.8966H37.5039C34.2407 69.8966 31.8048 72.1232 28.7071 72.5657C25.4762 73.0273 23.4455 76.6634 20.5869 76.6634H11.6397C9.434 76.6634 3.66992 76.3272 3.66992 79.3701C3.66992 83.1702 6.02108 83.6086 8.74502 85.1219C14.2434 88.1765 20.372 87.6577 26.1507 89.3699C29.3184 90.3085 32.6415 88.8436 35.7746 88.8436H48.3308C57.7301 88.8436 66.7491 90.197 76.0747 90.197C80.1272 90.197 83.7249 92.227 87.5782 92.227C89.1528 92.227 94.9011 91.2899 95.0217 93.5804C95.1853 96.6895 95.6313 99.4974 91.9766 100.31C89.3829 100.886 86.7674 100.965 84.1948 101.701C81.0502 102.599 78.8104 105.283 75.5484 106.287C73.3965 106.949 70.238 105.558 68.4808 106.964C66.132 108.843 64.5711 107.482 64.5711 111.512C64.5711 114.766 72.7517 117.577 75.3604 117.903C83.2118 118.885 91.2601 117.264 99.0818 117.264C108.429 117.264 118.026 117.941 127.502 117.941C132.278 117.941 137.091 117.764 141.863 117.941C146.356 118.107 149.239 123.197 154.118 121.851C160.617 120.058 166.631 119.294 173.479 119.294H182.689C185.833 119.294 188.978 118.076 192.163 118.655C196.248 119.398 199.9 119.971 204.118 119.971C208.299 119.971 211.978 117.413 215.997 117.264C222.953 117.007 228.589 117.159 235.094 114.557C237.933 113.422 239.795 112.084 243.064 111.851C245.916 111.647 250.246 110.056 247.124 106.588C244.072 103.196 237.298 102.377 232.726 102.377C226.605 102.377 219.869 101.942 213.591 101.701C212.06 101.642 206.366 101.315 205.32 100.009C203.909 98.2441 200.281 97.8957 198.215 98.3547C193.143 99.482 185.289 99.5645 185.697 92.227C186.084 85.2581 197.743 85.8283 202.275 84.8211C205.872 84.0219 208.773 82.9071 212.087 81.2498C215.647 79.4697 219.843 80.7782 223.591 79.8964C226.908 79.1159 230.346 79.0849 233.44 77.6784C237.342 75.9049 240.296 72.4246 244.23 70.9116C247.555 69.6324 252.134 71.1192 255.395 69.7462C258.34 68.5059 261.344 67.7868 264.192 66.3628C270.483 63.2171 276.525 63.8065 283.439 63.8065C287.071 63.8065 290.015 63.3052 293.289 61.9268C295.989 60.79 301.105 61.7764 303.965 61.7764C309.242 61.7764 315.339 60.6539 320.018 58.0547C322.319 56.7764 327.172 57.0397 329.83 57.0397C332.46 57.0397 335.769 55.7659 337.95 54.4833C340.846 52.7799 340.828 50.6562 340.656 47.5661C340.554 45.7271 336.066 44.0093 334.566 43.6564C328.076 42.1294 321.135 44.2096 314.604 42.491C308.423 40.8644 301.781 41.476 295.319 41.476C292.737 41.476 290.48 39.1 288.214 38.0926C285.571 36.9179 283.028 36.0626 280.094 36.0626C275.078 36.0626 269.399 36.5723 264.868 34.5589C262.435 33.4772 259.063 34.0325 256.41 34.0325C253.624 34.0325 251.959 36.0626 248.966 36.0626C245.884 36.0626 242.996 36.7393 239.831 36.7393C237.203 36.7393 234.956 36.0626 232.388 36.0626C227.675 36.0626 221.75 37.0446 217.162 36.025C214.673 35.4717 212.479 35.2769 210.396 33.6566C208.713 32.3478 208.775 27.9704 211.11 27.3033C215.382 26.0828 221.924 25.5704 225.471 22.3786C228.618 19.5457 236.914 24.4839 239.831 20.8373C241.595 18.6331 244.758 18.5099 244.568 15.0855C244.434 12.6679 241.838 11.6833 240.357 10.4991C238.052 8.65513 232.924 8.99539 230.019 8.99539C228.259 8.99539 224.984 7.73496 223.253 6.96535C218.792 4.98284 211.575 6.28867 206.674 6.28867C201.131 6.28867 197.018 4.25863 191.449 4.25863C185.797 4.25863 181.204 2.90527 175.697 2.90527C173.09 2.90527 171.043 3.97569 168.78 4.25863Z" stroke="url(#paint0_linear_1_818)" stroke-width="5.74464" stroke-linecap="round"/>
<defs>
<linearGradient id="paint0_linear_1_818" x1="176.978" y1="-9.53544" x2="226.968" y2="151.339" gradientUnits="userSpaceOnUse">
<stop stop-color="#FF2A26"/>
<stop offset="1" stop-color="#FF9B79"/>
</linearGradient>
</defs>
</svg>
