<svg width="520" height="105" viewBox="0 0 520 105" fill="none" xmlns="http://www.w3.org/2000/svg">
<path d="M469.771 15.2337C477.956 14.0607 481.359 15.5974 485.511 21.884C503.068 29.5677 507.282 32.8356 490.43 38.5086C488.956 38.5086 487.847 41.5303 481.335 40.7296C473.274 42.0641 469.766 39.9578 468.223 39.9578C466.554 39.9578 465.194 41.4857 463.963 42.5276C462.667 43.6235 460.161 44.5521 458.485 44.81C454.179 45.4725 448.788 45.6628 444.639 44.0492C440.772 42.5456 437.2 41.4794 433.058 41.4794C430.739 41.4794 428.481 41.7982 426.38 42.8488C424.172 43.9528 421.301 44.1864 419.228 45.6215C415.922 47.9103 415.108 50.658 416.642 54.1085C417.667 56.4164 422.203 55.5887 424.248 55.2154L424.385 55.1905C427.039 54.7079 429.424 53.0434 432.162 53.0434C435.009 53.0434 437.774 52.7903 440.378 54.0239C443.132 55.3284 445.938 56.0865 448.967 56.0865C452.344 56.0865 454.555 54.6387 457.656 53.7196C459.89 53.0578 463.364 53.5391 465.332 54.6326C467.499 55.8366 469.791 57.9124 472.399 57.9124C484.517 63.2438 484.543 68.5844 487.187 68.5844C488.398 68.5844 491.62 69.6295 500.469 71.7519C517.216 76.5714 522.796 85.3626 507.017 85.3626C506.172 87.0525 470.054 85.3626 468.223 85.3626C460.177 85.3626 454.739 89.222 447.215 89.222C438.603 89.222 433.437 89.3421 421.384 87.3332C416.773 86.5648 412.162 89.222 407.49 89.222C401.827 89.222 399.947 91.2276 394.517 92.4342C390.228 93.3874 386.468 93.2559 382.291 95.1122C377.944 97.0443 371.73 98.0618 366.922 98.0618H351.204C347.02 98.0618 343.674 94.3143 339.677 93.8702C336.81 93.5517 334.272 92.473 331.294 92.473C329.849 92.473 325.928 92.1313 324.657 91.4252C320.294 89.001 312.203 92.3121 307.697 92.473C303.651 92.6175 299.735 93.754 295.665 93.8702C291.973 93.9757 287.314 94.6162 283.712 95.6167C279.652 96.7443 275.019 96.763 270.865 97.402C267.53 97.9152 265.969 98.2145 262.831 96.8199C253.26 92.5659 242.638 91.1542 232.093 91.7745C226.308 92.1148 220.153 96.159 214.473 97.9066C209.431 99.4579 203.229 97.3632 198.25 97.3632H183.89C181.183 97.3632 179.901 98.2822 177.603 99.3038C175.268 100.342 172.536 99.4932 170.306 100.507C166.454 102.258 158.599 101.018 154.394 100.856C148.802 100.641 142.243 99.247 136.735 98.023C132.427 97.0658 127.958 93.4156 123.811 93.1716C118.928 92.8844 114.475 91.7745 109.49 91.7745C105.477 91.7745 99.5141 90.6969 95.8671 92.3178C93.7047 93.2789 90.6076 91.511 88.7259 93.0164C87.9915 93.6039 83.2656 93.8702 82.2445 93.8702C73.1597 93.8702 63.8225 93.1716 54.9604 93.1716C50.9876 93.1716 45.5029 91.0468 42.0752 89.5234C38.4282 87.9025 32.4648 88.9801 28.4526 88.9801C20.3371 88.9801 12.3249 89.0718 6.09754 84.0899C-2.32185 77.3544 8.29231 67.0426 16.2272 66.625C20.2578 66.4129 24.7674 65.9264 29.1512 65.9264C32.78 65.9264 40.4619 67.3568 43.3172 65.0726C46.8767 62.2249 50.4305 57.1225 54.9992 56.1073C63.9262 54.1235 73.7821 55.4943 82.4385 52.4979C92.7429 48.931 105.206 48.1938 115.428 52.4979C117.485 53.3642 120.843 54.0503 123.112 54.0503C125.087 54.0503 126.411 54.1909 128.002 53.1964C129.053 52.5401 128.954 51.0079 130.098 50.4021C134.836 47.8941 140.57 47.2118 145.817 46.4045C153.192 45.2699 160.841 42.6609 167.978 40.6217C172.1 39.4439 176.393 37.9826 180.708 37.9826C183.452 37.9826 187.97 37.1873 190.488 38.3319C195.198 40.4729 201.856 40.777 207.099 40.777C213.849 40.777 219.329 37.8239 226.155 39.341C229.12 39.9997 232.925 40.0784 235.974 40.0784C238.239 40.0784 244.58 42.2444 246.608 40.6217C250.722 37.3309 256.61 36.5914 261.434 34.1791C265.923 31.935 274.198 32.4478 278.899 33.791C284.782 35.4719 288.111 43.1141 292.328 46.9091C294.602 48.9562 296.032 50.5573 299.158 50.5573C300.395 50.5573 304.006 50.3802 304.786 49.4706C306.798 47.1229 306.457 45.1044 307.891 42.5235C308.775 40.9328 310.472 39.3182 311.733 37.9826L311.848 37.8609C314.462 35.0924 319.478 29.7801 323.26 28.9397C325.567 28.427 327.929 29.5994 330.285 29.5994C333.534 29.5994 335.16 27.3739 336.727 24.7093C338.92 20.9813 344.783 15.6275 349.108 15.6275C353.702 15.6275 357.878 13.5525 361.178 10.5821C362.31 9.56318 373.547 9.06391 374.607 10.3881C375.799 11.878 379.164 10.0388 380.545 10.0388C383.749 10.0388 384.999 7.44287 387.88 6.00243C399.477 0.204101 410.731 5.83483 421.413 10.5821C427.128 13.1224 442.047 9.28983 447.215 8.14133C452.507 6.96542 464.162 15.2337 469.771 15.2337Z" stroke="url(#paint0_linear_1_817)" stroke-width="5.74464" stroke-linecap="round"/>
<defs>
<linearGradient id="paint0_linear_1_817" x1="266.968" y1="-6.68256" x2="290.592" y2="134.272" gradientUnits="userSpaceOnUse">
<stop stop-color="#FF2A26"/>
<stop offset="1" stop-color="#FF9B79"/>
</linearGradient>
</defs>
</svg>
