<svg width="389" height="101" viewBox="0 0 389 101" fill="none" xmlns="http://www.w3.org/2000/svg">
<path d="M212.508 8.41224H222.504C225.837 8.41224 233.989 9.80008 236.335 10.2267C240.862 11.0498 246.407 10.4416 250.714 9.16541C257.714 7.09142 264.41 7.76849 271.529 9.06271C277.153 10.0853 295.001 15.7456 300.731 15.7456C305.895 15.7456 323.432 18.2013 323.432 25.1617C321.854 37.9384 297.112 27.3222 291.522 30.1171C288.512 31.6217 284.358 31.8288 281.046 31.8288C277.267 31.8288 273.68 32.9392 269.988 33.6775C261.857 35.3038 254.015 33.2861 245.921 33.0613C239.801 32.8913 232.768 31.0898 226.818 33.4036C221.29 35.5534 216.989 37.9911 210.933 37.9911C209.4 37.9911 207.694 38.1907 206.174 37.9569C204.952 37.7687 203.858 36.8035 202.648 36.7586C197.076 36.5523 191.283 36.503 185.839 37.3406C182.345 37.8781 180.073 38.4731 177.041 40.456C175 41.7902 173.295 43.5371 170.741 43.5371C166.206 43.5371 160.475 40.5592 156.226 43.2632C153.387 45.0696 146.358 50.0314 149.653 54.1499C150.205 54.8408 149.678 55.6492 150.543 56.3409C151.128 56.8088 152.447 56.9953 153.179 57.4022C154.852 58.3314 158.106 57.7103 159.957 57.7103C166.223 57.7103 172.643 58.3265 178.752 58.3265C185.899 58.3265 191.406 62.6382 198.54 61.9897C209.091 61.0305 219.895 61.218 230.515 61.4077C236.063 61.5067 243.993 63.4464 248.42 66.9879C251.436 69.4005 254.004 69.0135 257.321 67.2276C264.584 63.3168 274.765 65.071 282.621 66.8168C286.09 67.5878 289.138 68.4542 292.446 69.7267C295.193 70.7831 298.012 69.4186 300.731 69.4186C308.064 69.4186 314.853 69.5201 321.854 72.0205C324.938 73.122 327.889 74.8268 330.686 76.5052C333.828 78.3905 359.738 76.334 363.25 76.334C382.37 76.334 400.611 92.9595 367.255 95.574C351.274 95.574 332.169 91.5374 321.854 95.574C308.729 100.71 299.553 93.5764 282.621 93.5764C265.027 98.2757 244.128 90.2078 239.329 91.5685C239.329 91.5685 236.446 94.5256 218.42 91.5685C213.246 90.4676 196.295 84.3518 190.847 84.3518C185.327 84.3518 170.67 91.1344 165.243 91.5685C157.357 92.1994 154.09 95.0924 146.627 91.5685C142.303 89.5265 143.978 87.5507 131.258 87.5507C96.6739 87.5507 103.094 73.116 98.3348 73.116C94.1309 73.116 90.6071 71.8835 86.4554 71.8835H79.2318C77.6696 71.8835 76.1405 70.6511 74.302 70.6511C71.9152 70.6511 63.7228 71.8713 63.5181 68.1862C63.2025 62.5067 65.2462 61.2224 69.9884 58.6689C74.7872 56.0849 80.5379 58.8721 85.086 56.9572C90.04 54.8712 94.6389 55.7777 99.8069 54.6292C102.397 54.0537 103.761 51.5909 106.038 50.4526C107.754 49.5944 110.299 49.805 112.2 49.6994C114.213 49.5876 115.699 48.0075 117.438 47.2345C118.506 46.7598 119.02 43.0778 118.054 42.3047C116.373 40.9599 115.865 39.8398 113.432 39.8398H106.312C100.491 39.8398 94.3461 39.1999 88.7149 40.7641C83.0097 42.3489 77.2245 39.8398 71.529 39.8398C68.3656 39.8398 65.7602 41.3881 62.8334 41.6542C59.3307 41.9726 55.6721 41.6884 52.1521 41.6884C46.9048 41.6884 41.5245 42.846 36.4041 44.0164C33.4015 44.7027 29.7378 44.2125 26.8526 43.5714C25.1189 43.1861 23.0622 42.3047 21.3066 42.3047C17.5773 42.3047 11.5894 44.3536 8.05772 42.784C6.74198 42.1992 3.74414 41.9947 3.74414 40.1479C3.74414 37.9462 3.92395 36.1036 4.3946 33.9856C4.98195 31.3426 15.4108 28.917 17.7804 28.7477C22.8982 28.3821 28.188 22.1771 32.8887 20.1205C39.1381 17.3864 45.4977 20.1205 52.426 20.1205C54.5318 20.1205 57.8029 18.4231 59.5468 17.3133C63.2159 14.9784 70.237 18.6683 74.302 17.3133C80.556 15.2286 84.3213 9.94579 90.632 8.27531C97.3034 6.50936 103.07 8.41224 110.108 8.41224C116.58 8.41224 122.853 2.86621 129.317 2.86621C136.008 2.86621 143.027 8.27531 149.653 8.27531C157.159 8.27531 163.685 4.80372 171.084 6.08428C178.937 7.44352 184.995 2.86621 192.985 2.86621C199.059 2.86621 206.446 8.41224 212.508 8.41224Z" stroke="url(#paint0_linear_1_820)" stroke-width="5.74464" stroke-linecap="round"/>
<defs>
<linearGradient id="paint0_linear_1_820" x1="200.175" y1="-7.00594" x2="229.254" y2="126.654" gradientUnits="userSpaceOnUse">
<stop stop-color="#FF2A26"/>
<stop offset="1" stop-color="#FF9B79"/>
</linearGradient>
</defs>
</svg>
