<svg width="449" height="79" viewBox="0 0 449 79" fill="none" xmlns="http://www.w3.org/2000/svg">
<path d="M154.891 0.95605C159.36 0.95605 166.341 4.67851 166.341 4.67851C178.896 -0.804119 186.902 5.98087 190.237 6.17705C194.37 6.4202 197.613 7.17086 201.836 6.23254C205.383 5.44435 212.188 2.7216 215.71 4.67859C219.619 6.85014 224.665 6.99181 228.753 9.39596C232.484 11.5911 236.324 17.1657 241.184 17.1657C244.585 17.1657 252.669 16.335 255.669 14.6683C260.075 12.2206 265.714 13.1699 270.654 13.1699C275.705 13.1699 278.682 16.1474 282.085 19.5504L282.142 19.6077C284.866 22.3319 286.919 28.1544 290.633 28.1544C302.233 28.1544 314.831 22.7434 326.097 28.3764C330.474 30.5651 333.047 39.1667 337.585 36.6457C341.466 34.4895 349.6 35.1473 354.068 35.1473C359.894 35.1473 365.439 35.8161 371.051 36.1462C374.345 36.34 381.63 41.6563 382.039 45.137C382.308 47.4174 397.622 45.8684 400.076 46.6354C405.651 48.3776 410.427 47.5613 416.004 49.9099C420.255 51.6996 422.067 55.1267 426.993 55.1267C431.963 55.1267 438.713 57.1099 442.477 60.1216C443.86 61.228 450.969 67.203 446.751 68.8904C440.332 71.4576 434.801 73.1082 427.77 73.1082C417.442 73.1082 403.892 70.9439 394.527 75.1062C388.275 77.8848 378.611 76.1052 371.828 76.1052C367.98 76.1052 364.334 75.1805 360.617 75.1062C356.96 75.033 354.877 76.3138 351.571 77.0486C340.347 79.5428 325.234 79.5174 314.331 75.8832C309.14 74.1529 306.255 73.1082 300.623 73.1082C295.773 73.1082 290.859 75.1062 285.694 75.1062C280.176 75.1062 275.158 74.7012 270.154 72.3313C265.258 70.0119 261.552 70.1113 256.169 70.1113C251.181 70.1113 247.14 73.1082 241.684 73.1082C237.228 73.1082 232.159 71.3151 228.198 69.3343C223.328 66.8994 222.487 63.1185 216.709 63.1185C211.534 63.1185 205.961 69.3343 200.561 69.3343C195.267 69.3343 190.042 63.1185 185.02 63.1185C175.467 69.6732 167.516 70.0122 157.77 64.1175C152.667 64.1175 149.004 62.3068 144.284 60.6211C134.933 57.2815 136.409 50.4896 125.659 52.8785C121.544 53.7929 109.688 55.8007 105.587 53.9783C88.3825 46.3318 92.1722 56.3141 80.1082 54.8948C75.0588 54.3007 73.2702 51.0397 67.8624 51.8122C62.7391 52.5441 59.2179 55.9099 53.9915 55.9099C51.2236 55.9099 41.6116 52.9068 41.6116 52.9068C42.449 52.3224 17.8903 56.6404 14.9038 52.8785C8.3395 52.8785 6.47891 54.2733 1.65269 48.9109C-0.808416 46.1763 3.53587 39.4783 5.87057 38.1442C7.24749 37.3574 7.98947 35.6839 9.42248 34.9253C11.4576 33.8479 13.7869 33.6427 15.9713 32.6498C18.0687 31.6965 21.6221 31.7147 23.9076 31.2069C26.2689 30.6821 28.1879 29.36 30.4009 28.3764C33.305 27.0857 38.1245 25.3294 41.3896 25.1575C45.6838 24.9315 50.5305 23.1596 54.8757 23.1596C60.7311 23.1596 63.0565 20.3007 67.8624 18.1647C72.5524 16.0803 76.0584 13.1699 81.3485 13.1699C86.3258 13.1699 89.7285 13.0467 93.9467 11.1719C102.186 7.51012 113.744 13.401 121.307 8.95197C125.85 6.27987 126.114 4.1791 131.797 4.1791C136.131 4.1791 139.393 2.18116 143.784 2.18116C148.28 2.18116 150.396 0.95605 154.891 0.95605Z" fill="url(#paint0_linear_1_822)"/>
<defs>
<linearGradient id="paint0_linear_1_822" x1="219.092" y1="7.47736" x2="220.439" y2="81.9995" gradientUnits="userSpaceOnUse">
<stop stop-color="#FF4439"/>
<stop offset="0.697666" stop-color="#FF876A"/>
</linearGradient>
</defs>
</svg>
