<svg width="413" height="229" viewBox="0 0 413 229" fill="none" xmlns="http://www.w3.org/2000/svg">
<path d="M140.281 36.2027C146.208 35.1866 143.615 29.4991 143.615 29.4991C139.83 23.8216 132.57 25.3787 126.447 25.3787C120.956 25.3787 116.418 24.0052 111.338 24.0052C105.042 24.0052 99.4675 25.346 93.4831 26.6759C90.0965 27.4284 79.8764 24.7034 77.688 27.4389C75.3286 30.3883 64.2946 29.4991 60.5194 29.4991C55.1405 29.4991 47.5708 27.1116 42.6641 28.202C31.8012 30.6159 19.6528 29.4991 8.32685 29.4991C0.391783 29.4991 3.74628 22.837 8.32685 19.2743C10.3104 17.7315 14.6044 17.2353 15.881 15.0012C17.1919 12.7071 18.6478 9.28321 20.6119 7.59964C30.2895 -0.69545 47.0597 14.1767 56.3989 6.91289C60.7794 3.50588 69.5722 7.52333 74.2543 7.52333C80.6018 7.52333 84.9195 4.77636 90.8125 4.77636C99.8234 4.77636 108.662 6.14985 117.443 6.14985C120.472 6.14985 121.929 3.40287 125.073 3.40287C128.066 3.40287 130.532 4.77636 133.314 4.77636C138.854 4.77636 144.038 6.14985 149.796 6.14985C155.523 6.14985 159.707 2.01884 166.278 3.47917C168.795 4.03849 181.263 9.55096 182.073 8.13377C183.345 5.90833 188.11 4.81454 188.864 8.21008C189.629 11.6534 192.893 11.2895 195.808 12.3305C199.133 13.5181 203.006 13.3871 206.186 14.5434C208.865 15.5178 211.502 18.5112 214.35 18.5112C221.564 18.5112 223.104 18.1207 226.025 24.6919C228.35 29.9247 237.298 28.4824 239.76 31.5594C242.92 35.5097 242.825 38.2691 247.314 41.8605C249.22 43.3858 248.747 56.069 245.864 56.8926C240.161 58.522 235.536 61.0894 229.458 61.0894C224.75 61.0894 219.157 63.2377 219.157 68.6436C219.157 75.23 225.741 74.8243 230.832 74.8243C242.966 74.8243 251.536 80.3182 263.796 80.3182C269.949 80.3182 274.725 79.9358 280.201 83.0652C282.871 84.5906 290.269 88.5154 291.952 90.6194C293.797 92.9251 292.208 102.294 288.518 102.294C284.002 102.294 276.009 100.774 272.037 102.981C267.706 105.387 259.786 102.67 256.242 107.101C251.789 112.667 260.913 115.007 265.169 115.953C275.922 118.342 287.614 115.672 298.209 118.7C303.807 120.299 308.603 122.896 314.615 122.896C321.966 122.896 328.004 121.712 333.844 126.254C336.049 127.969 340.783 128.39 343.534 128.39C347.341 128.39 349.262 131.137 353.072 131.137H369.554C373.178 131.137 381.745 134.529 383.976 137.318C385.919 139.747 391.87 146.798 387.41 150.366C378.077 157.833 362.802 153.113 351.012 153.113C345.081 153.113 341.039 155.86 335.217 155.86C329.439 155.86 324.087 155.65 320.185 160.667C311.876 171.351 341.135 175.089 346.205 175.089C359.637 175.089 372.928 179.209 386.036 179.209C394.609 179.209 410.072 176.158 410.072 188.137C410.072 201.615 393.587 198.438 383.289 198.438H364.06C356.177 198.438 348.797 201.185 340.711 201.185C328.711 201.185 317.985 198.348 306.374 195.768C295.582 193.369 281.685 195.691 270.587 195.691C263.354 195.691 256.889 192.944 250.061 192.944H232.129H195.808C193.561 192.944 183.447 197.708 183.447 199.812C183.447 205.01 193.926 203.741 197.182 203.932C208.185 204.579 209.997 219.66 197.182 220.414C188.755 220.91 177.952 228.502 168.338 224.229C165.461 222.95 162.714 220.815 160.403 218.735C159.144 217.603 156.835 219.041 154.603 219.041C149.88 219.041 140.573 220.979 137.816 216.294C135.456 212.281 133.625 206.209 130.949 202.864C127.471 198.517 119.363 202.92 114.772 200.88C109.894 198.712 103.371 195.691 97.9851 195.691C90.9045 195.691 85.1337 199.812 77.688 199.812H44.7243C36.6419 199.812 40.2918 192.755 40.6038 187.45C40.8562 183.16 46.6547 179.417 50.2182 177.531C57.1188 173.877 61.0718 172.835 69.4471 172.342C75.2322 172.002 82.146 170.968 88.6759 170.968C101.007 170.968 114.084 175.09 125.76 169.9C134.941 165.82 151.708 170.968 161.471 170.968C165.821 170.968 170.855 168.221 175.206 168.221C178.301 168.221 181.422 168.336 184.515 168.221C188.273 168.082 189.778 164.213 191.688 164.101C196.772 163.802 204.85 165.881 209.543 163.796C213.285 162.133 221.931 159.84 226.025 161.659C231.617 164.145 234.47 163.039 239.76 162.728C244.118 162.471 250.21 155.116 247.695 150.366C246.604 148.305 236.776 145.683 234.266 144.567C228.684 142.086 218.227 142.455 212.29 142.125C201.268 141.513 190.153 140.752 179.326 140.752C174.194 140.752 149.109 141.202 149.109 133.884C149.109 119.882 159.092 118.776 171.085 118.776C173.553 118.776 176.437 119.761 178.258 121.218C180.044 122.646 182.073 119.198 183.447 118.471C187.781 116.176 194.711 117.535 198.25 114.35C202.393 110.622 208.169 116.15 208.169 107.788C208.169 101.617 201.943 100.921 197.182 100.921C186.158 100.921 174.831 99.5471 164.218 99.5471C159.029 99.5471 134.403 102.252 134.001 95.4266C133.717 90.5943 138.793 84.4387 143.615 84.4387C149.629 84.4387 153.299 82.2945 158.724 81.6917C161.739 81.3567 163.776 78.9447 166.965 78.9447C169.368 78.9447 172.392 79.6224 174.137 77.8765C177.882 74.1316 182.28 70.7038 187.567 70.7038C193.868 70.7038 193.354 61.0894 187.567 61.0894C182.102 61.0894 176.541 61.3925 171.085 61.0894C160.399 60.4957 148.904 58.3424 138.122 58.3424C133.099 58.3424 127.331 56.7291 123.013 56.9689C117.527 57.2737 111.965 60.7511 107.6 55.9007C105.337 53.3867 94.3267 55.5147 94.1699 52.8485C93.882 47.9538 96.2062 45.1761 99.9691 42.1658C106.687 36.7917 121.297 39.1136 129.881 39.1136C134.786 39.1136 135.998 36.2027 140.281 36.2027Z" stroke="url(#paint0_linear_1_826)" stroke-width="5.74464" stroke-linecap="round"/>
<defs>
<linearGradient id="paint0_linear_1_826" x1="212.582" y1="-20.0464" x2="341.112" y2="247.325" gradientUnits="userSpaceOnUse">
<stop stop-color="#FF2A26"/>
<stop offset="1" stop-color="#FF9B79"/>
</linearGradient>
</defs>
</svg>
