<svg width="580" height="106" viewBox="0 0 580 106" fill="none" xmlns="http://www.w3.org/2000/svg">
<path d="M51.6483 94.4213C39.1313 94.4213 -9.00683 99.6195 5.80014 85.4706C15.836 78.7252 21.8746 81.3852 23.8975 81.0174C28.2858 80.2195 35.3313 81.0174 39.929 81.0174C44.9575 81.0174 45.8506 75.1633 50.8791 75.1633C54.8673 75.1633 60.3038 76.9419 63.6832 75.1633C72.1559 70.704 82.6341 68.8589 92.0532 68.8589C97.2006 68.8589 102.246 69.8721 107.251 69.8721C111.569 69.8721 115.47 67.3386 119.41 65.3689C129.576 60.2856 141.291 60.7531 152.339 60.7531C154.876 60.7531 160.422 61.7847 162.472 60.1902C166.846 56.7878 168.636 55.6871 174.123 55.6871C180.465 55.6871 186.807 55.6871 193.149 55.6871C197.986 55.6871 205.152 57.015 209.811 55.4619C214.485 53.9041 216.606 51.6342 221.744 51.6342C225.797 51.6342 229.85 51.6342 233.903 51.6342C245.335 51.6342 255.748 60.7531 267.113 60.7531C276.247 60.7531 293.894 58.5953 302.667 60.1902C308.592 61.2676 333.101 52.9115 333.101 44.5417C333.101 38.3974 302.712 34.4494 297.735 36.6612C289.256 40.4296 285.022 30.7762 277.471 30.3568C269.166 29.8954 261.875 33.3964 253.661 33.3964C247.995 33.3964 243.166 33.4119 237.956 30.8071C233.011 28.3347 230.003 25.2907 224.277 25.2907C214.405 25.2907 204.963 27.3171 194.951 27.3171C188.953 27.3171 184.075 24.2323 178.627 22.251C174.445 20.7306 169.974 21.2378 165.567 21.2378C161.833 21.2378 158.1 21.2378 154.366 21.2378C149.21 21.2378 145.343 18.7459 140.687 18.1982C128.505 16.7649 133.656 8.11844 142.714 7.05285C146.021 6.66375 149.242 5.02643 153.071 5.02643C156.899 5.02643 160.727 5.02643 164.554 5.02643C169.34 5.02643 173.827 3 178.683 3C182.736 3 186.789 3 190.841 3C194.263 3 201.718 5.02643 210.599 6.03964C217.203 6.03964 223.057 5.2848 229.85 6.03964C237.779 6.92057 243.985 5.02643 251.916 5.02643C256.456 5.02643 260.997 5.02643 265.538 5.02643C270.801 5.02643 275.229 8.52326 280.511 9.07928C282.341 9.27192 283.74 11.0037 285.577 11.1057C287.877 11.2335 290.258 11.1395 292.557 11.1057C300.031 10.9958 307.423 10.0925 314.96 10.0925C324.029 10.0925 331.941 13.1321 340.797 13.1321C345.484 13.1321 348.965 10.0925 353.912 10.0925C357.628 10.0925 361.343 10.0925 365.058 10.0925C368.253 10.0925 373.467 9.04795 376.259 10.5991C379.601 12.4558 383.661 13.1321 387.405 13.1321C394.153 13.1321 403.371 8.45477 410.202 11.3309C426.963 18.3882 444.064 17.185 462.101 17.185C468.993 17.185 474.714 19.2114 481.127 19.2114C489.245 19.2114 496.766 18.1982 504.937 18.1982C512.484 18.1982 518.382 22.251 526.215 22.251C534.397 22.251 554.341 20.0367 561.232 24.0899C575.337 26.7305 578.391 34.0377 576.575 36.4552C574.023 39.8515 564.391 49.2924 547.085 48.5383C541.765 48.5383 528.355 53.7496 523.731 56.3184C519.206 58.8321 510.14 54.2 504.937 54.2C497.249 54.2 488.538 58.4359 481.127 56.3184C478.246 55.4952 470.401 50.8761 467.396 50.8761C460.051 50.8761 454.588 51.0112 449.975 56.3184C438.105 67.6904 432.422 66.5328 421.81 68.155C416.801 68.155 395.08 72.24 391.252 75.6648C387.091 79.3886 381.523 81.6022 376.259 81.0174C365.481 79.8198 357.397 87.4522 345.919 92.6694C335.07 97.6008 322.661 93.2313 311.47 96.2156C306.529 97.5332 301.455 99.6858 296.778 101.732C290.908 104.3 282.536 101.581 276.908 99.7056C263.783 95.3305 252.501 97.2288 239.194 97.2288C223.585 97.2288 224.978 86.3899 209.811 90.4892C197.905 93.7071 188.617 99.4656 176.381 99.7056C169.911 99.8324 150.227 96.6222 143.669 96.6222C136.792 98.6539 123.802 96.5877 117.017 94.4213C111.151 94.4213 105.426 100.868 92.0532 98.6323M51.6483 94.4213C57.3409 94.4213 78.8457 96.4246 92.0532 98.6323M51.6483 94.4213L67.6664 96.6222L92.0532 98.6323" stroke="#FF4439" stroke-width="5.74464" stroke-linecap="round"/>
</svg>
