<svg width="407" height="223" viewBox="0 0 407 223" fill="none" xmlns="http://www.w3.org/2000/svg">
<path d="M136.76 33.2026C142.687 32.1864 140.095 26.499 140.095 26.499C136.31 20.8215 129.049 22.3786 122.926 22.3786C117.435 22.3786 112.897 21.0051 107.818 21.0051C101.522 21.0051 95.9467 22.3459 89.9624 23.6757C86.5758 24.4283 76.3557 21.7033 74.1673 24.4388C71.8078 27.3881 60.7739 26.499 56.9987 26.499C51.6198 26.499 44.05 24.1115 39.1433 25.2018C28.2805 27.6158 16.132 26.499 4.8061 26.499C-3.12897 26.499 0.225526 19.8368 4.8061 16.2742C6.78969 14.7314 11.0836 14.2352 12.3603 12.0011C13.6712 9.70703 15.127 6.28308 17.0912 4.59952C26.7688 -3.69557 43.539 11.1766 52.8782 3.91277C57.2586 0.505761 66.0515 4.52321 70.7335 4.52321C77.0811 4.52321 81.3988 1.77623 87.2917 1.77623C96.3027 1.77623 105.142 3.14972 113.922 3.14972C116.951 3.14972 118.408 0.402746 121.553 0.402746C124.546 0.402746 127.011 1.77623 129.794 1.77623C135.333 1.77623 140.517 3.14972 146.275 3.14972C152.002 3.14972 156.186 -0.981279 162.757 0.479051C165.274 1.03837 177.743 6.55084 178.552 5.13365C179.824 2.90821 184.589 1.81442 185.344 5.20996C186.109 8.65325 189.372 8.28933 192.287 9.33042C195.613 10.518 199.485 10.3869 202.665 11.5433C205.344 12.5177 207.981 15.5111 210.829 15.5111C218.044 15.5111 219.583 15.1206 222.504 21.6918C224.83 26.9245 233.777 25.4822 236.239 28.5593C239.399 32.5096 239.304 35.269 243.793 38.8604C245.7 40.3856 245.226 53.0689 242.343 53.8925C236.64 55.5219 232.016 58.0893 225.938 58.0893C221.229 58.0893 215.637 60.2376 215.637 65.6434C215.637 72.2299 222.221 71.8241 227.311 71.8241C239.445 71.8241 248.015 77.3181 260.275 77.3181C266.428 77.3181 271.204 76.9356 276.681 80.0651C279.35 81.5905 286.748 85.5153 288.431 87.6193C290.276 89.9249 288.687 99.2939 284.998 99.2939C280.481 99.2939 272.489 97.7736 268.516 99.9807C264.185 102.386 256.266 99.6702 252.721 104.101C248.268 109.667 257.392 112.007 261.648 112.952C272.401 115.342 284.093 112.672 294.688 115.699C300.286 117.299 305.083 119.896 311.094 119.896C318.446 119.896 324.483 118.712 330.323 123.254C332.528 124.969 337.263 125.39 340.014 125.39C343.821 125.39 345.742 128.137 349.552 128.137H366.034C369.657 128.137 378.224 131.529 380.455 134.318C382.399 136.747 388.349 143.798 383.889 147.366C374.556 154.833 359.281 150.113 347.491 150.113C341.561 150.113 337.519 152.86 331.696 152.86C325.918 152.86 320.567 152.65 316.664 157.667C308.355 168.351 337.614 172.089 342.684 172.089C356.116 172.089 369.407 176.209 382.515 176.209C391.089 176.209 406.551 173.158 406.551 185.137C406.551 198.615 390.066 195.438 379.768 195.438H360.54C352.657 195.438 345.276 198.185 337.19 198.185C325.19 198.185 314.464 195.348 302.853 192.767C292.061 190.369 278.165 192.691 267.066 192.691C259.833 192.691 253.368 189.944 246.54 189.944H228.608H192.287C190.04 189.944 179.926 194.708 179.926 196.812C179.926 202.01 190.405 200.741 193.661 200.932C204.665 201.579 206.476 216.66 193.661 217.414C185.234 217.91 174.431 225.502 164.818 221.229C161.94 219.95 159.193 217.815 156.882 215.735C155.623 214.603 153.314 216.04 151.083 216.04C146.36 216.04 137.052 217.979 134.296 213.293C131.935 209.281 130.104 203.209 127.428 199.864C123.951 195.517 115.843 199.92 111.251 197.88C106.374 195.712 99.8501 192.691 94.4644 192.691C87.3837 192.691 81.613 196.812 74.1673 196.812H41.2035C33.1211 196.812 36.771 189.755 37.0831 184.45C37.3354 180.16 43.1339 176.417 46.6975 174.531C53.598 170.877 57.5511 169.834 65.9263 169.342C71.7115 169.002 78.6253 167.968 85.1552 167.968C97.4863 167.968 110.563 172.09 122.239 166.9C131.42 162.82 148.188 167.968 157.95 167.968C162.301 167.968 167.335 165.221 171.685 165.221C174.781 165.221 177.901 165.336 180.994 165.221C184.753 165.082 186.257 161.213 188.167 161.101C193.252 160.802 201.33 162.881 206.022 160.796C209.764 159.132 218.41 156.84 222.504 158.659C228.096 161.145 230.95 160.039 236.239 159.727C240.597 159.471 246.689 152.116 244.175 147.366C243.084 145.305 233.255 142.683 230.745 141.567C225.163 139.086 214.706 139.455 208.769 139.125C197.748 138.513 186.632 137.752 175.805 137.752C170.673 137.752 145.589 138.202 145.589 130.884C145.589 116.882 155.571 115.776 167.564 115.776C170.033 115.776 172.916 116.761 174.737 118.218C176.523 119.646 178.552 116.198 179.926 115.471C184.26 113.176 191.191 114.535 194.729 111.35C198.872 107.621 204.649 113.15 204.649 104.788C204.649 98.6166 198.423 97.9204 193.661 97.9204C182.637 97.9204 171.31 96.5469 160.697 96.5469C155.508 96.5469 130.882 99.2523 130.48 92.4265C130.196 87.5942 135.273 81.4386 140.095 81.4386C146.109 81.4386 149.778 79.2944 155.203 78.6916C158.218 78.3566 160.255 75.9446 163.444 75.9446C165.847 75.9446 168.871 76.6223 170.617 74.8763C174.362 71.1315 178.759 67.7037 184.046 67.7037C190.347 67.7037 189.833 58.0893 184.046 58.0893C178.581 58.0893 173.02 58.3923 167.564 58.0893C156.878 57.4956 145.383 55.3423 134.601 55.3423C129.578 55.3423 123.81 53.7289 119.492 53.9688C114.007 54.2736 108.444 57.751 104.079 52.9005C101.816 50.3866 90.806 52.5145 90.6491 49.8483C90.3612 44.9536 92.6854 42.176 96.4483 39.1656C103.166 33.7916 117.776 36.1134 126.36 36.1134C131.265 36.1134 132.477 33.2026 136.76 33.2026Z" fill="url(#paint0_linear_1_827)"/>
<defs>
<linearGradient id="paint0_linear_1_827" x1="209.061" y1="-23.0466" x2="337.592" y2="244.325" gradientUnits="userSpaceOnUse">
<stop stop-color="#FF2A26"/>
<stop offset="1" stop-color="#FF9B79"/>
</linearGradient>
</defs>
</svg>
