<svg width="575" height="101" viewBox="0 0 575 101" fill="none" xmlns="http://www.w3.org/2000/svg">
<path d="M227.177 3.99569C220.383 3.24085 214.529 3.99569 207.926 3.99569C199.044 2.98248 191.59 0.956055 188.168 0.956055H176.009C171.153 0.956055 166.667 2.98248 161.881 2.98248H150.398C146.569 2.98248 143.348 4.61981 140.04 5.00891C130.983 6.0745 125.831 14.721 138.014 16.1543C142.669 16.702 146.537 19.1939 151.692 19.1939H162.894C167.3 19.1939 171.772 18.6867 175.953 20.2071C181.402 22.1884 186.28 25.2732 192.277 25.2732C202.289 25.2732 211.732 23.2467 221.604 23.2467C227.329 23.2467 230.338 26.2908 235.282 28.7631C240.461 31.3526 245.265 31.3525 250.887 31.3524H250.987C259.201 31.3524 266.493 27.8514 274.798 28.3128C282.348 28.7323 286.583 38.3857 295.062 34.6172C300.038 32.4054 330.428 36.3535 330.428 42.4978C330.428 50.8676 305.918 59.2236 299.993 58.1463C291.221 56.5513 273.573 58.7092 264.44 58.7092C253.075 58.7092 242.661 49.5903 231.229 49.5903H219.071C213.933 49.5903 211.811 51.8601 207.138 53.418C202.478 54.9711 195.313 53.6431 190.476 53.6431H171.45C165.962 53.6431 164.173 54.7438 159.798 58.1463C157.748 59.7407 152.202 58.7092 149.666 58.7092C138.617 58.7092 126.903 58.2417 116.736 63.325C112.797 65.2947 108.895 67.8281 104.578 67.8281C99.5721 67.8281 94.5271 66.8149 89.3797 66.8149C79.9606 66.8149 69.4825 68.66 61.0098 73.1193C57.6303 74.898 52.1938 73.1193 48.2056 73.1193C43.1771 73.1193 42.2841 78.9735 37.2556 78.9735C32.6578 78.9735 25.6123 78.1756 21.2241 78.9735C19.2011 79.3413 13.1625 76.6812 3.12665 83.4266C-11.6803 97.5755 36.4578 92.3773 48.9749 92.3773L64.993 94.5783L89.3797 96.5884C102.753 98.8238 108.477 92.3773 114.343 92.3773C121.129 94.5438 134.119 96.6099 140.996 94.5783C147.554 94.5783 167.238 97.7885 173.708 97.6616C185.944 97.4217 195.231 91.6632 207.138 88.4452C222.305 84.3459 220.911 95.1849 236.521 95.1849C249.828 95.1849 261.11 93.2865 274.235 97.6616C279.862 99.5375 288.234 102.256 294.105 99.688C298.782 97.6418 303.856 95.4893 308.797 94.1717C319.988 91.1873 332.397 95.5568 343.246 90.6254C354.724 85.4083 362.808 77.7758 373.586 78.9735C378.849 79.5583 384.417 77.3447 388.579 73.6208C392.407 70.196 414.127 66.1111 419.136 66.1111C429.749 64.4888 435.432 65.6464 447.301 54.2745C451.914 48.9673 457.378 48.8322 464.723 48.8322C467.728 48.8322 475.572 53.4512 478.454 54.2745C485.865 56.3919 494.575 52.1561 502.264 52.1561C507.467 52.1561 516.533 56.7881 521.057 54.2745C525.681 51.7056 539.092 46.4944 544.411 46.4944C561.717 47.2485 571.35 37.8075 573.901 34.4113C575.717 31.9938 572.664 24.6865 558.558 22.046C551.668 17.9927 531.724 20.2071 523.542 20.2071C515.708 20.2071 509.81 16.1543 502.264 16.1543C494.093 16.1543 486.572 17.1675 478.454 17.1675C472.04 17.1675 466.319 15.141 459.428 15.141C441.39 15.141 424.29 16.3443 407.529 9.28692C400.698 6.41083 391.479 11.0882 384.731 11.0882C380.988 11.0882 376.928 10.4118 373.586 8.55515C370.794 7.00401 365.58 8.04855 362.384 8.04855H351.239C346.291 8.04855 342.811 11.0882 338.123 11.0882C329.268 11.0882 321.356 8.04855 312.287 8.04855C304.749 8.04855 297.357 8.95185 289.883 9.06176C287.584 9.09557 285.204 9.18955 282.903 9.06176C281.066 8.95971 279.667 7.22798 277.837 7.03533C272.555 6.47932 268.127 2.98248 262.864 2.98248H249.242C241.311 2.98248 235.105 4.87663 227.177 3.99569Z" fill="url(#paint0_linear_1_825)"/>
<defs>
<linearGradient id="paint0_linear_1_825" x1="279.203" y1="-9.46052" x2="257.154" y2="134.877" gradientUnits="userSpaceOnUse">
<stop stop-color="#FF2A26"/>
<stop offset="1" stop-color="#FF9B79"/>
</linearGradient>
</defs>
</svg>
