<svg width="24" height="24" viewBox="0 0 24 24" fill="none" xmlns="http://www.w3.org/2000/svg">
<g clip-path="url(#clip0_1945_2811)">
<path d="M18.1666 9.66675H11.0833C10.3009 9.66675 9.66663 10.301 9.66663 11.0834V18.1667C9.66663 18.9492 10.3009 19.5834 11.0833 19.5834H18.1666C18.949 19.5834 19.5833 18.9492 19.5833 18.1667V11.0834C19.5833 10.301 18.949 9.66675 18.1666 9.66675Z" stroke="url(#paint0_linear_1945_2811)" stroke-width="1.41667" stroke-linecap="round" stroke-linejoin="round"/>
<path d="M6.83329 15.3334C6.05413 15.3334 5.41663 14.6959 5.41663 13.9167V6.83341C5.41663 6.05425 6.05413 5.41675 6.83329 5.41675H13.9166C14.6958 5.41675 15.3333 6.05425 15.3333 6.83341" stroke="url(#paint1_linear_1945_2811)" stroke-width="1.41667" stroke-linecap="round" stroke-linejoin="round"/>
</g>
<defs>
<linearGradient id="paint0_linear_1945_2811" x1="11.2533" y1="9.66675" x2="19.6638" y2="10.4735" gradientUnits="userSpaceOnUse">
<stop stop-color="#FF5242"/>
<stop offset="1" stop-color="#EB179B"/>
</linearGradient>
<linearGradient id="paint1_linear_1945_2811" x1="7.00329" y1="5.41675" x2="15.4138" y2="6.22349" gradientUnits="userSpaceOnUse">
<stop stop-color="#FF5242"/>
<stop offset="1" stop-color="#EB179B"/>
</linearGradient>
<clipPath id="clip0_1945_2811">
<rect width="17" height="17" fill="white" transform="translate(4 4)"/>
</clipPath>
</defs>
</svg>
