<svg width="56" height="56" viewBox="0 0 56 56" fill="none" xmlns="http://www.w3.org/2000/svg">
<path d="M40.1483 20.1206L37.7629 23.4091L35.7578 22.9467L33.2903 15.6622L30.0149 20.1757C30.0149 20.1757 31.8167 25.4721 32.0579 26.5664L31.2482 27.334L30.5983 29.0481L32.3632 29.2652L33.4102 28.9086C35.0894 30.5194 37.5184 33.1722 37.5184 33.1722L43.3436 33.0752L38.5685 27.815L39.0561 25.6489L42.8392 25.3494L40.1483 20.1206Z" fill="url(#paint0_linear_1655_9969)"/>
<path d="M8.08853 44.1565L10.4739 40.8679L12.479 41.3303L14.9465 48.6148L18.222 44.1013C18.222 44.1013 16.4202 38.8049 16.1789 37.7107L16.9886 36.9431L17.6385 35.2289L15.8736 35.0119L14.8266 35.3685C13.1474 33.7576 10.7184 31.1048 10.7184 31.1048L4.89318 31.2019L9.66828 36.462L9.18073 38.6281L5.39765 38.9277L8.08853 44.1565Z" fill="url(#paint1_linear_1655_9969)"/>
<path d="M12.9028 24.8839L16.9341 25.301L17.5329 27.2659L12.4638 33.0438L17.9973 33.6176C17.9973 33.6176 21.6792 29.4099 22.5051 28.6538L23.5721 28.9699L25.3777 28.6742L24.6865 27.0397L23.8567 26.3129C24.4131 24.0551 25.497 20.6278 25.497 20.6278L22.5119 15.6399L20.3422 22.4001L18.2266 23.0623L16.0834 19.9414L12.9028 24.8839Z" fill="url(#paint2_linear_1655_9969)"/>
<path d="M50.8984 38.556L46.8672 38.1389L46.2683 36.174L51.3375 30.3961L45.8039 29.8223C45.8039 29.8223 42.1221 34.03 41.2961 34.786L40.2292 34.47L38.4235 34.7657L39.1148 36.4002L39.9446 37.127C39.3881 39.3848 38.3043 42.8121 38.3043 42.8121L41.2894 47.8L43.4591 41.0398L45.5747 40.3776L47.7178 43.4985L50.8984 38.556Z" fill="url(#paint3_linear_1655_9969)"/>
<path d="M25.3412 43.3008L26.9369 39.5754L25.5111 38.0967L17.9974 39.7168L20.1866 34.6024C20.1866 34.6024 25.6537 33.4311 26.716 33.077L26.9586 31.991L28.095 30.557L29.1871 31.9558L29.4188 33.0342C31.6622 33.6458 35.1841 34.3653 35.1841 34.3653L38.0912 39.399L31.1289 38.0079L29.5216 39.5345L31.2066 42.9248L25.3412 43.3008Z" fill="url(#paint4_linear_1655_9969)"/>
<path d="M30.3863 4.87501L28.7906 8.60042L30.2164 10.0791L37.7302 8.45903L35.5409 13.5734C35.5409 13.5734 30.0739 14.7448 29.0116 15.0989L28.769 16.1848L27.6325 17.6189L26.5404 16.2201L26.3088 15.1416C24.0653 14.53 20.5434 13.8106 20.5434 13.8106L17.6364 8.77682L24.5987 10.168L26.206 8.64129L24.5209 5.25104L30.3863 4.87501Z" fill="url(#paint5_linear_1655_9969)"/>
<defs>
<linearGradient id="paint0_linear_1655_9969" x1="44.7921" y1="32.2389" x2="35.0577" y2="37.0973" gradientUnits="userSpaceOnUse">
<stop stop-color="#FF5242"/>
<stop offset="1" stop-color="#EB179B"/>
</linearGradient>
<linearGradient id="paint1_linear_1655_9969" x1="3.44469" y1="32.0381" x2="13.1791" y2="27.1798" gradientUnits="userSpaceOnUse">
<stop stop-color="#FF5242"/>
<stop offset="1" stop-color="#EB179B"/>
</linearGradient>
<linearGradient id="paint2_linear_1655_9969" x1="21.0674" y1="14.8059" x2="30.1177" y2="20.7891" gradientUnits="userSpaceOnUse">
<stop stop-color="#FF5242"/>
<stop offset="1" stop-color="#EB179B"/>
</linearGradient>
<linearGradient id="paint3_linear_1655_9969" x1="42.7338" y1="48.6339" x2="33.6835" y2="42.6508" gradientUnits="userSpaceOnUse">
<stop stop-color="#FF5242"/>
<stop offset="1" stop-color="#EB179B"/>
</linearGradient>
<linearGradient id="paint4_linear_1655_9969" x1="38.1175" y1="41.0667" x2="37.29" y2="30.2491" gradientUnits="userSpaceOnUse">
<stop stop-color="#FF5242"/>
<stop offset="1" stop-color="#EB179B"/>
</linearGradient>
<linearGradient id="paint5_linear_1655_9969" x1="17.61" y1="7.10912" x2="18.4376" y2="17.9267" gradientUnits="userSpaceOnUse">
<stop stop-color="#FF5242"/>
<stop offset="1" stop-color="#EB179B"/>
</linearGradient>
</defs>
</svg>
