<svg width="56" height="56" viewBox="0 0 56 56" fill="none" xmlns="http://www.w3.org/2000/svg">
<path d="M40.244 10.6352L38.728 15.8045L36.0177 16.1192L29.6937 8.11846L27.6111 15.2138C27.6111 15.2138 32.2187 21.0276 33.0071 22.2871L32.3373 23.6062L32.2884 26.0365L34.5894 25.5222L35.7385 24.6109C38.5529 25.8757 42.7675 28.1082 42.7675 28.1082L50.0005 25.3946L41.695 20.9493L41.3401 18.0267L45.9321 15.9689L40.244 10.6352Z" fill="url(#paint0_linear_1655_9971)"/>
<path d="M40.5292 45.6053L38.8872 40.4747L36.17 40.2263L30.0436 48.3794L27.7881 41.3371C27.7881 41.3371 32.2521 35.4123 33.0094 34.134L32.3076 32.8316L32.1993 30.4032L34.5122 30.8611L35.6832 31.7441C38.4658 30.4108 42.6245 28.0758 42.6245 28.0758L49.9217 30.6117L41.7275 35.2589L41.4441 38.1892L46.0851 40.1341L40.5292 45.6053Z" fill="url(#paint1_linear_1655_9971)"/>
<path d="M9.91747 15.6165L14.851 17.7471L14.8272 20.4707L6.11739 25.764L12.889 28.6901C12.889 28.6901 19.2196 24.8316 20.565 24.2036L21.789 25.0276L24.1907 25.3715L23.9662 23.0291L23.2056 21.7798C24.8072 19.145 27.541 15.2405 27.541 15.2405L25.7484 7.74405L20.3156 15.4328L17.3762 15.4292L15.9062 10.6291L9.91747 15.6165Z" fill="url(#paint2_linear_1655_9971)"/>
<path d="M10.174 41.7204L15.018 39.3935L14.8849 36.673L5.96958 31.7337L12.6183 28.5381C12.6183 28.5381 19.0987 32.1393 20.4682 32.7128L21.6581 31.8403L24.0441 31.4003L23.9138 33.7498L23.2039 35.0287C24.91 37.597 27.7984 41.3886 27.7984 41.3886L26.3081 48.951L20.5711 41.4866L17.6342 41.6082L16.358 46.4634L10.174 41.7204Z" fill="url(#paint3_linear_1655_9971)"/>
<defs>
<linearGradient id="paint0_linear_1655_9971" x1="51.4376" y1="23.7054" x2="41.4406" y2="34.106" gradientUnits="userSpaceOnUse">
<stop stop-color="#FF5242"/>
<stop offset="1" stop-color="#EB179B"/>
</linearGradient>
<linearGradient id="paint1_linear_1655_9971" x1="51.3997" y1="32.2653" x2="41.1514" y2="22.1123" gradientUnits="userSpaceOnUse">
<stop stop-color="#FF5242"/>
<stop offset="1" stop-color="#EB179B"/>
</linearGradient>
<linearGradient id="paint2_linear_1655_9971" x1="24.2528" y1="6.11476" x2="33.322" y2="17.2819" gradientUnits="userSpaceOnUse">
<stop stop-color="#FF5242"/>
<stop offset="1" stop-color="#EB179B"/>
</linearGradient>
<linearGradient id="paint3_linear_1655_9971" x1="24.8791" y1="50.639" x2="33.4928" y2="39.1168" gradientUnits="userSpaceOnUse">
<stop stop-color="#FF5242"/>
<stop offset="1" stop-color="#EB179B"/>
</linearGradient>
</defs>
</svg>
