<svg width="56" height="56" viewBox="0 0 56 56" fill="none" xmlns="http://www.w3.org/2000/svg">
<path d="M8.27002 17.8833L13.1846 18.2002L14.0076 20.5462L8.13572 27.7612L14.8818 28.1978C14.8818 28.1978 19.1462 22.9441 20.112 21.9924L21.4227 22.3248L23.6004 21.8838L22.6813 19.9413L21.6384 19.1017C22.2036 16.3485 23.352 12.1579 23.352 12.1579L19.4842 6.27063L17.1804 14.5379L14.6443 15.4359L11.8899 11.765L8.27002 17.8833Z" fill="url(#paint0_linear_1655_9970)"/>
<path d="M30.9307 37.2134L28.9252 32.7452L30.6251 30.9324L39.7634 32.7452L37.0118 26.6111C37.0118 26.6111 30.3628 25.3011 29.0684 24.8937L28.7535 23.587L27.3486 21.877L26.0517 23.587L25.7916 24.8937C23.084 25.6751 18.829 26.6111 18.829 26.6111L15.4019 32.7452L23.8141 30.9324L25.7916 32.7452L23.8141 36.8714L30.9307 37.2134Z" fill="url(#paint1_linear_1655_9970)"/>
<path d="M10.9618 49.2589L13.1083 44.8562L15.5949 44.9882L20.075 53.1278L23.0229 47.0848C23.0229 47.0848 19.7563 41.1683 19.2375 39.9187L20.0399 38.8384L20.4516 36.667L18.3031 36.7764L17.1312 37.4178C14.79 35.8538 11.3352 33.208 11.3352 33.208L4.41565 34.5354L11.2169 39.7902L11.094 42.4647L6.65028 43.6077L10.9618 49.2589Z" fill="url(#paint2_linear_1655_9970)"/>
<path d="M48.1463 44.1486L43.4215 42.8071L43.1202 40.3445L50.3882 34.5355L43.9029 32.6926C43.9029 32.6926 38.6216 36.9249 37.4764 37.6509L36.2693 37.0513L34.0513 37.0243L34.5325 39.1133L35.3701 40.1517C34.2306 42.7203 32.2152 46.5694 32.2152 46.5694L34.7289 53.1278L38.7422 45.5425L41.4073 45.1986L43.3088 49.36L48.1463 44.1486Z" fill="url(#paint3_linear_1655_9970)"/>
<path d="M46.4199 18.1604L41.5098 18.3266L40.6211 20.644L46.2676 28.0283L39.5276 28.258C39.5276 28.258 35.4272 22.8813 34.4917 21.9014L33.175 22.1932L31.016 21.6863L31.9889 19.7747L33.0532 18.9682C32.5694 16.2016 31.5456 11.9818 31.5456 11.9818L35.5733 6.22128L37.6312 14.5472L40.1342 15.5215L42.9873 11.9401L46.4199 18.1604Z" fill="url(#paint4_linear_1655_9970)"/>
<defs>
<linearGradient id="paint0_linear_1655_9970" x1="17.6898" y1="5.33013" x2="28.9451" y2="12.1789" gradientUnits="userSpaceOnUse">
<stop stop-color="#FF5242"/>
<stop offset="1" stop-color="#EB179B"/>
</linearGradient>
<linearGradient id="paint1_linear_1655_9970" x1="15.4019" y1="34.7596" x2="16.1916" y2="21.6805" gradientUnits="userSpaceOnUse">
<stop stop-color="#FF5242"/>
<stop offset="1" stop-color="#EB179B"/>
</linearGradient>
<linearGradient id="paint2_linear_1655_9970" x1="2.86677" y1="35.8302" x2="13.4066" y2="27.9929" gradientUnits="userSpaceOnUse">
<stop stop-color="#FF5242"/>
<stop offset="1" stop-color="#EB179B"/>
</linearGradient>
<linearGradient id="paint3_linear_1655_9970" x1="36.2778" y1="54.4226" x2="26.7666" y2="45.373" gradientUnits="userSpaceOnUse">
<stop stop-color="#FF5242"/>
<stop offset="1" stop-color="#EB179B"/>
</linearGradient>
<linearGradient id="paint4_linear_1655_9970" x1="37.39" y1="5.33702" x2="25.9649" y2="11.8273" gradientUnits="userSpaceOnUse">
<stop stop-color="#FF5242"/>
<stop offset="1" stop-color="#EB179B"/>
</linearGradient>
</defs>
</svg>
