<svg width="243" height="50" viewBox="0 0 243 50" fill="none" xmlns="http://www.w3.org/2000/svg">
<path d="M0 28.961L6.54469 26.0343L9.20002 28.5149L6.54469 41.8501L15.5295 37.8348C15.5295 37.8348 17.4484 28.1322 18.045 26.2434L19.959 25.7839L22.4637 23.7337L19.959 21.8412L18.045 21.4616C16.9005 17.5106 15.5295 11.3014 15.5295 11.3014L6.54469 6.30033L9.20002 18.5759L6.54469 21.4616L0.501032 18.5759L0 28.961Z" fill="#282A2D"/>
<path d="M42.3114 44.2128L36.5046 40.0082L37.3251 36.4684L50.2014 32.1003L42.2316 26.327C42.2316 26.327 32.8695 29.5164 30.9354 29.9442L29.5805 28.5163L26.5526 27.3723L26.166 30.4877L26.7943 32.3351C23.9449 35.3017 19.253 39.5937 19.253 39.5937L19.4144 49.8752L28.7177 41.4378L32.5444 42.2946L33.0672 48.9714L42.3114 44.2128Z" fill="#282A2D"/>
<path d="M33.6639 0.573644L33.0265 7.7145L29.5658 8.82259L19.2197 0L18.3425 9.80205C18.3425 9.80205 25.8766 16.2099 27.2345 17.652L26.702 19.547L27.27 22.7335L30.1439 21.4701L31.4088 19.9844C35.4162 20.9124 41.5054 22.7443 41.5054 22.7443L50.2537 17.3402L38.2423 13.6705L37.0184 9.94495L42.4854 6.07655L33.6639 0.573644Z" fill="#282A2D"/>
<path d="M68.4439 14.4219V26.9278L67.691 28.401V32.4605L68.4439 33.9665V39.6301H62.9767V14.4219H68.4439ZM66.5124 30.3326C66.8398 28.3683 67.4727 26.6441 68.4112 25.16C69.3715 23.6758 70.5501 22.53 71.9469 21.7225C73.3655 20.9149 74.937 20.5112 76.6612 20.5112C78.4508 20.5112 80.0441 20.9259 81.4409 21.7552C82.8595 22.5628 83.9617 23.7195 84.7474 25.2254C85.5331 26.7096 85.926 28.4119 85.926 30.3326C85.926 32.2532 85.5331 33.9556 84.7474 35.4397C83.9617 36.9238 82.8595 38.0805 81.4409 38.9099C80.0441 39.7174 78.4508 40.1212 76.6612 40.1212C74.937 40.1212 73.3764 39.7174 71.9796 38.9099C70.5828 38.1024 69.4043 36.9674 68.4439 35.5051C67.5054 34.021 66.8616 32.2968 66.5124 30.3326ZM80.3605 30.3326C80.3605 29.2631 80.1314 28.3028 79.673 27.4516C79.2365 26.6004 78.6145 25.9457 77.807 25.4873C77.0213 25.0072 76.1374 24.7671 75.1552 24.7671C73.6274 24.7671 72.2306 25.28 70.9648 26.3058C69.7207 27.3316 68.8041 28.6738 68.2148 30.3326C68.8041 31.9913 69.7207 33.3335 70.9648 34.3593C72.2088 35.3633 73.6056 35.8653 75.1552 35.8653C76.1374 35.8653 77.0213 35.6361 77.807 35.1778C78.6145 34.6976 79.2365 34.0429 79.673 33.2135C80.1314 32.3623 80.3605 31.402 80.3605 30.3326Z" fill="#282A2D"/>
<path d="M105.399 32.8206L106.283 30.3326L105.399 27.8772L106.185 21.0023H111.849L110.768 30.3326L111.849 39.6301H106.185L105.399 32.8206ZM107.626 30.3326C107.276 32.2968 106.633 34.021 105.694 35.5051C104.756 36.9674 103.577 38.1024 102.158 38.9099C100.762 39.7174 99.201 40.1212 97.4768 40.1212C95.6872 40.1212 94.083 39.7174 92.6644 38.9099C91.2675 38.0805 90.1763 36.9238 89.3906 35.4397C88.6267 33.9556 88.2448 32.2532 88.2448 30.3326C88.2448 28.4119 88.6267 26.7096 89.3906 25.2254C90.1763 23.7195 91.2675 22.5628 92.6644 21.7552C94.083 20.9259 95.6872 20.5112 97.4768 20.5112C99.201 20.5112 100.772 20.9149 102.191 21.7225C103.61 22.53 104.788 23.6758 105.727 25.16C106.665 26.6441 107.298 28.3683 107.626 30.3326ZM93.7775 30.3326C93.7775 31.402 93.9957 32.3623 94.4322 33.2135C94.8905 34.0429 95.5126 34.6976 96.2983 35.1778C97.1058 35.6361 98.0116 35.8653 99.0155 35.8653C100.543 35.8653 101.929 35.3633 103.173 34.3593C104.417 33.3335 105.345 31.9913 105.956 30.3326C105.345 28.6738 104.406 27.3316 103.141 26.3058C101.896 25.28 100.521 24.7671 99.0155 24.7671C98.0116 24.7671 97.1058 25.0072 96.2983 25.4873C95.5126 25.9457 94.8905 26.6004 94.4322 27.4516C93.9957 28.3028 93.7775 29.2631 93.7775 30.3326Z" fill="#282A2D"/>
<path d="M120.12 21.0023L121.298 28.1064V39.6301H115.831V27.2879L114.652 21.0023H120.12ZM128.402 20.5112C130.148 20.5112 131.643 20.8713 132.887 21.5915C134.153 22.2899 135.114 23.2939 135.768 24.6034C136.423 25.9129 136.751 27.4734 136.751 29.2849V39.6301H131.283V30.1034C131.283 28.4447 130.88 27.1788 130.072 26.3058C129.265 25.4328 128.086 24.9963 126.536 24.9963C125.489 24.9963 124.561 25.2364 123.754 25.7165C122.968 26.1748 122.357 26.8187 121.92 27.648C121.506 28.4774 121.298 29.4705 121.298 30.6272L119.498 29.6778C119.716 27.7572 120.229 26.1094 121.036 24.7344C121.866 23.3594 122.913 22.3118 124.179 21.5915C125.445 20.8713 126.853 20.5112 128.402 20.5112Z" fill="#282A2D"/>
<path d="M156.97 32.5915L158.018 30.3653L157.003 27.648L158.476 14.4219H164.14L162.339 29.9397L163.42 39.6301H157.756L156.97 32.5915ZM159.098 30.3326C158.749 32.2968 158.105 34.021 157.167 35.5051C156.228 36.9674 155.05 38.1024 153.631 38.9099C152.234 39.7174 150.674 40.1212 148.95 40.1212C147.16 40.1212 145.556 39.7174 144.137 38.9099C142.74 38.0805 141.649 36.9238 140.863 35.4397C140.099 33.9556 139.717 32.2532 139.717 30.3326C139.717 28.4119 140.099 26.7096 140.863 25.2254C141.649 23.7195 142.74 22.5628 144.137 21.7552C145.556 20.9259 147.16 20.5112 148.95 20.5112C150.674 20.5112 152.245 20.9149 153.664 21.7225C155.082 22.53 156.261 23.6758 157.199 25.16C158.138 26.6441 158.771 28.3683 159.098 30.3326ZM145.25 30.3326C145.25 31.402 145.468 32.3623 145.905 33.2135C146.363 34.0429 146.985 34.6976 147.771 35.1778C148.579 35.6361 149.484 35.8653 150.488 35.8653C152.016 35.8653 153.402 35.3633 154.646 34.3593C155.89 33.3335 156.818 31.9913 157.429 30.3326C156.818 28.6738 155.879 27.3316 154.613 26.3058C153.369 25.28 151.994 24.7671 150.488 24.7671C149.484 24.7671 148.579 25.0072 147.771 25.4873C146.985 25.9457 146.363 26.6004 145.905 27.4516C145.468 28.3028 145.25 29.2631 145.25 30.3326Z" fill="#282A2D"/>
<path d="M183.248 32.8206L184.132 30.3326L183.248 27.8772L184.034 21.0023H189.697L188.617 30.3326L189.697 39.6301H184.034L183.248 32.8206ZM185.474 30.3326C185.125 32.2968 184.481 34.021 183.543 35.5051C182.604 36.9674 181.425 38.1024 180.007 38.9099C178.61 39.7174 177.049 40.1212 175.325 40.1212C173.536 40.1212 171.931 39.7174 170.513 38.9099C169.116 38.0805 168.025 36.9238 167.239 35.4397C166.475 33.9556 166.093 32.2532 166.093 30.3326C166.093 28.4119 166.475 26.7096 167.239 25.2254C168.025 23.7195 169.116 22.5628 170.513 21.7552C171.931 20.9259 173.536 20.5112 175.325 20.5112C177.049 20.5112 178.621 20.9149 180.04 21.7225C181.458 22.53 182.637 23.6758 183.575 25.16C184.514 26.6441 185.147 28.3683 185.474 30.3326ZM171.626 30.3326C171.626 31.402 171.844 32.3623 172.281 33.2135C172.739 34.0429 173.361 34.6976 174.147 35.1778C174.954 35.6361 175.86 35.8653 176.864 35.8653C178.392 35.8653 179.778 35.3633 181.022 34.3593C182.266 33.3335 183.193 31.9913 183.804 30.3326C183.193 28.6738 182.255 27.3316 180.989 26.3058C179.745 25.28 178.37 24.7671 176.864 24.7671C175.86 24.7671 174.954 25.0072 174.147 25.4873C173.361 25.9457 172.739 26.6004 172.281 27.4516C171.844 28.3028 171.626 29.2631 171.626 30.3326Z" fill="#282A2D"/>
<path d="M209.69 32.5915L210.738 30.3653L209.723 27.648L211.196 14.4219H216.859L215.059 29.9397L216.139 39.6301H210.476L209.69 32.5915ZM211.818 30.3326C211.469 32.2968 210.825 34.021 209.886 35.5051C208.948 36.9674 207.769 38.1024 206.351 38.9099C204.954 39.7174 203.393 40.1212 201.669 40.1212C199.879 40.1212 198.275 39.7174 196.857 38.9099C195.46 38.0805 194.369 36.9238 193.583 35.4397C192.819 33.9556 192.437 32.2532 192.437 30.3326C192.437 28.4119 192.819 26.7096 193.583 25.2254C194.369 23.7195 195.46 22.5628 196.857 21.7552C198.275 20.9259 199.879 20.5112 201.669 20.5112C203.393 20.5112 204.965 20.9149 206.383 21.7225C207.802 22.53 208.981 23.6758 209.919 25.16C210.858 26.6441 211.49 28.3683 211.818 30.3326ZM197.97 30.3326C197.97 31.402 198.188 32.3623 198.624 33.2135C199.083 34.0429 199.705 34.6976 200.491 35.1778C201.298 35.6361 202.204 35.8653 203.208 35.8653C204.736 35.8653 206.121 35.3633 207.365 34.3593C208.61 33.3335 209.537 31.9913 210.148 30.3326C209.537 28.6738 208.599 27.3316 207.333 26.3058C206.089 25.28 204.714 24.7671 203.208 24.7671C202.204 24.7671 201.298 25.0072 200.491 25.4873C199.705 25.9457 199.083 26.6004 198.624 27.4516C198.188 28.3028 197.97 29.2631 197.97 30.3326Z" fill="#282A2D"/>
<path d="M235.967 32.8206L236.851 30.3326L235.967 27.8772L236.753 21.0023H242.417L241.336 30.3326L242.417 39.6301H236.753L235.967 32.8206ZM238.194 30.3326C237.844 32.2968 237.201 34.021 236.262 35.5051C235.324 36.9674 234.145 38.1024 232.726 38.9099C231.33 39.7174 229.769 40.1212 228.045 40.1212C226.255 40.1212 224.651 39.7174 223.232 38.9099C221.836 38.0805 220.744 36.9238 219.959 35.4397C219.195 33.9556 218.813 32.2532 218.813 30.3326C218.813 28.4119 219.195 26.7096 219.959 25.2254C220.744 23.7195 221.836 22.5628 223.232 21.7552C224.651 20.9259 226.255 20.5112 228.045 20.5112C229.769 20.5112 231.34 20.9149 232.759 21.7225C234.178 22.53 235.356 23.6758 236.295 25.16C237.233 26.6441 237.866 28.3683 238.194 30.3326ZM224.345 30.3326C224.345 31.402 224.564 32.3623 225 33.2135C225.459 34.0429 226.081 34.6976 226.866 35.1778C227.674 35.6361 228.58 35.8653 229.584 35.8653C231.111 35.8653 232.497 35.3633 233.741 34.3593C234.985 33.3335 235.913 31.9913 236.524 30.3326C235.913 28.6738 234.974 27.3316 233.708 26.3058C232.464 25.28 231.089 24.7671 229.584 24.7671C228.58 24.7671 227.674 25.0072 226.866 25.4873C226.081 25.9457 225.459 26.6004 225 27.4516C224.564 28.3028 224.345 29.2631 224.345 30.3326Z" fill="#282A2D"/>
</svg>
