<svg fill="none" height="44" viewBox="0 0 213 44" width="213" xmlns="http://www.w3.org/2000/svg" xmlns:xlink="http://www.w3.org/1999/xlink"><linearGradient id="a"><stop offset="0" stop-color="#ff5242"/><stop offset="1" stop-color="#eb179b"/></linearGradient><linearGradient id="b" gradientUnits="userSpaceOnUse" x1="2.5055" x2="15.861" xlink:href="#a" y1="8.99704" y2="9.78981"/><linearGradient id="c" gradientUnits="userSpaceOnUse" x1="14.514" x2="8.33075" xlink:href="#a" y1="41.7856" y2="29.6846"/><linearGradient id="d" gradientUnits="userSpaceOnUse" x1="14.2072" x2="8.2171" xlink:href="#a" y1="2.23433" y2="14.4365"/><path d="m.00012207 25.1264 4.56206793-2.0831 1.85094 1.7656-1.85094 9.4918 6.26301-2.8581s1.3376-6.9061 1.7534-8.2505l1.3342-.3271 1.746-1.4592-1.746-1.3471-1.3342-.2702c-.7978-2.8122-1.7534-7.2318-1.7534-7.2318l-6.26301-3.55966 1.85094 8.73756-1.85094 2.0539-4.212817-2.0539z" fill="url(#b)"/><path d="m29.4047 35.9395-4.0365-2.9912.5704-2.5183 8.9506-3.1075-5.54-4.1072s-6.5078 2.269-7.8522 2.5733l-.9419-1.0158-2.1047-.8139-.2687 2.2164.4367 1.3142c-1.9807 2.1105-5.242 5.1639-5.242 5.1639l.1121 7.3144 6.4669-6.0024 2.6601.6095.3633 4.7499z" fill="url(#c)"/><path d="m29.1864 7.83874-3.9898 3.05616.6093 2.5087 8.9975 2.9622-5.4759 4.1964s-6.542-2.1634-7.891-2.4459l-.926 1.0309-2.0919.8479-.3029-2.2117.4163-1.3212c-2.013-2.0782-5.3212-5.0784-5.3212-5.0784l-.0008-7.31531 6.5588 5.89705 2.6503-.65248.29-4.75523z" fill="url(#d)"/><g fill="#fff"><path d="m51.3963 9.52399v11.04781c.9099-1.5873 2.0679-2.8201 3.4741-3.6985 1.4063-.8783 2.9676-1.3175 4.684-1.3175 1.6957 0 3.2105.3969 4.5444 1.1905 1.3338.7831 2.373 1.889 3.1174 3.3176.7445 1.4286 1.1167 3.0688 1.1167 4.9207s-.3722 3.4921-1.1167 4.9207c-.7444 1.4286-1.7836 2.5398-3.1174 3.3334-1.3339.7831-2.8487 1.1746-4.5444 1.1746-1.7164 0-3.2777-.4444-4.684-1.3333-1.4062-.8889-2.5642-2.1323-3.4741-3.7302v4.6191h-4.0326v-24.44491zm-.1862 15.46061c.4447 1.217 1.034 2.2858 1.7682 3.2064.7444.9207 1.5923 1.6403 2.5436 2.1588.9616.5079 1.9852.7619 3.0709.7619s2.0576-.2593 2.9158-.7778 1.5252-1.2434 2.0008-2.1746c.486-.9313.729-1.9895.729-3.1747s-.243-2.2381-.729-3.1588c-.4756-.9312-1.1426-1.6561-2.0008-2.1746-.8582-.5291-1.8301-.7937-2.9158-.7937s-2.1093.2593-3.0709.7778c-.9513.5185-1.7992 1.2381-2.5436 2.1588-.7342.9206-1.3235 1.9841-1.7682 3.1905z"/><path d="m87.6172 29.5085c-.9099 1.545-2.0628 2.7514-3.4587 3.6191-1.3959.8572-2.9365 1.2857-4.6219 1.2857-1.6957 0-3.2105-.3915-4.5444-1.1746-1.3338-.7936-2.373-1.9048-3.1174-3.3334-.7445-1.4286-1.1168-3.0688-1.1168-4.9207s.3723-3.4921 1.1168-4.9207c.7444-1.4286 1.7836-2.5345 3.1174-3.3176 1.3339-.7936 2.8487-1.1905 4.5444-1.1905s3.2364.4286 4.6219 1.2858c1.3959.8571 2.5488 2.0582 3.4587 3.6032l.4498-4.4445h4.1566l-.9306 8.9843.9306 8.9843h-4.1566zm-12.7646-4.5239c0 1.1852.2378 2.2434.7135 3.1747.486.9312 1.158 1.6561 2.0163 2.1746.8582.5185 1.8301.7778 2.9158.7778s2.1042-.254 3.0554-.7619c.9616-.5185 1.8095-1.2381 2.5436-2.1588.7445-.9206 1.339-1.9894 1.7837-3.2064-.4447-1.2064-1.0392-2.2699-1.7837-3.1905-.7341-.9207-1.582-1.6403-2.5436-2.1588-.9512-.5185-1.9697-.7778-3.0554-.7778s-2.0576.2646-2.9158.7937c-.8583.5185-1.5303 1.2434-2.0163 2.1746-.4757.9207-.7135 1.9736-.7135 3.1588z"/><path d="m99.2995 16.0003.6979 4.3175c.7236-1.5238 1.7216-2.6984 2.9936-3.5238 1.282-.8254 2.73-1.2382 4.343-1.2382 1.644 0 3.045.3387 4.203 1.0159 1.168.6667 2.057 1.635 2.667 2.9049.61 1.2698.915 2.7884.915 4.5556v9.9367h-4.032v-9.27c0-1.8731-.434-3.2911-1.303-4.2541-.858-.9735-2.109-1.4603-3.753-1.4603-1.138 0-2.135.2592-2.994.7778-.858.5079-1.52 1.2328-1.985 2.1746s-.698 2.0318-.698 3.2699v8.7621h-4.0324v-12.0955l-1.0547-5.8731z"/><path d="m135.148 29.3974c-.91 1.5873-2.068 2.8201-3.475 3.6985-1.406.8783-2.962 1.3174-4.668 1.3174-1.696 0-3.21-.3915-4.544-1.1746-1.334-.7936-2.373-1.9048-3.118-3.3334-.744-1.4286-1.117-3.0688-1.117-4.9207s.373-3.4921 1.117-4.9207c.745-1.4286 1.784-2.5345 3.118-3.3176 1.334-.7936 2.848-1.1905 4.544-1.1905 1.716 0 3.273.4392 4.668 1.3175 1.407.8678 2.565 2.0953 3.475 3.6826l1.101-11.03191h4.156l-1.582 15.20661.9 9.2383h-4.126zm-12.827-4.4128c0 1.1852.238 2.2434.714 3.1747.485.9312 1.158 1.6561 2.016 2.1746s1.83.7778 2.916.7778c1.085 0 2.104-.254 3.055-.7619.962-.5185 1.81-1.2381 2.544-2.1588.744-.9206 1.339-1.9894 1.783-3.2064-.444-1.2064-1.039-2.2699-1.783-3.1905-.734-.9207-1.582-1.6403-2.544-2.1588-.951-.5185-1.97-.7778-3.055-.7778-1.086 0-2.058.2646-2.916.7937-.858.5185-1.531 1.2434-2.016 2.1746-.476.9207-.714 1.9736-.714 3.1588z"/><path d="m159.532 29.5085c-.91 1.545-2.063 2.7514-3.459 3.6191-1.396.8572-2.936 1.2857-4.622 1.2857-1.696 0-3.21-.3915-4.544-1.1746-1.334-.7936-2.373-1.9048-3.118-3.3334-.744-1.4286-1.116-3.0688-1.116-4.9207s.372-3.4921 1.116-4.9207c.745-1.4286 1.784-2.5345 3.118-3.3176 1.334-.7936 2.848-1.1905 4.544-1.1905s3.237.4286 4.622 1.2858c1.396.8571 2.549 2.0582 3.459 3.6032l.45-4.4445h4.156l-.93 8.9843.93 8.9843h-4.156zm-12.765-4.5239c0 1.1852.238 2.2434.714 3.1747.486.9312 1.158 1.6561 2.016 2.1746s1.83.7778 2.916.7778c1.085 0 2.104-.254 3.055-.7619.962-.5185 1.81-1.2381 2.544-2.1588.744-.9206 1.339-1.9894 1.783-3.2064-.444-1.2064-1.039-2.2699-1.783-3.1905-.734-.9207-1.582-1.6403-2.544-2.1588-.951-.5185-1.97-.7778-3.055-.7778-1.086 0-2.058.2646-2.916.7937-.858.5185-1.53 1.2434-2.016 2.1746-.476.9207-.714 1.9736-.714 3.1588z"/><path d="m184.01 29.3974c-.91 1.5873-2.068 2.8201-3.475 3.6985-1.406.8783-2.962 1.3174-4.668 1.3174-1.696 0-3.211-.3915-4.544-1.1746-1.334-.7936-2.373-1.9048-3.118-3.3334-.744-1.4286-1.117-3.0688-1.117-4.9207s.373-3.4921 1.117-4.9207c.745-1.4286 1.784-2.5345 3.118-3.3176 1.333-.7936 2.848-1.1905 4.544-1.1905 1.716 0 3.273.4392 4.668 1.3175 1.407.8678 2.565 2.0953 3.475 3.6826l1.101-11.03191h4.156l-1.582 15.20661.9 9.2383h-4.126zm-12.827-4.4128c0 1.1852.238 2.2434.713 3.1747.486.9312 1.158 1.6561 2.017 2.1746.858.5185 1.83.7778 2.916.7778 1.085 0 2.104-.254 3.055-.7619.962-.5185 1.809-1.2381 2.544-2.1588.744-.9206 1.339-1.9894 1.783-3.2064-.444-1.2064-1.039-2.2699-1.783-3.1905-.735-.9207-1.582-1.6403-2.544-2.1588-.951-.5185-1.97-.7778-3.055-.7778-1.086 0-2.058.2646-2.916.7937-.859.5185-1.531 1.2434-2.017 2.1746-.475.9207-.713 1.9736-.713 3.1588z"/><path d="m208.394 29.5085c-.91 1.545-2.063 2.7514-3.459 3.6191-1.396.8572-2.937 1.2857-4.622 1.2857-1.696 0-3.211-.3915-4.544-1.1746-1.334-.7936-2.373-1.9048-3.118-3.3334-.744-1.4286-1.117-3.0688-1.117-4.9207s.373-3.4921 1.117-4.9207c.745-1.4286 1.784-2.5345 3.118-3.3176 1.333-.7936 2.848-1.1905 4.544-1.1905s3.236.4286 4.622 1.2858c1.396.8571 2.549 2.0582 3.459 3.6032l.449-4.4445h4.157l-.931 8.9843.931 8.9843h-4.157zm-12.765-4.5239c0 1.1852.238 2.2434.714 3.1747.485.9312 1.158 1.6561 2.016 2.1746s1.83.7778 2.916.7778c1.085 0 2.104-.254 3.055-.7619.962-.5185 1.81-1.2381 2.544-2.1588.744-.9206 1.339-1.9894 1.783-3.2064-.444-1.2064-1.039-2.2699-1.783-3.1905-.734-.9207-1.582-1.6403-2.544-2.1588-.951-.5185-1.97-.7778-3.055-.7778-1.086 0-2.058.2646-2.916.7937-.858.5185-1.531 1.2434-2.016 2.1746-.476.9207-.714 1.9736-.714 3.1588z"/></g></svg>