<svg width="39" height="44" viewBox="0 0 39 44" fill="none" xmlns="http://www.w3.org/2000/svg">
<path d="M0 25.1264L4.66899 23.0433L6.56332 24.8089L4.66899 34.3007L11.0788 31.4426C11.0788 31.4426 12.4477 24.5365 12.8733 23.1921L14.2388 22.865L16.0257 21.4058L14.2388 20.0587L12.8733 19.7885C12.0568 16.9763 11.0788 12.5567 11.0788 12.5567L4.66899 8.99704L6.56332 17.7346L4.66899 19.7885L0.357437 17.7346L0 25.1264Z" fill="url(#paint0_linear_241_209)"/>
<path d="M30.094 35.9395L25.963 32.9483L26.5467 30.43L35.7071 27.3225L30.0373 23.2153C30.0373 23.2153 23.3769 25.4843 22.001 25.7886L21.0371 24.7728L18.8831 23.9589L18.608 26.1753L19.055 27.4895C17.0279 29.6 13.69 32.6534 13.69 32.6534L13.8048 39.9678L20.4233 33.9654L23.1457 34.5749L23.5176 39.3248L30.094 35.9395Z" fill="url(#paint1_linear_241_209)"/>
<path d="M29.8704 7.83874L25.7871 10.8949L26.4106 13.4036L35.619 16.3658L30.0148 20.5622C30.0148 20.5622 23.3195 18.3988 21.9389 18.1163L20.9912 19.1472L18.8503 19.9951L18.5402 17.7834L18.9663 16.4622C16.9061 14.384 13.5204 11.3838 13.5204 11.3838L13.5195 4.06849L20.2321 9.96554L22.9445 9.31306L23.2412 4.55783L29.8704 7.83874Z" fill="url(#paint2_linear_241_209)"/>
<defs>
<linearGradient id="paint0_linear_241_209" x1="2.5641" y1="8.99704" x2="16.2304" y2="9.82727" gradientUnits="userSpaceOnUse">
<stop stop-color="#FF5242"/>
<stop offset="1" stop-color="#EB179B"/>
</linearGradient>
<linearGradient id="paint1_linear_241_209" x1="14.8543" y1="41.7856" x2="8.75553" y2="29.5701" gradientUnits="userSpaceOnUse">
<stop stop-color="#FF5242"/>
<stop offset="1" stop-color="#EB179B"/>
</linearGradient>
<linearGradient id="paint2_linear_241_209" x1="14.5402" y1="2.23433" x2="8.63528" y2="14.5448" gradientUnits="userSpaceOnUse">
<stop stop-color="#FF5242"/>
<stop offset="1" stop-color="#EB179B"/>
</linearGradient>
</defs>
</svg>
