<svg xmlns="http://www.w3.org/2000/svg" width="69" height="69" viewBox="0 0 69 69" fill="none">
	<path d="M0 40.4736L9.02236 36.4698L12.6829 39.8633L9.02236 58.1067L21.4086 52.6135C21.4086 52.6135 24.054 39.3398 24.8764 36.7558L27.515 36.1271L30.968 33.3224L27.515 30.7333L24.8764 30.214C23.2986 24.8088 21.4086 16.3143 21.4086 16.3143L9.02236 9.47255L12.6829 26.2663L9.02236 30.214L0.690711 26.2663L0 40.4736Z" fill="url(#paint0_linear_276_1906)" />
	<path d="M58.1534 61.2574L50.1705 55.5084L51.2985 50.6681L69 44.6955L58.0437 36.8013C58.0437 36.8013 45.1732 41.1624 42.5144 41.7473L40.6517 39.7949L36.4893 38.2306L35.9577 42.4905L36.8215 45.0165C32.9043 49.0729 26.4543 54.9415 26.4543 54.9415L26.6761 69L39.4657 57.4631L44.7264 58.6346L45.4451 67.7641L58.1534 61.2574Z" fill="url(#paint1_linear_276_1906)" />
	<path d="M57.7215 7.24649L49.831 13.1204L51.0359 17.9423L68.8301 23.6357L58.0007 31.7013C58.0007 31.7013 45.0625 27.5432 42.3947 27.0002L40.5633 28.9816L36.4262 30.6112L35.827 26.3602L36.6505 23.821C32.6693 19.8266 26.1268 14.0602 26.1268 14.0602L26.1251 0L39.0965 11.3342L44.3379 10.0802L44.9114 0.94051L57.7215 7.24649Z" fill="url(#paint2_linear_276_1906)" />
	<defs>
		<linearGradient id="paint0_linear_276_1906" x1="11.04" y1="9.99622e-06" x2="69.5601" y2="5.61332" gradientUnits="userSpaceOnUse">
			<stop stop-color="#FF5242" />
			<stop offset="1" stop-color="#EB179B" />
		</linearGradient>
		<linearGradient id="paint1_linear_276_1906" x1="11.04" y1="9.99622e-06" x2="69.5601" y2="5.61332" gradientUnits="userSpaceOnUse">
			<stop stop-color="#FF5242" />
			<stop offset="1" stop-color="#EB179B" />
		</linearGradient>
		<linearGradient id="paint2_linear_276_1906" x1="11.04" y1="9.99622e-06" x2="69.5601" y2="5.61332" gradientUnits="userSpaceOnUse">
			<stop stop-color="#FF5242" />
			<stop offset="1" stop-color="#EB179B" />
		</linearGradient>
	</defs>
</svg>
