<svg xmlns="http://www.w3.org/2000/svg" width="61" height="69" viewBox="0 0 61 69" fill="none">
	<path d="M5.95457 18.4732L13.5464 18.9752L14.8178 22.6913L5.74711 34.1203L16.1683 34.8119C16.1683 34.8119 22.7558 26.4897 24.2477 24.9822L26.2725 25.5087L29.6366 24.8102L28.2168 21.7332L26.6058 20.4033C27.4789 16.042 29.2528 9.40385 29.2528 9.40385L23.2779 0.0782257L19.7191 13.1739L15.8014 14.5964L11.5465 8.78157L5.95457 18.4732Z" fill="url(#paint0_linear_276_2426)" />
	<path d="M35.7685 49.093L32.6704 42.0152L35.2963 39.1435L49.413 42.0152L45.1623 32.2985C45.1623 32.2985 34.8911 30.2232 32.8916 29.578L32.4052 27.5081L30.2349 24.7994L28.2315 27.5081L27.8296 29.578C23.6471 30.8158 17.074 32.2985 17.074 32.2985L11.7799 42.0152L24.7749 39.1435L27.8296 42.0152L24.7749 48.5511L35.7685 49.093Z" fill="url(#paint1_linear_276_2426)" />
	<path d="M10.1123 62.8716L13.4281 55.8975L17.2694 56.1066L24.1901 69L28.7439 59.4277C28.7439 59.4277 23.6979 50.0557 22.8964 48.0762L24.1359 46.365L24.772 42.9254L21.453 43.0987L19.6426 44.1148C16.026 41.6372 10.6891 37.4462 10.6891 37.4462L0 39.5489L10.5063 47.8727L10.3166 52.1092L3.452 53.9198L10.1123 62.8716Z" fill="url(#paint2_linear_276_2426)" />
	<path d="M57.1732 54.7764L49.8744 52.6514L49.409 48.7505L60.6364 39.5489L50.618 36.6296C50.618 36.6296 42.4597 43.3337 40.6906 44.4838L38.8258 43.534L35.3996 43.4913L36.1429 46.8003L37.4368 48.4453C35.6765 52.514 32.5632 58.6111 32.5632 58.6111L36.4462 69L42.646 56.9844L46.7628 56.4397L49.7003 63.0315L57.1732 54.7764Z" fill="url(#paint3_linear_276_2426)" />
	<path d="M54.5061 18.912L46.9211 19.1753L45.5482 22.8462L54.2708 34.5433L43.8589 34.907C43.8589 34.907 37.5249 26.3902 36.0797 24.838L34.0457 25.3002L30.7106 24.4972L32.2135 21.4692L33.8576 20.1917C33.1101 15.8092 31.5287 9.1249 31.5287 9.1249L37.7506 0L40.9295 13.1886L44.7961 14.732L49.2035 9.05888L54.5061 18.912Z" fill="url(#paint4_linear_276_2426)" />
	<defs>
		<linearGradient id="paint0_linear_276_2426" x1="9.70182" y1="9.99622e-06" x2="61.2356" y2="4.34401" gradientUnits="userSpaceOnUse">
			<stop stop-color="#FF5242" />
			<stop offset="1" stop-color="#EB179B" />
		</linearGradient>
		<linearGradient id="paint1_linear_276_2426" x1="9.70182" y1="9.99622e-06" x2="61.2356" y2="4.34401" gradientUnits="userSpaceOnUse">
			<stop stop-color="#FF5242" />
			<stop offset="1" stop-color="#EB179B" />
		</linearGradient>
		<linearGradient id="paint2_linear_276_2426" x1="9.70182" y1="9.99622e-06" x2="61.2356" y2="4.34401" gradientUnits="userSpaceOnUse">
			<stop stop-color="#FF5242" />
			<stop offset="1" stop-color="#EB179B" />
		</linearGradient>
		<linearGradient id="paint3_linear_276_2426" x1="9.70182" y1="9.99622e-06" x2="61.2356" y2="4.34401" gradientUnits="userSpaceOnUse">
			<stop stop-color="#FF5242" />
			<stop offset="1" stop-color="#EB179B" />
		</linearGradient>
		<linearGradient id="paint4_linear_276_2426" x1="9.70182" y1="9.99622e-06" x2="61.2356" y2="4.34401" gradientUnits="userSpaceOnUse">
			<stop stop-color="#FF5242" />
			<stop offset="1" stop-color="#EB179B" />
		</linearGradient>
	</defs>
</svg>
