<svg xmlns="http://www.w3.org/2000/svg" width="87" height="72" viewBox="0 0 87 72" fill="none">
	<path d="M70.2508 17.3879L62.0907 16.5576L60.8786 12.6456L71.1395 1.14232L59.9386 0C59.9386 0 52.4858 8.37702 50.8139 9.88229L48.6543 9.25307L44.9992 9.84185L46.3985 13.0959L48.0781 14.543C46.9517 19.0379 44.7579 25.8614 44.7579 25.8614L50.8002 35.7918L55.1922 22.3328L59.4745 21.0145L63.8126 27.228L70.2508 17.3879Z" fill="url(#paint0_linear_101_3194)" />
	<path d="M17.4354 17.3879L25.5955 16.5576L26.8076 12.6456L16.5467 1.14232L27.7477 0C27.7477 0 35.2005 8.37702 36.8723 9.88229L39.0319 9.25307L42.687 9.84185L41.2877 13.0959L39.6081 14.543C40.7345 19.0379 42.9284 25.8614 42.9284 25.8614L36.886 35.7918L32.494 22.3328L28.2117 21.0145L23.8736 27.228L17.4354 17.3879Z" fill="url(#paint1_linear_101_3194)" />
	<path d="M17.4354 54.6121L25.5955 55.4424L26.8076 59.3544L16.5467 70.8577L27.7477 72C27.7477 72 35.2005 63.623 36.8723 62.1177L39.0319 62.7469L42.687 62.1581L41.2877 58.9041L39.6081 57.457C40.7345 52.9621 42.9284 46.1386 42.9284 46.1386L36.886 36.2082L32.494 49.6672L28.2117 50.9855L23.8736 44.772L17.4354 54.6121Z" fill="url(#paint2_linear_101_3194)" />
	<path d="M70.2508 54.6121L62.0907 55.4424L60.8786 59.3544L71.1395 70.8577L59.9386 72C59.9386 72 52.4858 63.623 50.8139 62.1177L48.6543 62.7469L44.9992 62.1581L46.3985 58.9041L48.0781 57.457C46.9517 52.9621 44.7579 46.1386 44.7579 46.1386L50.8002 36.2082L55.1922 49.6672L59.4745 50.9855L63.8126 44.772L70.2508 54.6121Z" fill="url(#paint3_linear_101_3194)" />
	<path d="M86.4771 41.2247L79.3282 37.2669L76.0414 39.7717L77.6624 54.9914L67.8479 49.5606C67.8479 49.5606 66.6834 38.4884 66.2026 36.3098L64.0701 35.5966L61.4322 33.0395L64.4854 31.1781L66.7062 30.951C68.4264 26.6418 70.6426 19.8253 70.6426 19.8253L81.4067 15.1515L77.0882 28.6334L79.8098 32.1423L87 29.5346L86.4771 41.2247Z" fill="url(#paint4_linear_101_3194)" />
	<path d="M0.522935 41.2247L7.67179 37.2669L10.9586 39.7717L9.33762 54.9914L19.1521 49.5606C19.1521 49.5606 20.3166 38.4884 20.7974 36.3098L22.9299 35.5966L25.5678 33.0395L22.5146 31.1781L20.2938 30.951C18.5736 26.6418 16.3574 19.8253 16.3574 19.8253L5.59328 15.1515L9.91176 28.6334L7.19016 32.1423L0 29.5346L0.522935 41.2247Z" fill="url(#paint5_linear_101_3194)" />
	<defs>
		<linearGradient id="paint0_linear_101_3194" x1="13.92" y1="1.04308e-05" x2="87.398" y2="8.51645" gradientUnits="userSpaceOnUse">
			<stop stop-color="#FF5242" />
			<stop offset="1" stop-color="#EB179B" />
		</linearGradient>
		<linearGradient id="paint1_linear_101_3194" x1="13.92" y1="1.04308e-05" x2="87.398" y2="8.51645" gradientUnits="userSpaceOnUse">
			<stop stop-color="#FF5242" />
			<stop offset="1" stop-color="#EB179B" />
		</linearGradient>
		<linearGradient id="paint2_linear_101_3194" x1="13.92" y1="1.04308e-05" x2="87.398" y2="8.51645" gradientUnits="userSpaceOnUse">
			<stop stop-color="#FF5242" />
			<stop offset="1" stop-color="#EB179B" />
		</linearGradient>
		<linearGradient id="paint3_linear_101_3194" x1="13.92" y1="1.04308e-05" x2="87.398" y2="8.51645" gradientUnits="userSpaceOnUse">
			<stop stop-color="#FF5242" />
			<stop offset="1" stop-color="#EB179B" />
		</linearGradient>
		<linearGradient id="paint4_linear_101_3194" x1="13.92" y1="1.04308e-05" x2="87.398" y2="8.51645" gradientUnits="userSpaceOnUse">
			<stop stop-color="#FF5242" />
			<stop offset="1" stop-color="#EB179B" />
		</linearGradient>
		<linearGradient id="paint5_linear_101_3194" x1="13.92" y1="1.04308e-05" x2="87.398" y2="8.51645" gradientUnits="userSpaceOnUse">
			<stop stop-color="#FF5242" />
			<stop offset="1" stop-color="#EB179B" />
		</linearGradient>
	</defs>
</svg>
