<svg xmlns="http://www.w3.org/2000/svg" width="80" height="75" viewBox="0 0 80 75" fill="none">
	<path d="M59.7539 23.5034L55.4378 29.4466L51.8098 28.611L47.345 15.4462L41.4184 23.6031C41.4184 23.6031 44.6786 33.175 45.1152 35.1526L43.6501 36.5398L42.4742 39.6376L45.6675 40.0299L47.562 39.3855C50.6003 42.2967 54.9954 47.0909 54.9954 47.0909L65.5355 46.9155L56.8955 37.4091L57.7776 33.4945L64.6227 32.9531L59.7539 23.5034Z" fill="url(#paint0_linear_101_3189)" />
	<path d="M5.78166 66.9428L10.0977 60.9996L13.7257 61.8352L18.1906 75L24.1171 66.8431C24.1171 66.8431 20.8569 57.2712 20.4204 55.2936L21.8855 53.9064L23.0613 50.8086L19.868 50.4163L17.9736 51.0607C14.9352 48.1495 10.5402 43.3553 10.5402 43.3553L0 43.5307L8.64006 53.0371L7.7579 56.9517L0.912778 57.4931L5.78166 66.9428Z" fill="url(#paint1_linear_101_3189)" />
	<path d="M14.509 32.1121L21.8032 32.8659L22.8867 36.417L13.7145 46.8591L23.727 47.896C23.727 47.896 30.389 40.2918 31.8834 38.9254L33.8139 39.4966L37.0811 38.9621L35.8303 36.0082L34.329 34.6947C35.3358 30.6144 37.2969 24.4204 37.2969 24.4204L31.8957 15.4061L27.9697 27.6234L24.1418 28.8201L20.264 23.1798L14.509 32.1121Z" fill="url(#paint2_linear_101_3189)" />
	<path d="M79.2055 56.8209L71.9114 56.0672L70.8279 52.5161L80 42.074L69.9875 41.0371C69.9875 41.0371 63.3256 48.6413 61.8311 50.0077L59.9006 49.4365L56.6334 49.971L57.8842 52.9249L59.3856 54.2384C58.3788 58.3187 56.4177 64.5127 56.4177 64.5127L61.8189 73.527L65.7448 61.3097L69.5727 60.113L73.4505 65.7533L79.2055 56.8209Z" fill="url(#paint3_linear_101_3189)" />
	<path d="M34.9887 63.3716L37.876 56.6389L35.2961 53.9665L21.7007 56.8944L25.662 47.6515C25.662 47.6515 35.5541 45.5346 37.4762 44.8946L37.9151 42.932L39.9714 40.3403L41.9474 42.8683L42.3666 44.8174C46.4259 45.9227 52.7984 47.2228 52.7984 47.2228L58.0584 56.32L45.4609 53.8059L42.5526 56.565L45.6016 62.692L34.9887 63.3716Z" fill="url(#paint4_linear_101_3189)" />
	<path d="M44.1175 0L41.2302 6.73271L43.8101 9.40507L57.4054 6.47719L53.4441 15.7201C53.4441 15.7201 43.5521 17.837 41.63 18.4769L41.191 20.4395L39.1348 23.0312L37.1587 20.5032L36.7396 18.5542C32.6803 17.4489 26.3078 16.1487 26.3078 16.1487L21.0477 7.05152L33.6453 9.56564L36.5535 6.80658L33.5046 0.679581L44.1175 0Z" fill="url(#paint5_linear_101_3189)" />
	<defs>
		<linearGradient id="paint0_linear_101_3189" x1="12.8" y1="1.08655e-05" x2="80.5643" y2="6.93337" gradientUnits="userSpaceOnUse">
			<stop stop-color="#FF5242" />
			<stop offset="1" stop-color="#EB179B" />
		</linearGradient>
		<linearGradient id="paint1_linear_101_3189" x1="12.8" y1="1.08655e-05" x2="80.5643" y2="6.93337" gradientUnits="userSpaceOnUse">
			<stop stop-color="#FF5242" />
			<stop offset="1" stop-color="#EB179B" />
		</linearGradient>
		<linearGradient id="paint2_linear_101_3189" x1="12.8" y1="1.08655e-05" x2="80.5643" y2="6.93337" gradientUnits="userSpaceOnUse">
			<stop stop-color="#FF5242" />
			<stop offset="1" stop-color="#EB179B" />
		</linearGradient>
		<linearGradient id="paint3_linear_101_3189" x1="12.8" y1="1.08655e-05" x2="80.5643" y2="6.93337" gradientUnits="userSpaceOnUse">
			<stop stop-color="#FF5242" />
			<stop offset="1" stop-color="#EB179B" />
		</linearGradient>
		<linearGradient id="paint4_linear_101_3189" x1="12.8" y1="1.08655e-05" x2="80.5643" y2="6.93337" gradientUnits="userSpaceOnUse">
			<stop stop-color="#FF5242" />
			<stop offset="1" stop-color="#EB179B" />
		</linearGradient>
		<linearGradient id="paint5_linear_101_3189" x1="12.8" y1="1.08655e-05" x2="80.5643" y2="6.93337" gradientUnits="userSpaceOnUse">
			<stop stop-color="#FF5242" />
			<stop offset="1" stop-color="#EB179B" />
		</linearGradient>
	</defs>
</svg>
