<svg xmlns="http://www.w3.org/2000/svg" width="72" height="74" viewBox="0 0 72 74" fill="none">
	<path d="M30.5071 50.1045L33.8002 42.4674L30.8841 39.4246L15.4649 42.7076L19.983 32.2231C19.983 32.2231 31.202 29.8496 33.3826 29.1288L33.8861 26.9014L36.2247 23.9645L38.4569 26.8415L38.9262 29.0562C43.524 30.324 50.7433 31.8203 50.7433 31.8203L56.678 42.1678L42.4063 39.2737L39.1015 42.398L42.5389 49.3656L30.5071 50.1045Z" fill="url(#paint0_linear_101_3183)" />
	<path d="M19.6969 27.0568L17.1585 19.1377L12.958 18.7543L3.48691 31.3386L0 20.4688C0 20.4688 6.90115 11.324 8.07189 9.35077L6.98685 7.34061L6.81941 3.59239L10.395 4.29907L12.2054 5.66193C16.507 3.60405 22.9362 0 22.9362 0L34.2171 3.91417L21.5495 11.0871L21.1113 15.6101L28.286 18.612L19.6969 27.0568Z" fill="url(#paint1_linear_101_3183)" />
	<path d="M19.6969 46.9432L17.1585 54.8623L12.958 55.2457L3.48691 42.6614L0 53.5312C0 53.5312 6.90115 62.6761 8.07189 64.6492L6.98685 66.6594L6.81941 70.4076L10.395 69.7009L12.2054 68.3381C16.507 70.396 22.9362 74 22.9362 74L34.2171 70.0858L21.5495 62.9129L21.1113 58.3899L28.286 55.388L19.6969 46.9432Z" fill="url(#paint2_linear_101_3183)" />
	<path d="M52.3031 27.0568L54.8415 19.1377L59.042 18.7543L68.5131 31.3386L72 20.4688C72 20.4688 65.0989 11.324 63.9281 9.35077L65.0131 7.34061L65.1806 3.59239L61.605 4.29907L59.7946 5.66193C55.493 3.60405 49.0638 0 49.0638 0L37.7829 3.91417L50.4505 11.0871L50.8887 15.6101L43.714 18.612L52.3031 27.0568Z" fill="url(#paint3_linear_101_3183)" />
	<path d="M52.3031 46.9432L54.8415 54.8623L59.042 55.2457L68.5131 42.6614L72 53.5312C72 53.5312 65.0989 62.6761 63.9281 64.6492L65.0131 66.6594L65.1806 70.4076L61.605 69.7009L59.7946 68.3381C55.493 70.396 49.0638 74 49.0638 74L37.7829 70.0858L50.4505 62.9129L50.8887 58.3899L43.714 55.388L52.3031 46.9432Z" fill="url(#paint4_linear_101_3183)" />
	<defs>
		<linearGradient id="paint0_linear_101_3183" x1="11.52" y1="1.07206e-05" x2="72.6142" y2="5.70184" gradientUnits="userSpaceOnUse">
			<stop stop-color="#FF5242" />
			<stop offset="1" stop-color="#EB179B" />
		</linearGradient>
		<linearGradient id="paint1_linear_101_3183" x1="11.52" y1="1.07206e-05" x2="72.6142" y2="5.70184" gradientUnits="userSpaceOnUse">
			<stop stop-color="#FF5242" />
			<stop offset="1" stop-color="#EB179B" />
		</linearGradient>
		<linearGradient id="paint2_linear_101_3183" x1="11.52" y1="1.07206e-05" x2="72.6142" y2="5.70184" gradientUnits="userSpaceOnUse">
			<stop stop-color="#FF5242" />
			<stop offset="1" stop-color="#EB179B" />
		</linearGradient>
		<linearGradient id="paint3_linear_101_3183" x1="11.52" y1="1.07206e-05" x2="72.6142" y2="5.70184" gradientUnits="userSpaceOnUse">
			<stop stop-color="#FF5242" />
			<stop offset="1" stop-color="#EB179B" />
		</linearGradient>
		<linearGradient id="paint4_linear_101_3183" x1="11.52" y1="1.07206e-05" x2="72.6142" y2="5.70184" gradientUnits="userSpaceOnUse">
			<stop stop-color="#FF5242" />
			<stop offset="1" stop-color="#EB179B" />
		</linearGradient>
	</defs>
</svg>
