<svg xmlns="http://www.w3.org/2000/svg" width="80" height="75" viewBox="0 0 80 75" fill="none">
	<path d="M62.2733 5.26182L59.5188 14.6702L54.5944 15.2431L43.1041 0.681076L39.3202 13.5951C39.3202 13.5951 47.6919 24.1767 49.1243 26.4691L47.9073 28.8699L47.8185 33.2933L51.9993 32.3573L54.0871 30.6986C59.2006 33.0006 66.8582 37.064 66.8582 37.064L80 32.125L64.9097 24.0342L64.2647 18.7148L72.6081 14.9695L62.2733 5.26182Z" fill="url(#paint0_linear_101_3178)" />
	<path d="M62.7917 68.9105L59.8083 59.5724L54.8714 59.1203L43.7401 73.9595L39.642 61.142C39.642 61.142 47.7529 50.3585 49.1288 48.0318L47.8536 45.6614L47.6568 41.2416L51.8592 42.0749L53.9869 43.6819C59.0426 41.2553 66.5988 37.0055 66.5988 37.0055L79.8572 41.621L64.9689 50.0792L64.454 55.4127L72.8864 58.9525L62.7917 68.9105Z" fill="url(#paint1_linear_101_3178)" />
	<path d="M7.17287 14.3285L16.1368 18.2063L16.0935 23.1636L0.268404 32.7977L12.572 38.1235C12.572 38.1235 24.0741 31.1007 26.5187 29.9577L28.7425 31.4575L33.1063 32.0834L32.6983 27.82L31.3164 25.5461C34.2264 20.7507 39.1936 13.6442 39.1936 13.6442L35.9364 0L26.0655 13.9941L20.7248 13.9875L18.0539 5.25101L7.17287 14.3285Z" fill="url(#paint2_linear_101_3178)" />
	<path d="M7.63904 61.8397L16.4403 57.6046L16.1985 52.653L0 43.6631L12.0802 37.8468C12.0802 37.8468 23.8545 44.4014 26.3429 45.4452L28.5048 43.8572L32.84 43.0562L32.6032 47.3326L31.3135 49.6603C34.4134 54.3348 39.6614 61.2358 39.6614 61.2358L36.9536 75L26.5299 61.4142L21.1937 61.6355L18.8751 70.4724L7.63904 61.8397Z" fill="url(#paint3_linear_101_3178)" />
	<defs>
		<linearGradient id="paint0_linear_101_3178" x1="12.8" y1="1.08655e-05" x2="80.5643" y2="6.93337" gradientUnits="userSpaceOnUse">
			<stop stop-color="#FF5242" />
			<stop offset="1" stop-color="#EB179B" />
		</linearGradient>
		<linearGradient id="paint1_linear_101_3178" x1="12.8" y1="1.08655e-05" x2="80.5643" y2="6.93337" gradientUnits="userSpaceOnUse">
			<stop stop-color="#FF5242" />
			<stop offset="1" stop-color="#EB179B" />
		</linearGradient>
		<linearGradient id="paint2_linear_101_3178" x1="12.8" y1="1.08655e-05" x2="80.5643" y2="6.93337" gradientUnits="userSpaceOnUse">
			<stop stop-color="#FF5242" />
			<stop offset="1" stop-color="#EB179B" />
		</linearGradient>
		<linearGradient id="paint3_linear_101_3178" x1="12.8" y1="1.08655e-05" x2="80.5643" y2="6.93337" gradientUnits="userSpaceOnUse">
			<stop stop-color="#FF5242" />
			<stop offset="1" stop-color="#EB179B" />
		</linearGradient>
	</defs>
</svg>
