<svg width="56" height="56" viewBox="0 0 56 56" fill="none" xmlns="http://www.w3.org/2000/svg">
<path d="M6.85986 31.7156L12.428 29.2313L14.6872 31.3369L12.428 42.6567L20.0723 39.2482C20.0723 39.2482 21.7049 31.0121 22.2124 29.4087L23.8409 29.0187L25.9719 27.2784L23.8409 25.6719L22.2124 25.3496C21.2387 21.9958 20.0723 16.7251 20.0723 16.7251L12.428 12.4799L14.6872 22.9001L12.428 25.3496L7.28614 22.9001L6.85986 31.7156Z" fill="url(#paint0_linear_1655_9972)"/>
<path d="M42.7496 44.6115L37.8229 41.0443L38.5191 38.041L49.4436 34.335L42.6819 29.4368C42.6819 29.4368 34.7389 32.1428 33.098 32.5057L31.9484 31.2943L29.3795 30.3237L29.0515 32.9668L29.5845 34.5342C27.167 37.0512 23.1864 40.6925 23.1864 40.6925L23.3233 49.4156L31.2164 42.2572L34.4631 42.9841L34.9066 48.6488L42.7496 44.6115Z" fill="url(#paint1_linear_1655_9972)"/>
<path d="M42.4825 11.0984L37.6129 14.7431L38.3565 17.735L49.3382 21.2677L42.6548 26.2722C42.6548 26.2722 34.67 23.6922 33.0235 23.3553L31.8933 24.5847L29.3401 25.5959L28.9703 22.9582L29.4785 21.3826C27.0215 18.9042 22.9837 15.3262 22.9837 15.3262L22.9827 6.60203L30.988 13.6348L34.2228 12.8566L34.5767 7.18561L42.4825 11.0984Z" fill="url(#paint2_linear_1655_9972)"/>
<defs>
<linearGradient id="paint0_linear_1655_9972" x1="9.91778" y1="12.4799" x2="26.216" y2="13.47" gradientUnits="userSpaceOnUse">
<stop stop-color="#FF5242"/>
<stop offset="1" stop-color="#EB179B"/>
</linearGradient>
<linearGradient id="paint1_linear_1655_9972" x1="24.5749" y1="51.5835" x2="17.3016" y2="37.0154" gradientUnits="userSpaceOnUse">
<stop stop-color="#FF5242"/>
<stop offset="1" stop-color="#EB179B"/>
</linearGradient>
<linearGradient id="paint2_linear_1655_9972" x1="24.1999" y1="4.41463" x2="17.1578" y2="19.0959" gradientUnits="userSpaceOnUse">
<stop stop-color="#FF5242"/>
<stop offset="1" stop-color="#EB179B"/>
</linearGradient>
</defs>
</svg>
