<svg width="1440" height="611" viewBox="0 0 1440 611" fill="none" xmlns="http://www.w3.org/2000/svg">
<path d="M1016.48 215.114L1024.63 212.323L1027.54 215.57L1022.93 231.206L1034.12 227.378C1034.12 227.378 1037.45 216 1038.37 213.809L1040.71 213.466L1043.93 211.288L1041.14 208.759L1038.88 208.1C1037.94 203.26 1036.96 195.699 1036.96 195.699L1026.74 188.762L1028.6 203.704L1025.12 206.864L1018.19 202.769L1016.48 215.114Z" fill="#231F23"/>
<path d="M865.751 186.282L873.524 182.57L876.792 185.459L874.019 201.522L884.69 196.428C884.69 196.428 886.692 184.741 887.349 182.459L889.635 181.848L892.581 179.313L889.511 177.124L887.2 176.729C885.701 172.03 883.859 164.633 883.859 164.633L872.905 158.922L876.481 173.549L873.38 177.09L866.028 173.822L865.751 186.282Z" fill="#231F23"/>
<path d="M504.898 462.662L510.992 456.577L515.036 458.215L517.767 474.285L526.135 465.934C526.135 465.934 524.133 454.247 523.994 451.876L525.946 450.54L527.88 447.17L524.257 446.126L521.946 446.522C518.968 442.589 514.769 436.225 514.769 436.225L502.539 434.481L510.779 447.087L509.033 451.457L501.012 450.819L504.898 462.662Z" fill="#231F23"/>
<path d="M907.874 266.911L916.46 266.203L918.487 270.065L910.182 284.094L921.967 283.125C921.967 283.125 927.995 272.912 929.422 271.013L931.775 271.254L935.43 269.931L933.34 266.794L931.32 265.604C931.59 260.68 932.499 253.111 932.499 253.111L924.293 243.881L922.432 258.823L918.275 261.031L912.565 255.363L907.874 266.911Z" fill="#231F23"/>
<path d="M1110.22 209.198L1117.8 205.106L1121.2 207.831L1119.23 224.011L1129.63 218.397C1129.63 218.397 1131.06 206.625 1131.6 204.314L1133.85 203.591L1136.67 200.913L1133.5 198.878L1131.17 198.598C1129.44 193.979 1127.23 186.681 1127.23 186.681L1116.01 181.518L1120.3 195.95L1117.38 199.64L1109.88 196.739L1110.22 209.198Z" fill="#231F23"/>
<path d="M927.67 146.358L936.256 145.65L938.283 149.512L929.978 163.54L941.763 162.571C941.763 162.571 947.791 152.359 949.217 150.46L951.571 150.701L955.226 149.378L953.136 146.241L951.116 145.051C951.386 140.126 952.295 132.557 952.295 132.557L944.089 123.328L942.228 138.269L938.071 140.477L932.361 134.81L927.67 146.358Z" fill="#231F23"/>
<path d="M1077.07 292.972L1085.12 289.912L1088.14 293.06L1084.05 308.841L1095.11 304.643C1095.11 304.643 1098.06 293.16 1098.91 290.94L1101.24 290.519L1104.38 288.235L1101.5 285.8L1099.23 285.217C1098.12 280.411 1096.9 272.887 1096.9 272.887L1086.45 266.294L1088.81 281.165L1085.43 284.439L1078.37 280.577L1077.07 292.972Z" fill="#231F23"/>
<path d="M404.701 337.038L412.753 333.978L415.772 337.126L411.686 352.907L422.74 348.708C422.74 348.708 425.698 337.226 426.541 335.005L428.869 334.585L432.013 332.301L429.135 329.866L426.864 329.282C425.757 324.476 424.53 316.952 424.53 316.952L414.085 310.359L416.443 325.231L413.062 328.505L406.003 324.643L404.701 337.038Z" fill="#231F23"/>
<path d="M1271.71 218.218L1278.11 212.458L1282.06 214.305L1283.95 230.495L1292.74 222.591C1292.74 222.591 1291.35 210.816 1291.34 208.441L1293.36 207.208L1295.47 203.943L1291.9 202.712L1289.57 202.987C1286.8 198.905 1282.94 192.331 1282.94 192.331L1270.82 189.953L1278.39 202.97L1276.42 207.243L1268.44 206.189L1271.71 218.218Z" fill="#231F23"/>
<path d="M1316.65 132.877L1321.44 125.715L1325.72 126.529L1331.55 141.752L1338.12 131.923C1338.12 131.923 1333.86 120.855 1333.26 118.557L1334.92 116.865L1336.15 113.181L1332.39 112.867L1330.2 113.709C1326.51 110.436 1321.15 105.019 1321.15 105.019L1308.81 105.705L1319.36 116.451L1318.51 121.078L1310.52 122.025L1316.65 132.877Z" fill="#231F23"/>
<path d="M1434.53 70.1669L1439.32 63.0053L1443.6 63.819L1449.43 79.0423L1456 69.2131C1456 69.2131 1451.74 58.1452 1451.14 55.8476L1452.8 54.1551L1454.03 50.4713L1450.27 50.1573L1448.08 50.999C1444.39 47.7261 1439.03 42.3087 1439.03 42.3087L1426.69 42.9953L1437.24 53.741L1436.39 58.3686L1428.4 59.3155L1434.53 70.1669Z" fill="#231F23"/>
<path d="M1434.48 162.273L1439.27 155.112L1443.55 155.925L1449.38 171.148L1455.95 161.319C1455.95 161.319 1451.69 150.251 1451.09 147.954L1452.74 146.261L1453.98 142.577L1450.22 142.264L1448.03 143.105C1444.34 139.832 1438.98 134.415 1438.98 134.415L1426.64 135.102L1437.19 145.847L1436.34 150.475L1428.35 151.422L1434.48 162.273Z" fill="#231F23"/>
<path d="M766.877 143.38L775.464 144.067L776.841 148.205L766.378 160.71L778.166 161.655C778.166 161.655 785.764 152.549 787.479 150.905L789.762 151.523L793.583 150.807L792.027 147.374L790.226 145.873C791.287 141.057 793.408 133.734 793.408 133.734L786.8 123.301L782.55 137.747L778.09 139.255L773.371 132.741L766.877 143.38Z" fill="#231F23"/>
<path d="M154.21 474.552L161.713 470.321L165.17 472.982L163.494 489.196L173.795 483.39C173.795 483.39 174.998 471.595 175.5 469.273L177.738 468.509L180.505 465.779L177.294 463.803L174.961 463.566C173.146 458.98 170.806 451.725 170.806 451.725L159.491 446.77L164.051 461.12L161.198 464.864L153.641 462.102L154.21 474.552Z" fill="#231F23"/>
<path d="M633.787 96.8485L641.951 94.0992L644.847 97.3609L640.158 112.973L651.365 109.202C651.365 109.202 654.761 97.8408 655.689 95.6545L658.032 95.3235L661.261 93.1614L658.479 90.6185L656.231 89.9481C655.309 85.1032 654.373 77.5377 654.373 77.5377L644.188 70.5493L645.974 85.5001L642.469 88.6422L635.564 84.5123L633.787 96.8485Z" fill="#231F23"/>
<path d="M539.764 24.8117L548.205 23.0925L550.675 26.6873L544.09 41.6001L555.678 39.2428C555.678 39.2428 560.454 28.389 561.645 26.3342L564.011 26.2953L567.483 24.549L565.036 21.6816L562.889 20.7386C562.574 15.817 562.58 8.19369 562.58 8.19369L553.338 0L553.261 15.0568L549.394 17.7416L543.053 12.7898L539.764 24.8117Z" fill="#231F23"/>
<path d="M3.88304 599.374L9.97905 593.29L14.0225 594.929L16.7495 611L25.1194 602.651C25.1194 602.651 23.1206 590.963 22.9819 588.592L24.9344 587.257L26.8692 583.887L23.2466 582.842L20.9349 583.238C17.9584 579.304 13.7609 572.939 13.7609 572.939L1.5313 571.192L9.76786 583.799L8.02154 588.17L0 587.53L3.88304 599.374Z" fill="#231F23"/>
<path d="M238.605 413.913L241.867 405.944L246.23 405.889L254.972 419.65L259.453 408.712C259.453 408.712 253.081 398.711 252.035 396.579L253.317 394.592L253.795 390.736L250.05 391.175L248.073 392.435C243.804 389.961 237.468 385.717 237.468 385.717L225.516 388.842L237.995 397.276L238.078 401.981L230.435 404.497L238.605 413.913Z" fill="#231F23"/>
<path d="M228.794 331.513L234.89 325.429L238.934 327.068L241.661 343.139L250.03 334.789C250.03 334.789 248.032 323.102 247.893 320.731L249.845 319.396L251.78 316.026L248.158 314.981L245.846 315.377C242.87 311.443 238.672 305.078 238.672 305.078L226.442 303.331L234.679 315.938L232.933 320.308L224.911 319.669L228.794 331.513Z" fill="#231F23"/>
<path d="M563.915 385.915L570.011 379.831L574.055 381.47L576.781 397.541L585.151 389.192C585.151 389.192 583.153 377.504 583.014 375.133L584.966 373.798L586.901 370.428L583.279 369.383L580.967 369.779C577.99 365.846 573.793 359.481 573.793 359.481L561.563 357.734L569.8 370.341L568.054 374.711L560.032 374.071L563.915 385.915Z" fill="#231F23"/>
<path d="M713.85 263.373L721.856 260.195L724.921 263.299L721.065 279.138L732.057 274.779C732.057 274.779 734.847 263.254 735.658 261.022L737.979 260.567L741.09 258.237L738.176 255.845L735.897 255.295C734.72 250.505 733.384 243 733.384 243L722.843 236.56L725.418 251.396L722.085 254.719L714.971 250.96L713.85 263.373Z" fill="#231F23"/>
<path d="M712.971 54.9979L721.513 53.8795L723.723 57.6398L716.1 72.05L727.825 70.5174C727.825 70.5174 733.357 60.0283 734.69 58.0628L737.053 58.1911L740.64 56.6945L738.402 53.6614L736.327 52.5691C736.361 47.6375 736.906 40.0337 736.906 40.0337L728.267 31.2075L727.125 46.2212L723.078 48.626L717.103 43.2386L712.971 54.9979Z" fill="#231F23"/>
<path d="M83.2772 417.823L89.8426 412.248L93.7413 414.207L95.1675 430.445L104.181 422.795C104.181 422.795 103.129 410.984 103.181 408.61L105.235 407.436L107.434 404.232L103.907 402.899L101.571 403.108C98.9205 398.949 95.2481 392.267 95.2481 392.267L83.1985 389.544L90.395 402.772L88.303 406.987L80.3588 405.706L83.2772 417.823Z" fill="#231F23"/>
<path d="M523.724 243.059L531.105 238.619L534.635 241.182L533.416 257.437L543.549 251.344C543.549 251.344 544.42 239.519 544.856 237.184L547.073 236.357L549.761 233.551L546.496 231.666L544.157 231.495C542.215 226.962 539.671 219.775 539.671 219.775L528.221 215.14L533.183 229.356L530.436 233.178L522.804 230.63L523.724 243.059Z" fill="#231F23"/>
<path d="M617.587 173.69L625.832 171.195L628.626 174.544L623.456 190.004L634.774 186.581C634.774 186.581 638.52 175.331 639.516 173.174L641.867 172.916L645.162 170.855L642.46 168.227L640.234 167.487C639.463 162.616 638.761 155.025 638.761 155.025L628.797 147.725L630.119 162.724L626.519 165.756L619.745 161.415L617.587 173.69Z" fill="#231F23"/>
<path d="M418.802 200.984L425.768 195.918L429.509 198.164L429.711 214.463L439.274 207.511C439.274 207.511 439.112 195.655 439.342 193.292L441.478 192.275L443.912 189.246L440.495 187.652L438.15 187.685C435.82 183.338 432.66 176.4 432.66 176.4L420.849 172.779L427.031 186.51L424.628 190.557L416.803 188.682L418.802 200.984Z" fill="#231F23"/>
<path d="M1192.19 327.27L1200.24 324.21L1203.26 327.358L1199.17 343.139L1210.23 338.941C1210.23 338.941 1213.18 327.458 1214.03 325.238L1216.36 324.817L1219.5 322.533L1216.62 320.098L1214.35 319.515C1213.24 314.709 1212.02 307.185 1212.02 307.185L1201.57 300.592L1203.93 315.463L1200.55 318.737L1193.49 314.875L1192.19 327.27Z" fill="#231F23"/>
</svg>
