<svg width="953" height="240" viewBox="0 0 953 240" fill="none" xmlns="http://www.w3.org/2000/svg">
	<path d="M214.984 62.815H209.907C208.215 62.815 204.075 63.5195 202.883 63.736C200.584 64.1538 197.769 63.8451 195.582 63.1973C192.027 62.1446 188.626 62.4883 185.011 63.1452C182.155 63.6643 173.091 66.5373 170.182 66.5373C167.559 66.5373 158.653 67.7837 158.653 71.3167C159.455 77.8018 172.02 72.4133 174.858 73.8319C176.386 74.5956 178.496 74.7008 180.178 74.7008C182.097 74.7008 183.919 75.2643 185.794 75.6391C189.923 76.4646 193.905 75.4404 198.016 75.3263C201.124 75.24 204.695 74.3256 207.717 75.5001C210.524 76.5913 212.708 77.8286 215.783 77.8286C216.562 77.8286 217.428 77.9299 218.2 77.8112C218.821 77.7157 219.376 77.2257 219.991 77.203C222.82 77.0983 225.762 77.0733 228.527 77.4984C230.301 77.7712 231.455 78.0732 232.995 79.0797C234.031 79.7569 234.897 80.6436 236.194 80.6436C238.497 80.6436 241.407 79.1321 243.565 80.5046C245.007 81.4215 248.577 83.9399 246.903 86.0304C246.623 86.3811 246.89 86.7914 246.451 87.1425C246.154 87.38 245.485 87.4747 245.113 87.6812C244.263 88.1528 242.61 87.8376 241.67 87.8376C238.489 87.8376 235.228 88.1504 232.126 88.1504C228.497 88.1504 225.7 90.3389 222.077 90.0097C216.719 89.5228 211.232 89.618 205.839 89.7143C203.022 89.7646 198.995 90.7491 196.746 92.5467C195.215 93.7712 193.911 93.5748 192.226 92.6683C188.538 90.6833 183.368 91.5737 179.378 92.4598C177.616 92.8512 176.069 93.2909 174.389 93.9368C172.994 94.473 171.562 93.7804 170.182 93.7804C166.457 93.7804 163.01 93.8319 159.455 95.1011C157.888 95.6602 156.39 96.5255 154.969 97.3774C153.374 98.3344 140.216 97.2906 138.433 97.2906C128.723 97.2906 119.459 105.729 136.399 107.056C144.514 107.056 154.216 105.007 159.455 107.056C166.12 109.663 170.78 106.042 179.378 106.042C188.313 108.428 198.926 104.333 201.363 105.023C201.363 105.023 202.827 106.524 211.981 105.023C214.609 104.464 223.217 101.36 225.984 101.36C228.787 101.36 236.23 104.803 238.986 105.023C242.991 105.343 244.65 106.812 248.44 105.023C250.636 103.987 249.785 102.984 256.245 102.984C273.808 102.984 270.547 95.6571 272.964 95.6571C275.099 95.6571 276.888 95.0316 278.997 95.0316H282.665C283.459 95.0316 284.235 94.406 285.169 94.406C286.381 94.406 290.541 95.0254 290.645 93.1549C290.805 90.2721 289.767 89.6203 287.359 88.3241C284.922 87.0126 282.002 88.4273 279.692 87.4553C277.176 86.3965 274.841 86.8566 272.217 86.2737C270.901 85.9816 270.209 84.7315 269.052 84.1537C268.181 83.7181 266.888 83.825 265.923 83.7714C264.901 83.7147 264.146 82.9126 263.263 82.5203C262.721 82.2794 262.459 80.4104 262.95 80.018C263.804 79.3355 264.062 78.7669 265.297 78.7669H268.913C271.869 78.7669 274.99 78.4421 277.849 79.2361C280.747 80.0405 283.685 78.7669 286.577 78.7669C288.183 78.7669 289.506 79.5528 290.993 79.6879C292.772 79.8495 294.629 79.7053 296.417 79.7053C299.082 79.7053 301.814 80.2928 304.414 80.8869C305.939 81.2352 307.8 80.9864 309.265 80.661C310.145 80.4654 311.19 80.018 312.081 80.018C313.975 80.018 317.016 81.058 318.809 80.2613C319.478 79.9645 321 79.8607 321 78.9233C321 77.8058 320.909 76.8705 320.67 75.7955C320.371 74.4539 315.075 73.2228 313.872 73.1368C311.273 72.9513 308.587 69.8017 306.2 68.7579C303.026 67.3701 299.796 68.7579 296.278 68.7579C295.209 68.7579 293.547 67.8963 292.662 67.333C290.798 66.1479 287.233 68.0208 285.169 67.333C281.993 66.2749 280.081 63.5934 276.876 62.7455C273.488 61.8492 270.559 62.815 266.985 62.815C263.699 62.815 260.513 60 257.23 60C253.833 60 250.268 62.7455 246.903 62.7455C243.092 62.7455 239.777 60.9834 236.02 61.6334C232.032 62.3233 228.956 60 224.898 60C221.814 60 218.062 62.815 214.984 62.815Z" stroke="url(#paint0_linear_81_3378)" stroke-width="3" stroke-linecap="round" />
	<path d="M564.868 143.1C566.243 143.139 567.707 143.274 569.262 143.108C572.283 142.785 575.108 145.346 578.035 145.033C581.619 144.65 584.823 145.262 588.344 144.885C592.094 144.484 595.044 144.755 598.706 145.235C601.259 145.57 600.68 148.209 599.425 149.904C597.885 151.982 596.968 152.979 594.701 154.12C592.318 155.319 590.334 154.693 587.859 154.957L582.019 155.581C579.759 155.823 577.938 156.972 575.604 157.221C573.608 157.435 571.625 157.17 569.569 157.389C566.27 157.742 560.278 157.7 560.826 162.83C561.148 165.841 561.83 165.005 563.864 166.588C565.536 167.889 566.867 167.698 568.794 167.492C569.716 167.394 570.394 166.844 571.349 166.742C572.36 166.634 573.229 167.018 574.223 166.912C576.242 166.696 577.613 167.981 579.587 167.77C580.686 167.653 581.673 167.07 582.819 166.947C585.371 166.675 584.19 170.888 583 172.071C581.522 173.54 579.478 174.462 577.566 174.666C575.992 174.835 567.973 174.703 567.632 176.948C566.952 181.423 570.55 183.528 573.983 183.161C579.629 182.557 585.391 182.418 590.974 181.822C593.474 181.554 595.627 183.233 598.126 182.966L603.677 182.372C607.645 181.948 612.116 179.914 616.177 181.036C621.389 182.477 626.13 179.972 631.308 179.419C634.46 179.082 636.361 179.971 639.295 180.845C641.767 181.58 644.482 180.873 646.983 180.606L654.029 179.853C656.124 179.629 657.854 181.014 659.875 181.11C661.984 181.21 663.558 183.606 665.393 183.41L671.137 182.796C672.552 182.644 676.228 182.014 676.454 184.136C676.738 186.785 675.261 187.252 673.625 188.494C670.323 191.001 666.35 191.06 662.768 192.65C660.805 193.522 658.563 192.728 656.551 192.943L648.491 193.805C642.458 194.45 636.769 196.012 630.783 196.652C628.181 196.93 626.023 198.593 623.549 198.857C622.539 198.965 618.779 198.706 618.872 200.311C618.999 202.49 618.922 204.478 621.328 204.794C623.036 205.017 624.721 204.893 626.427 205.229C628.513 205.64 630.151 207.358 632.32 207.834C633.75 208.147 635.674 206.961 636.907 207.82C638.555 208.969 639.455 207.913 639.756 210.723C639.998 212.992 634.956 215.513 633.306 215.919C628.339 217.142 623.052 216.565 618.031 217.101C612.031 217.743 605.92 218.873 599.837 219.523C596.772 219.851 593.669 220.058 590.619 220.509C587.747 220.933 586.276 224.679 583.043 224.075C578.738 223.271 574.82 223.152 570.425 223.622L564.512 224.254C562.494 224.469 560.385 223.836 558.383 224.458C555.816 225.256 553.515 225.906 550.807 226.196C548.123 226.483 545.571 224.952 542.98 225.124C538.495 225.422 534.889 225.915 530.519 224.547C528.612 223.951 527.317 223.146 525.201 223.207C523.355 223.261 520.457 222.449 522.203 219.817C523.909 217.242 528.197 216.207 531.132 215.893C535.061 215.473 539.352 214.708 543.364 214.108C544.343 213.962 547.974 213.344 548.547 212.362C549.322 211.034 551.625 210.542 552.985 210.721C556.325 211.159 561.373 210.677 560.564 205.59C559.797 200.758 552.355 201.955 549.37 201.564C547.002 201.254 545.057 200.676 542.806 199.748C540.388 198.751 537.792 199.951 535.32 199.593C533.133 199.277 530.924 199.491 528.832 198.723C526.196 197.754 524.04 195.531 521.402 194.746C519.172 194.082 516.344 195.433 514.148 194.699C512.165 194.037 510.183 193.742 508.249 192.944C503.976 191.183 500.141 192.008 495.703 192.483C493.372 192.732 491.444 192.585 489.24 191.848C487.422 191.241 484.212 192.28 482.375 192.476C478.988 192.838 474.991 192.474 471.794 190.983C470.221 190.25 467.126 190.766 465.419 190.949C463.731 191.129 461.512 190.468 460.016 189.724C458.03 188.735 457.883 187.253 457.763 185.087C457.692 183.798 460.445 182.292 461.381 181.943C465.434 180.433 470.045 181.407 474.109 179.761C477.955 178.203 482.265 178.173 486.413 177.73C488.07 177.553 489.342 175.741 490.722 174.884C492.331 173.883 493.9 173.113 495.783 172.911C499.003 172.567 502.686 172.533 505.444 170.818C506.926 169.897 509.132 170.053 510.835 169.871C512.623 169.68 513.844 170.981 515.764 170.775C517.743 170.564 519.647 170.837 521.679 170.62C523.366 170.44 524.758 169.814 526.407 169.638C529.432 169.314 533.308 169.592 536.177 168.567C537.735 168.01 539.128 167.724 540.345 166.451C541.327 165.423 540.961 162.376 539.413 162.071C536.58 161.513 532.342 161.605 529.827 159.623C527.596 157.864 522.638 161.876 520.494 159.534C519.198 158.118 517.158 158.249 517.025 155.849C516.931 154.154 518.524 153.29 519.386 152.363C520.728 150.919 524.045 150.804 525.91 150.605C527.04 150.484 529.048 149.381 530.102 148.725C532.818 147.037 537.548 147.452 540.694 147.116C544.253 146.735 546.742 145.038 550.316 144.656C553.944 144.268 556.792 143.009 560.327 142.631C562.001 142.452 563.394 143.058 564.868 143.1Z" stroke="url(#paint1_linear_81_3378)" stroke-width="3" stroke-linecap="round" />
	<path d="M328.019 9.98008C332.48 9.48836 336.325 9.98008 340.662 9.98008C346.494 9.32005 351.39 8 353.637 8H361.622C364.812 8 367.758 9.32005 370.901 9.32005H378.443C380.957 9.32005 383.072 10.3866 385.244 10.6401C391.193 11.3343 394.576 16.9667 386.575 17.9004C383.518 18.2572 380.978 19.8805 377.592 19.8805H370.236C367.342 19.8805 364.405 19.5501 361.659 20.5405C358.081 21.8311 354.877 23.8406 350.939 23.8406C344.363 23.8406 338.162 22.5206 331.678 22.5206C327.918 22.5206 325.943 24.5035 322.695 26.1141C319.294 27.8009 316.139 27.8009 312.447 27.8008H312.381C306.987 27.8008 302.198 25.5202 296.744 25.8207C291.785 26.094 289.004 32.3824 283.436 29.9276C280.167 28.4867 260.21 31.0586 260.21 35.0611C260.21 40.5133 276.306 45.9566 280.197 45.2548C285.958 44.2158 297.548 45.6215 303.547 45.6215C311.011 45.6215 317.849 39.6813 325.357 39.6813H333.342C336.716 39.6813 338.11 41.1599 341.179 42.1747C344.239 43.1864 348.945 42.3214 352.122 42.3214H364.617C368.221 42.3214 369.396 43.0384 372.269 45.2548C373.615 46.2935 377.257 45.6215 378.923 45.6215C386.179 45.6215 393.872 45.317 400.549 48.6283C403.136 49.9114 405.699 51.5618 408.534 51.5618C411.822 51.5618 415.135 50.9017 418.515 50.9017C424.701 50.9017 431.583 52.1037 437.147 55.0086C439.366 56.1672 442.937 55.0086 445.556 55.0086C448.858 55.0086 449.445 58.8221 452.747 58.8221C455.767 58.8221 460.394 58.3023 463.276 58.8221C464.604 59.0617 468.57 57.3289 475.161 61.7229C484.885 70.9398 453.271 67.5536 445.051 67.5536L434.531 68.9873L418.515 70.2968C409.733 71.753 405.973 67.5536 402.121 67.5536C397.665 68.9649 389.133 70.3108 384.617 68.9873C380.31 68.9873 367.383 71.0785 363.134 70.9959C355.098 70.8396 348.999 67.0884 341.179 64.9921C331.218 62.3218 332.133 69.3825 321.882 69.3825C313.143 69.3825 305.734 68.1459 297.114 70.9959C293.418 72.2179 287.92 73.9891 284.064 72.3159C280.993 70.983 277.661 69.5808 274.416 68.7225C267.066 66.7784 258.917 69.6248 251.792 66.4124C244.254 63.0138 238.945 58.0419 231.866 58.8221C228.409 59.203 224.753 57.761 222.019 55.3353C219.506 53.1042 205.241 50.4432 201.951 50.4432C194.982 49.3865 191.249 50.1406 183.454 42.7326C180.425 39.2755 176.837 39.1874 172.013 39.1874C170.039 39.1874 164.888 42.1964 162.995 42.7326C158.128 44.112 152.407 41.3527 147.358 41.3527C143.941 41.3527 137.987 44.3701 135.016 42.7326C131.979 41.0593 123.172 37.6645 119.678 37.6645C108.313 38.1558 101.987 32.0058 100.311 29.7934C99.1184 28.2186 101.124 23.4585 110.387 21.7384C114.913 19.098 128.011 20.5405 133.384 20.5405C138.529 20.5405 142.402 17.9004 147.358 17.9004C152.724 17.9004 157.664 18.5604 162.995 18.5604C167.207 18.5604 170.964 17.2404 175.49 17.2404C187.336 17.2404 198.567 18.0242 209.575 13.4269C214.061 11.5533 220.115 14.6003 224.546 14.6003C227.005 14.6003 229.671 14.1597 231.866 12.9502C233.7 11.9398 237.124 12.6202 239.223 12.6202H246.542C249.791 12.6202 252.077 14.6003 255.156 14.6003C260.971 14.6003 266.168 12.6202 272.124 12.6202C277.074 12.6202 281.928 13.2086 286.837 13.2802C288.347 13.3022 289.91 13.3635 291.421 13.2802C292.627 13.2137 293.546 12.0857 294.748 11.9602C298.217 11.598 301.125 9.32005 304.581 9.32005H313.527C318.736 9.32005 322.812 10.5539 328.019 9.98008Z" fill="url(#paint2_linear_81_3378)" />
	<path d="M796.9 109.238C794.984 109.479 792.956 109.857 790.756 109.857C786.484 109.857 782.917 113.57 778.777 113.57C773.708 113.57 769.32 114.808 764.34 114.808C759.036 114.808 754.952 115.569 749.903 116.699C746.384 117.487 747.587 120.83 749.595 122.854C752.059 125.336 753.49 126.503 756.831 127.668C760.343 128.893 763.024 127.806 766.524 127.806H774.784C777.98 127.806 780.697 129.043 783.999 129.043C786.822 129.043 789.555 128.424 792.463 128.424C797.129 128.424 805.501 127.539 805.501 134.27C805.501 138.22 804.422 137.23 801.815 139.565C799.672 141.484 797.782 141.422 795.057 141.422C793.753 141.422 792.723 140.803 791.371 140.803C789.941 140.803 788.784 141.422 787.378 141.422C784.523 141.422 782.797 143.279 780.005 143.279C778.452 143.279 776.984 142.66 775.364 142.66C771.754 142.66 774.035 147.962 775.876 149.33C778.162 151.031 781.158 151.944 783.862 151.944C786.089 151.944 797.282 150.661 798.094 153.525C799.714 159.237 794.998 162.465 790.142 162.465C782.157 162.465 774.079 163.084 766.183 163.084C762.647 163.084 759.888 165.56 756.353 165.56H748.503C742.891 165.56 736.335 163.541 730.824 165.56C723.751 168.151 716.747 165.56 709.424 165.56C704.966 165.56 702.442 166.977 698.468 168.517C695.122 169.814 691.219 169.273 687.683 169.273H677.717C674.755 169.273 672.543 171.31 669.731 171.715C666.797 172.137 664.954 175.463 662.359 175.463H654.236C652.233 175.463 647 175.155 647 177.938C647 181.414 649.135 181.815 651.608 183.199C656.599 185.993 662.163 185.519 667.41 187.085C670.286 187.943 673.303 186.603 676.147 186.603H687.547C696.08 186.603 704.268 187.841 712.735 187.841C716.414 187.841 719.68 189.698 723.179 189.698C724.608 189.698 729.827 188.841 729.936 190.936C730.085 193.779 730.49 196.348 727.172 197.091C724.817 197.618 722.443 197.691 720.107 198.363C717.252 199.185 715.218 201.64 712.257 202.558C710.303 203.163 707.436 201.891 705.841 203.177C703.708 204.895 702.291 203.651 702.291 207.337C702.291 210.313 709.718 212.884 712.086 213.183C719.214 214.08 726.521 212.598 733.622 212.598C742.109 212.598 750.822 213.217 759.425 213.217C763.761 213.217 768.13 213.055 772.463 213.217C776.542 213.369 779.159 218.024 783.589 216.793C789.489 215.153 794.949 214.455 801.166 214.455H809.528C812.382 214.455 815.237 213.341 818.129 213.87C821.838 214.55 825.153 215.074 828.982 215.074C832.778 215.074 836.118 212.734 839.768 212.598C846.083 212.362 851.2 212.502 857.106 210.122C859.683 209.084 861.373 207.86 864.341 207.647C866.931 207.46 870.861 206.005 868.027 202.833C865.256 199.73 859.106 198.982 854.955 198.982C849.398 198.982 843.283 198.584 837.583 198.363C836.193 198.309 831.023 198.01 830.075 196.815C828.793 195.201 825.499 194.883 823.624 195.303C819.019 196.334 811.888 196.409 812.259 189.698C812.61 183.324 823.195 183.845 827.31 182.924C830.575 182.193 833.209 181.173 836.218 179.658C839.45 178.029 843.26 179.226 846.662 178.42C849.673 177.706 852.795 177.678 855.604 176.391C859.146 174.769 861.828 171.586 865.399 170.202C868.419 169.032 872.575 170.392 875.536 169.136C878.21 168.001 880.937 167.344 883.522 166.041C889.234 163.164 894.72 163.703 900.997 163.703C904.294 163.703 906.967 163.245 909.939 161.984C912.39 160.944 917.035 161.846 919.632 161.846C924.423 161.846 929.958 160.82 934.206 158.442C936.295 157.273 940.701 157.514 943.114 157.514C945.502 157.514 948.506 156.349 950.486 155.176C953.115 153.618 953.099 151.675 952.943 148.849C952.851 147.167 948.776 145.596 947.414 145.273C941.522 143.876 935.22 145.779 929.291 144.207C923.679 142.719 917.649 143.279 911.782 143.279C909.438 143.279 907.389 141.105 905.332 140.184C902.932 139.11 900.623 138.327 897.96 138.327C893.406 138.327 888.25 138.793 884.137 136.952C881.927 135.963 878.866 136.47 876.457 136.47C873.928 136.47 872.416 138.327 869.7 138.327C866.901 138.327 864.279 138.946 861.406 138.946C859.02 138.946 856.98 138.327 854.648 138.327C850.37 138.327 844.991 139.225 840.826 138.293C838.565 137.787 836.573 137.609 834.682 136.127C833.154 134.93 833.211 130.926 835.331 130.316C839.209 129.199 845.149 128.731 848.368 125.811C851.226 123.22 858.758 127.737 861.406 124.401C863.007 122.385 865.879 122.273 865.706 119.141C865.585 116.929 863.228 116.029 861.884 114.946C859.791 113.259 855.136 113.57 852.498 113.57C850.9 113.57 847.927 112.417 846.355 111.714C842.305 109.9 835.753 111.095 831.303 111.095C826.271 111.095 822.536 109.238 817.48 109.238C812.35 109.238 808.18 108 803.18 108C800.813 108 798.955 108.979 796.9 109.238Z" fill="url(#paint3_linear_81_3378)" />
	<path d="M587.769 6.92985C582.89 6.23486 580.862 7.1453 578.386 10.8699C567.921 15.4223 565.409 17.3583 575.454 20.7194C576.333 20.7194 576.994 22.5097 580.876 22.0353C585.681 22.826 587.772 21.578 588.692 21.578C589.687 21.578 590.497 22.4832 591.231 23.1005C592.003 23.7498 593.497 24.3 594.496 24.4528C597.063 24.8453 600.277 24.958 602.75 24.002C605.055 23.1112 607.184 22.4795 609.653 22.4795C611.035 22.4795 612.381 22.6684 613.634 23.2909C614.95 23.9449 616.661 24.0833 617.897 24.9336C619.868 26.2896 620.353 27.9175 619.439 29.9618C618.827 31.3292 616.124 30.8388 614.905 30.6177L614.823 30.6029C613.241 30.317 611.819 29.3308 610.187 29.3308C608.49 29.3308 606.842 29.1808 605.29 29.9117C603.648 30.6846 601.975 31.1337 600.17 31.1337C598.157 31.1337 596.839 30.276 594.99 29.7314C593.659 29.3393 591.588 29.6245 590.415 30.2723C589.123 30.9856 587.757 32.2155 586.202 32.2155C578.979 35.3742 578.963 38.5383 577.387 38.5383C576.666 38.5383 574.745 39.1575 569.47 40.415C559.488 43.2704 556.161 48.4788 565.567 48.4788C566.07 49.48 587.6 48.4788 588.692 48.4788C593.488 48.4788 596.729 50.7654 601.214 50.7654C606.348 50.7654 609.427 50.8366 616.612 49.6464C619.36 49.1911 622.109 50.7654 624.894 50.7654C628.27 50.7654 629.39 51.9536 632.627 52.6685C635.184 53.2332 637.425 53.1553 639.914 54.2551C642.506 55.3998 646.21 56.0027 649.076 56.0027H658.445C660.939 56.0027 662.934 53.7824 665.316 53.5193C667.025 53.3306 668.538 52.6915 670.313 52.6915C671.175 52.6915 673.512 52.4891 674.269 52.0707C676.87 50.6344 681.693 52.5962 684.379 52.6915C686.791 52.7771 689.125 53.4504 691.551 53.5193C693.752 53.5818 696.529 53.9613 698.677 54.5541C701.096 55.2221 703.858 55.2332 706.334 55.6118C708.322 55.9158 709.253 56.0931 711.123 55.2669C716.828 52.7465 723.16 51.9101 729.446 52.2776C732.894 52.4793 736.563 54.8753 739.949 55.9107C742.954 56.8298 746.651 55.5888 749.619 55.5888H758.179C759.793 55.5888 760.557 56.1332 761.927 56.7385C763.319 57.3534 764.947 56.8507 766.276 57.4513C768.573 58.4889 773.255 57.7541 775.761 57.6583C779.094 57.5308 783.004 56.7049 786.288 55.9797C788.855 55.4125 791.519 53.25 793.991 53.1054C796.902 52.9352 799.556 52.2776 802.528 52.2776C804.92 52.2776 808.474 51.6392 810.648 52.5996C811.937 53.1689 813.783 52.1216 814.905 53.0134C815.343 53.3615 818.16 53.5193 818.769 53.5193C824.184 53.5193 829.75 53.1054 835.032 53.1054C837.4 53.1054 840.67 51.8465 842.713 50.944C844.887 49.9836 848.442 50.6221 850.833 50.6221C855.671 50.6221 860.447 50.6764 864.159 47.7248C869.178 43.7342 862.851 37.6249 858.121 37.3774C855.718 37.2518 853.03 36.9636 850.417 36.9636C848.254 36.9636 843.675 37.811 841.973 36.4577C839.851 34.7706 837.732 31.7475 835.009 31.146C829.688 29.9707 823.813 30.7829 818.653 29.0076C812.511 26.8943 805.082 26.4575 798.988 29.0076C797.762 29.5208 795.76 29.9273 794.408 29.9273C793.231 29.9273 792.441 30.0106 791.493 29.4215C790.867 29.0326 790.926 28.1249 790.244 27.7659C787.42 26.28 784.002 25.8757 780.874 25.3975C776.478 24.7253 771.918 23.1795 767.664 21.9714C765.207 21.2735 762.648 20.4078 760.076 20.4078C758.44 20.4078 755.747 19.9366 754.246 20.6147C751.438 21.8832 747.47 22.0634 744.344 22.0634C740.321 22.0634 737.055 20.3138 732.985 21.2126C731.218 21.6029 728.95 21.6495 727.132 21.6495C725.782 21.6495 722.002 22.9328 720.793 21.9714C718.341 20.0217 714.832 19.5835 711.956 18.1544C709.28 16.8248 704.348 17.1286 701.545 17.9244C698.038 18.9203 696.054 23.448 693.541 25.6964C692.185 26.9092 691.332 27.8579 689.469 27.8579C688.732 27.8579 686.579 27.753 686.114 27.214C684.915 25.8231 685.118 24.6272 684.264 23.0981C683.737 22.1557 682.725 21.1991 681.973 20.4078L681.905 20.3357C680.347 18.6954 677.357 15.5481 675.102 15.0501C673.727 14.7464 672.319 15.441 670.915 15.441C668.978 15.441 668.009 14.1225 667.075 12.5438C665.767 10.3351 662.273 7.16316 659.695 7.16316C656.956 7.16316 654.467 5.93375 652.5 4.17393C651.825 3.57024 645.127 3.27444 644.495 4.05895C643.785 4.94169 641.779 3.85201 640.956 3.85201C639.046 3.85201 638.3 2.31403 636.583 1.46062C629.67 -1.97469 622.962 1.36132 616.595 4.17393C613.188 5.67895 604.295 3.40829 601.214 2.72784C598.06 2.03116 591.113 6.92985 587.769 6.92985Z" fill="url(#paint4_linear_81_3378)" />
	<path d="M149.9 238.762C147.984 238.521 145.956 238.143 143.757 238.143C139.484 238.143 135.917 234.43 131.777 234.43C126.708 234.43 122.32 233.192 117.34 233.192C112.036 233.192 107.952 232.431 102.903 231.301C99.3835 230.513 100.587 227.17 102.595 225.146C105.059 222.664 106.49 221.497 109.831 220.332C113.343 219.107 116.024 220.194 119.524 220.194H127.784C130.98 220.194 133.697 218.957 136.999 218.957C139.822 218.957 142.555 219.576 145.463 219.576C150.129 219.576 158.501 220.461 158.501 213.73C158.501 209.78 157.423 210.77 154.815 208.435C152.672 206.516 150.782 206.578 148.057 206.578C146.753 206.578 145.723 207.197 144.371 207.197C142.941 207.197 141.784 206.578 140.378 206.578C137.523 206.578 135.797 204.721 133.005 204.721C131.452 204.721 129.984 205.34 128.364 205.34C124.754 205.34 127.035 200.038 128.876 198.67C131.162 196.969 134.158 196.056 136.862 196.056C139.089 196.056 150.282 197.339 151.094 194.475C152.714 188.763 147.998 185.535 143.142 185.535C135.157 185.535 127.079 184.916 119.183 184.916C115.647 184.916 112.888 182.44 109.353 182.44H101.503C95.8909 182.44 89.335 184.459 83.8238 182.44C76.7513 179.849 69.747 182.44 62.4242 182.44C57.9656 182.44 55.4417 181.023 51.4684 179.483C48.1217 178.186 44.2193 178.727 40.6832 178.727H30.7172C27.7546 178.727 25.5431 176.69 22.7307 176.285C19.7974 175.863 17.9539 172.537 15.3586 172.537H7.23561C5.23309 172.537 0 172.845 0 170.062C0 166.586 2.13457 166.185 4.60758 164.801C9.59948 162.007 15.1635 162.481 20.4099 160.915C23.2857 160.057 26.3027 161.397 29.1472 161.397H40.5467C49.0801 161.397 57.2683 160.159 65.7348 160.159C69.4141 160.159 72.6803 158.302 76.1787 158.302C77.6082 158.302 82.827 159.159 82.9364 157.064C83.085 154.221 83.4899 151.652 80.1719 150.909C77.8171 150.382 75.4426 150.31 73.1069 149.637C70.252 148.815 68.2185 146.36 65.257 145.442C63.3034 144.837 60.4359 146.109 58.8405 144.823C56.7081 143.105 55.291 144.349 55.291 140.663C55.291 137.687 62.7179 135.116 65.0863 134.817C72.2145 133.92 79.5213 135.402 86.6225 135.402C95.1087 135.402 103.822 134.783 112.425 134.783C116.761 134.783 121.13 134.945 125.463 134.783C129.542 134.631 132.159 129.976 136.589 131.207C142.489 132.847 147.949 133.545 154.166 133.545H162.528C165.382 133.545 168.237 134.659 171.129 134.13C174.838 133.45 178.153 132.926 181.982 132.926C185.778 132.926 189.118 135.266 192.768 135.402C199.083 135.638 204.2 135.498 210.106 137.878C212.683 138.916 214.373 140.14 217.341 140.353C219.931 140.54 223.861 141.995 221.027 145.167C218.256 148.27 212.106 149.018 207.955 149.018C202.398 149.018 196.283 149.416 190.583 149.637C189.193 149.691 184.023 149.99 183.075 151.185C181.793 152.799 178.499 153.117 176.624 152.697C172.019 151.666 164.888 151.591 165.259 158.302C165.61 164.676 176.195 164.155 180.31 165.076C183.575 165.807 186.209 166.827 189.218 168.342C192.45 169.971 196.26 168.774 199.662 169.58C202.673 170.294 205.795 170.322 208.604 171.609C212.146 173.231 214.828 176.414 218.399 177.798C221.419 178.968 225.576 177.608 228.536 178.864C231.21 179.999 233.937 180.656 236.522 181.959C242.234 184.836 247.72 184.297 253.997 184.297C257.294 184.297 259.967 184.755 262.939 186.016C265.39 187.056 270.035 186.154 272.632 186.154C277.423 186.154 282.958 187.18 287.206 189.558C289.295 190.727 293.701 190.486 296.114 190.486C298.502 190.486 301.506 191.651 303.486 192.824C306.115 194.382 306.099 196.325 305.943 199.151C305.851 200.833 301.776 202.404 300.414 202.727C294.522 204.124 288.22 202.221 282.291 203.793C276.679 205.281 270.649 204.721 264.782 204.721C262.438 204.721 260.389 206.895 258.332 207.816C255.932 208.89 253.623 209.673 250.96 209.673C246.406 209.673 241.25 209.207 237.137 211.048C234.927 212.037 231.866 211.53 229.458 211.53C226.928 211.53 225.416 209.673 222.7 209.673C219.901 209.673 217.279 209.054 214.406 209.054C212.02 209.054 209.98 209.673 207.648 209.673C203.37 209.673 197.991 208.775 193.826 209.707C191.565 210.213 189.573 210.391 187.682 211.873C186.154 213.07 186.211 217.074 188.331 217.684C192.209 218.801 198.149 219.269 201.368 222.189C204.226 224.78 211.758 220.263 214.406 223.599C216.007 225.615 218.879 225.727 218.706 228.859C218.585 231.071 216.228 231.971 214.884 233.054C212.791 234.741 208.136 234.43 205.498 234.43C203.9 234.43 200.927 235.583 199.355 236.286C195.305 238.1 188.753 236.905 184.303 236.905C179.271 236.905 175.536 238.762 170.48 238.762C165.35 238.762 161.18 240 156.18 240C153.813 240 151.955 239.021 149.9 238.762Z" fill="url(#paint5_linear_81_3378)" />
	<path d="M583.688 86.2716L586.716 85.2302L587.798 86.4419L586.085 92.2765L590.242 90.8481C590.242 90.8481 591.483 86.6023 591.823 85.7848L592.693 85.6568L593.889 84.8439L592.85 83.9003L592.014 83.6544C591.662 81.8482 591.3 79.0268 591.3 79.0268L587.503 76.4383L588.194 82.0139L586.898 83.193L584.325 81.6649L583.688 86.2716Z" fill="#231F23" />
	<path d="M527.684 75.5128L530.572 74.1274L531.786 75.2056L530.756 81.1997L534.721 79.299C534.721 79.299 535.464 74.9378 535.709 74.0862L536.558 73.8584L537.653 72.9123L536.512 72.0953L535.653 71.948C535.096 70.1947 534.412 67.4342 534.412 67.4342L530.342 65.3031L531.67 70.7612L530.518 72.0827L527.786 70.8631L527.684 75.5128Z" fill="#231F23" />
	<path d="M393.603 178.646L395.867 176.376L397.37 176.987L398.385 182.984L401.494 179.867C401.494 179.867 400.75 175.506 400.698 174.621L401.424 174.123L402.142 172.865L400.796 172.476L399.937 172.624C398.831 171.156 397.271 168.781 397.271 168.781L392.726 168.131L395.788 172.834L395.139 174.465L392.159 174.227L393.603 178.646Z" fill="#231F23" />
	<path d="M543.335 105.6L546.525 105.336L547.278 106.777L544.192 112.012L548.572 111.65C548.572 111.65 550.811 107.84 551.341 107.131L552.216 107.221L553.574 106.727L552.797 105.557L552.047 105.112C552.147 103.275 552.485 100.451 552.485 100.451L549.436 97.0063L548.744 102.582L547.2 103.406L545.078 101.291L543.335 105.6Z" fill="#231F23" />
	<path d="M618.518 84.0639L621.335 82.5372L622.601 83.5538L621.867 89.5917L625.733 87.4967C625.733 87.4967 626.262 83.1041 626.464 82.2414L627.301 81.9717L628.347 80.9725L627.168 80.2131L626.303 80.1085C625.66 78.3849 624.841 75.6618 624.841 75.6618L620.671 73.735L622.267 79.1206L621.181 80.4975L618.392 79.4148L618.518 84.0639Z" fill="#231F23" />
	<path d="M550.691 60.6148L553.881 60.3506L554.634 61.7917L551.548 67.0265L555.927 66.6649C555.927 66.6649 558.167 62.8541 558.697 62.1453L559.571 62.2354L560.929 61.7417L560.153 60.5712L559.402 60.1269C559.503 58.2894 559.841 55.465 559.841 55.465L556.791 52.0208L556.1 57.5964L554.555 58.4204L552.434 56.3055L550.691 60.6148Z" fill="#231F23" />
	<path d="M606.201 115.325L609.193 114.183L610.315 115.358L608.797 121.247L612.904 119.68C612.904 119.68 614.003 115.395 614.316 114.567L615.182 114.41L616.35 113.557L615.28 112.649L614.436 112.431C614.025 110.638 613.569 107.83 613.569 107.83L609.688 105.37L610.564 110.919L609.308 112.141L606.685 110.7L606.201 115.325Z" fill="#231F23" />
	<path d="M356.373 131.769L359.365 130.627L360.487 131.802L358.968 137.69L363.076 136.124C363.076 136.124 364.175 131.839 364.488 131.01L365.353 130.853L366.521 130.001L365.452 129.092L364.608 128.875C364.197 127.081 363.741 124.274 363.741 124.274L359.86 121.813L360.736 127.363L359.48 128.585L356.857 127.143L356.373 131.769Z" fill="#231F23" />
	<path d="M678.523 87.43L680.902 85.2807L682.371 85.9696L683.073 92.0114L686.34 89.0618C686.34 89.0618 685.823 84.6677 685.818 83.7815L686.568 83.3216L687.351 82.1033L686.027 81.6437L685.161 81.7465C684.133 80.2232 682.698 77.7701 682.698 77.7701L678.193 76.8825L681.007 81.7399L680.275 83.3347L677.31 82.9412L678.523 87.43Z" fill="#231F23" />
	<path d="M695.224 55.5841L697.001 52.9117L698.593 53.2153L700.76 58.8961L703.2 55.2282C703.2 55.2282 701.619 51.0981 701.395 50.2408L702.009 49.6092L702.468 48.2345L701.072 48.1174L700.259 48.4315C698.887 47.2102 696.893 45.1886 696.893 45.1886L692.31 45.4448L696.231 49.4547L695.914 51.1815L692.944 51.5348L695.224 55.5841Z" fill="#231F23" />
	<path d="M739.024 32.1834L740.801 29.511L742.394 29.8146L744.56 35.4953L747 31.8275C747 31.8275 745.419 27.6974 745.195 26.84L745.809 26.2085L746.268 24.8338L744.872 24.7166L744.059 25.0307C742.687 23.8094 740.693 21.7879 740.693 21.7879L736.11 22.0441L740.031 26.0539L739.714 27.7808L736.745 28.1341L739.024 32.1834Z" fill="#231F23" />
	<path d="M739.005 66.5536L740.782 63.8812L742.375 64.1848L744.541 69.8656L746.981 66.1977C746.981 66.1977 745.4 62.0676 745.177 61.2103L745.791 60.5787L746.25 59.204L744.853 59.0869L744.04 59.4009C742.669 58.1797 740.675 56.1581 740.675 56.1581L736.092 56.4143L740.013 60.4242L739.695 62.151L736.726 62.5043L739.005 66.5536Z" fill="#231F23" />
	<path d="M490.945 59.5036L494.136 59.7599L494.648 61.3041L490.76 65.9702L495.14 66.3229C495.14 66.3229 497.963 62.9251 498.6 62.3116L499.449 62.5422L500.868 62.275L500.29 60.994L499.621 60.4339C500.015 58.6368 500.803 55.9042 500.803 55.9042L498.348 52.011L496.769 57.4014L495.112 57.9643L493.358 55.5334L490.945 59.5036Z" fill="#231F23" />
	<path d="M263.299 183.083L266.087 181.504L267.372 182.497L266.749 188.548L270.576 186.381C270.576 186.381 271.023 181.98 271.21 181.113L272.042 180.828L273.07 179.81L271.877 179.072L271.01 178.984C270.335 177.272 269.466 174.565 269.466 174.565L265.261 172.716L266.956 178.071L265.896 179.468L263.088 178.437L263.299 183.083Z" fill="#231F23" />
	<path d="M441.494 42.1399L444.527 41.1139L445.603 42.3311L443.861 48.1569L448.025 46.7496C448.025 46.7496 449.287 42.5102 449.632 41.6943L450.502 41.5708L451.702 40.764L450.668 39.8151L449.833 39.5649C449.491 37.757 449.143 34.9339 449.143 34.9339L445.358 32.3261L446.022 37.9051L444.72 39.0776L442.154 37.5365L441.494 42.1399Z" fill="#231F23" />
	<path d="M406.558 15.2587L409.694 14.6172L410.612 15.9586L408.165 21.5234L412.471 20.6438C412.471 20.6438 414.246 16.5936 414.688 15.8268L415.567 15.8123L416.857 15.1607L415.948 14.0907L415.15 13.7388C415.033 11.9022 415.036 9.05755 415.036 9.05755L411.602 6L411.573 11.6186L410.136 12.6204L407.78 10.7726L406.558 15.2587Z" fill="#231F23" />
	<path d="M207.443 229.662L209.708 227.391L211.21 228.003L212.224 234L215.333 230.884C215.333 230.884 214.591 226.523 214.539 225.638L215.265 225.14L215.984 223.883L214.638 223.493L213.779 223.64C212.673 222.173 211.113 219.797 211.113 219.797L206.569 219.145L209.629 223.85L208.981 225.481L206 225.242L207.443 229.662Z" fill="#231F23" />
	<path d="M294.657 160.455L295.87 157.481L297.491 157.461L300.739 162.596L302.404 158.514C302.404 158.514 300.036 154.782 299.648 153.987L300.124 153.245L300.302 151.806L298.91 151.97L298.175 152.44C296.589 151.517 294.235 149.934 294.235 149.934L289.794 151.1L294.431 154.247L294.462 156.003L291.622 156.941L294.657 160.455Z" fill="#231F23" />
	<path d="M291.012 129.707L293.277 127.437L294.78 128.048L295.793 134.045L298.903 130.93C298.903 130.93 298.16 126.568 298.109 125.684L298.834 125.185L299.553 123.928L298.207 123.538L297.348 123.686C296.242 122.218 294.682 119.843 294.682 119.843L290.138 119.191L293.199 123.895L292.55 125.526L289.569 125.287L291.012 129.707Z" fill="#231F23" />
	<path d="M415.532 150.008L417.797 147.737L419.299 148.349L420.312 154.346L423.422 151.23C423.422 151.23 422.68 146.869 422.628 145.984L423.354 145.486L424.072 144.229L422.726 143.839L421.868 143.986C420.762 142.519 419.202 140.143 419.202 140.143L414.658 139.492L417.718 144.196L417.069 145.827L414.089 145.588L415.532 150.008Z" fill="#231F23" />
	<path d="M471.242 104.28L474.217 103.094L475.356 104.252L473.923 110.163L478.007 108.536C478.007 108.536 479.044 104.236 479.345 103.403L480.208 103.233L481.364 102.364L480.281 101.471L479.434 101.265C478.997 99.4783 478.5 96.6776 478.5 96.6776L474.584 94.2745L475.541 99.8105L474.302 101.05L471.659 99.6478L471.242 104.28Z" fill="#231F23" />
	<path d="M470.916 26.523L474.09 26.1056L474.911 27.5088L472.078 32.8861L476.435 32.3142C476.435 32.3142 478.49 28.4001 478.986 27.6666L479.864 27.7145L481.197 27.1561L480.365 26.0242L479.594 25.6166C479.607 23.7763 479.809 20.9389 479.809 20.9389L476.599 17.6454L476.175 23.2478L474.671 24.1452L472.451 22.1348L470.916 26.523Z" fill="#231F23" />
	<path d="M236.943 161.914L239.382 159.834L240.831 160.565L241.361 166.624L244.71 163.769C244.71 163.769 244.319 159.362 244.339 158.476L245.102 158.038L245.919 156.843L244.608 156.345L243.74 156.423C242.755 154.871 241.391 152.378 241.391 152.378L236.914 151.362L239.588 156.298L238.81 157.871L235.859 157.393L236.943 161.914Z" fill="#231F23" />
	<path d="M400.598 96.6997L403.34 95.0428L404.652 95.9991L404.199 102.065L407.964 99.7912C407.964 99.7912 408.288 95.3786 408.45 94.5074L409.274 94.1988L410.273 93.1517L409.059 92.4483L408.19 92.3843C407.468 90.6927 406.524 88.0108 406.524 88.0108L402.269 86.2812L404.113 91.5863L403.092 93.0126L400.256 92.0616L400.598 96.6997Z" fill="#231F23" />
	<path d="M435.474 70.814L438.538 69.8828L439.576 71.1328L437.655 76.9017L441.86 75.6244C441.86 75.6244 443.252 71.4262 443.622 70.6215L444.496 70.5251L445.72 69.7559L444.716 68.7753L443.889 68.4994C443.603 66.6817 443.342 63.8491 443.342 63.8491L439.64 61.125L440.131 66.722L438.793 67.8535L436.276 66.2334L435.474 70.814Z" fill="#231F23" />
	<path d="M361.613 80.9991L364.201 79.1087L365.591 79.9466L365.666 86.0289L369.219 83.4347C369.219 83.4347 369.159 79.0106 369.245 78.1285L370.038 77.7491L370.943 76.6187L369.673 76.024L368.802 76.0362C367.936 74.4142 366.762 71.8251 366.762 71.8251L362.373 70.4741L364.67 75.5979L363.777 77.1079L360.87 76.4085L361.613 80.9991Z" fill="#231F23" />
	<defs>
		<linearGradient id="paint0_linear_81_3378" x1="221.247" y1="54.9891" x2="206.494" y2="122.835" gradientUnits="userSpaceOnUse">
			<stop stop-color="#FF2A26" />
			<stop offset="1" stop-color="#FF9B79" />
		</linearGradient>
		<linearGradient id="paint1_linear_81_3378" x1="558.577" y1="134.046" x2="533.119" y2="248.44" gradientUnits="userSpaceOnUse">
			<stop stop-color="#FF2A26" />
			<stop offset="1" stop-color="#FF9B79" />
		</linearGradient>
		<linearGradient id="paint2_linear_81_3378" x1="293.851" y1="1.21444" x2="308.103" y2="95.2733" gradientUnits="userSpaceOnUse">
			<stop stop-color="#FF2A26" />
			<stop offset="1" stop-color="#FF9B79" />
		</linearGradient>
		<linearGradient id="paint3_linear_81_3378" x1="804.343" y1="96.6211" x2="850.346" y2="243.571" gradientUnits="userSpaceOnUse">
			<stop stop-color="#FF2A26" />
			<stop offset="1" stop-color="#FF9B79" />
		</linearGradient>
		<linearGradient id="paint4_linear_81_3378" x1="666.094" y1="-16.4278" x2="694.259" y2="77.5508" gradientUnits="userSpaceOnUse">
			<stop stop-color="#FF2A26" />
			<stop offset="1" stop-color="#FF9B79" />
		</linearGradient>
		<linearGradient id="paint5_linear_81_3378" x1="157.343" y1="251.379" x2="343.89" y2="158.099" gradientUnits="userSpaceOnUse">
			<stop offset="0.141028" stop-color="#FF9B79" />
			<stop offset="0.619266" stop-color="#FF2A26" />
		</linearGradient>
	</defs>
</svg>
