<svg width="511" height="223" viewBox="0 0 511 223" fill="none" xmlns="http://www.w3.org/2000/svg">
<path d="M112.81 119.714L116.486 118.136L117.948 119.539L116.359 126.943L121.406 124.779C121.406 124.779 122.554 119.392 122.902 118.345L123.974 118.104L125.388 116.983L124.005 115.909L122.94 115.682C122.333 113.473 121.617 110.005 121.617 110.005L116.643 107.148L118.027 114.005L116.522 115.59L113.172 113.935L112.81 119.714Z" fill="#231F23"/>
<path d="M79.4086 215.172L83.0844 213.595L84.5465 214.998L82.9582 222.402L88.0045 220.238C88.0045 220.238 89.1528 214.851 89.5008 213.804L90.5726 213.563L91.9868 212.442L90.6041 211.368L89.5389 211.141C88.9317 208.932 88.2161 205.464 88.2161 205.464L83.2418 202.607L84.6258 209.464L83.1209 211.049L79.7711 209.394L79.4086 215.172Z" fill="#231F23"/>
<path d="M123.472 196.941L127.148 195.364L128.61 196.766L127.022 204.17L132.068 202.006C132.068 202.006 133.216 196.619 133.564 195.572L134.636 195.332L136.05 194.21L134.668 193.136L133.603 192.91C132.995 190.701 132.28 187.232 132.28 187.232L127.305 184.376L128.689 191.232L127.185 192.818L123.835 191.163L123.472 196.941Z" fill="#231F23"/>
<path d="M353.093 89.6596L356.769 88.0823L358.231 89.4847L356.643 96.8887L361.689 94.7247C361.689 94.7247 362.837 89.3376 363.185 88.2907L364.257 88.0501L365.671 86.9286L364.288 85.8548L363.223 85.6281C362.616 83.419 361.9 79.9507 361.9 79.9507L356.926 77.0943L358.31 83.9507L356.805 85.5362L353.455 83.8811L353.093 89.6596Z" fill="#231F23"/>
<path d="M108.72 168.176L112.396 166.599L113.858 168.001L112.27 175.405L117.316 173.241C117.316 173.241 118.464 167.854 118.812 166.807L119.884 166.567L121.298 165.445L119.916 164.372L118.85 164.145C118.243 161.936 117.528 158.467 117.528 158.467L112.553 155.611L113.937 162.467L112.432 164.053L109.083 162.398L108.72 168.176Z" fill="#231F23"/>
<path d="M0.518936 198.33L4.19473 196.753L5.65682 198.156L4.06856 205.56L9.11479 203.396C9.11479 203.396 10.2631 198.008 10.6111 196.962L11.6829 196.721L13.0971 195.599L11.7144 194.526L10.6493 194.299C10.0421 192.09 9.32645 188.622 9.32645 188.622L4.35216 185.765L5.73612 192.621L4.23121 194.207L0.881399 192.552L0.518936 198.33Z" fill="#231F23"/>
<path d="M162.021 149.073L165.696 147.496L167.159 148.899L165.57 156.303L170.617 154.139C170.617 154.139 171.765 148.751 172.113 147.705L173.185 147.464L174.599 146.342L173.216 145.269L172.151 145.042C171.544 142.833 170.828 139.365 170.828 139.365L165.854 136.508L167.238 143.365L165.733 144.95L162.383 143.295L162.021 149.073Z" fill="#231F23"/>
<path d="M190.584 60.6855L194.26 59.1083L195.722 60.5107L194.134 67.9146L199.18 65.7507C199.18 65.7507 200.329 60.3636 200.677 59.3166L201.748 59.0761L203.163 57.9546L201.78 56.8808L200.715 56.6541C200.108 54.445 199.392 50.9767 199.392 50.9767L194.418 48.1202L195.802 54.9766L194.297 56.5621L190.947 54.9071L190.584 60.6855Z" fill="#231F23"/>
<path d="M159.801 103.968L163.476 102.391L164.938 103.793L163.35 111.197L168.396 109.033C168.396 109.033 169.545 103.646 169.893 102.599L170.965 102.359L172.379 101.237L170.996 100.163L169.931 99.9368C169.324 97.7277 168.608 94.2594 168.608 94.2594L163.634 91.4029L165.018 98.2593L163.513 99.8448L160.163 98.1897L159.801 103.968Z" fill="#231F23"/>
<path d="M220.742 85.9775L224.417 84.4003L225.88 85.8027L224.291 93.2066L229.338 91.0427C229.338 91.0427 230.486 85.6556 230.834 84.6086L231.906 84.3681L233.32 83.2466L231.937 82.1728L230.872 81.9461C230.265 79.737 229.549 76.2687 229.549 76.2687L224.575 73.4122L225.959 80.2686L224.454 81.8541L221.104 80.199L220.742 85.9775Z" fill="#231F23"/>
<path d="M317.323 12.8337L320.999 11.2564L322.461 12.6589L320.872 20.0628L325.919 17.8989C325.919 17.8989 327.067 12.5117 327.415 11.4648L328.487 11.2242L329.901 10.1027L328.518 9.0289L327.453 8.80224C326.846 6.59316 326.13 3.12486 326.13 3.12486L321.156 0.268386L322.54 7.12477L321.035 8.71029L317.685 7.05521L317.323 12.8337Z" fill="#231F23"/>
<path d="M497.627 52.4356L501.303 50.8583L502.765 52.2607L501.177 59.6647L506.223 57.5007C506.223 57.5007 507.371 52.1136 507.72 51.0667L508.791 50.8261L510.206 49.7046L508.823 48.6308L507.758 48.4041C507.15 46.1951 506.435 42.7268 506.435 42.7268L501.461 39.8703L502.845 46.7267L501.34 48.3122L497.99 46.6571L497.627 52.4356Z" fill="#231F23"/>
<path d="M213.956 12.9804L217.631 11.4031L219.094 12.8055L217.505 20.2095L222.551 18.0455C222.551 18.0455 223.7 12.6584 224.048 11.6115L225.12 11.3709L226.534 10.2494L225.151 9.1756L224.086 8.94894C223.479 6.73985 222.763 3.27154 222.763 3.27154L217.789 0.415083L219.173 7.27146L217.668 8.85699L214.318 7.20191L213.956 12.9804Z" fill="#231F23"/>
<path d="M392.9 99.7775L396.576 98.2003L398.038 99.6027L396.45 107.007L401.496 104.843C401.496 104.843 402.645 99.4555 402.993 98.4086L404.064 98.1681L405.479 97.0465L404.096 95.9727L403.031 95.7461C402.424 93.537 401.708 90.0687 401.708 90.0687L396.734 87.2122L398.118 94.0686L396.613 95.6541L393.263 93.999L392.9 99.7775Z" fill="#231F23"/>
<path d="M460.806 84.8056L464.481 83.2283L465.943 84.6307L464.355 92.0347L469.401 89.8707C469.401 89.8707 470.55 84.4836 470.898 83.4367L471.97 83.1961L473.384 82.0746L472.001 81.0008L470.936 80.7741C470.329 78.565 469.613 75.0968 469.613 75.0968L464.639 72.2403L466.023 79.0967L464.518 80.6822L461.168 79.0271L460.806 84.8056Z" fill="#231F23"/>
<path d="M348.111 57.498L351.787 55.9208L353.249 57.3232L351.661 64.7271L356.707 62.5632C356.707 62.5632 357.856 57.176 358.204 56.1291L359.275 55.8886L360.69 54.767L359.307 53.6932L358.242 53.4666C357.634 51.2575 356.919 47.7892 356.919 47.7892L351.945 44.9327L353.329 51.7891L351.824 53.3746L348.474 51.7195L348.111 57.498Z" fill="#231F23"/>
<path d="M431.812 53.8759L435.488 52.2986L436.95 53.7011L435.362 61.105L440.408 58.9411C440.408 58.9411 441.556 53.5539 441.904 52.507L442.976 52.2664L444.39 51.1449L443.007 50.0711L441.942 49.8445C441.335 47.6354 440.619 44.1671 440.619 44.1671L435.645 41.3106L437.029 48.167L435.524 49.7525L432.174 48.0974L431.812 53.8759Z" fill="#231F23"/>
<path d="M67.1305 176.959L70.8063 175.381L72.2684 176.784L70.6801 184.188L75.7264 182.024C75.7264 182.024 76.8747 176.637 77.2227 175.59L78.2945 175.349L79.7087 174.228L78.326 173.154L77.2608 172.927C76.6536 170.718 75.938 167.25 75.938 167.25L70.9637 164.393L72.3477 171.25L70.8428 172.835L67.493 171.18L67.1305 176.959Z" fill="#231F23"/>
<path d="M265.59 43.7861L269.266 42.2089L270.728 43.6113L269.14 51.0153L274.186 48.8513C274.186 48.8513 275.334 43.4642 275.682 42.4172L276.754 42.1767L278.168 41.0552L276.786 39.9814L275.72 39.7547C275.113 37.5456 274.398 34.0773 274.398 34.0773L269.423 31.2209L270.807 38.0772L269.302 39.6627L265.953 38.0077L265.59 43.7861Z" fill="#231F23"/>
<path d="M311.186 58.3254L314.862 56.7482L316.324 58.1506L314.736 65.5546L319.782 63.3906C319.782 63.3906 320.93 58.0035 321.278 56.9565L322.35 56.716L323.764 55.5945L322.381 54.5207L321.316 54.294C320.709 52.0849 319.994 48.6166 319.994 48.6166L315.019 45.7602L316.403 52.6165L314.898 54.2021L311.549 52.547L311.186 58.3254Z" fill="#231F23"/>
<path d="M271.96 96.5714L275.636 94.9941L277.098 96.3966L275.51 103.801L280.556 101.637C280.556 101.637 281.704 96.2494 282.052 95.2025L283.124 94.9619L284.538 93.8404L283.155 92.7666L282.09 92.54C281.483 90.3309 280.767 86.8626 280.767 86.8626L275.793 84.0061L277.177 90.8625L275.672 92.448L272.322 90.7929L271.96 96.5714Z" fill="#231F23"/>
</svg>
