<svg width="453" height="137" viewBox="0 0 453 137" fill="none" xmlns="http://www.w3.org/2000/svg">
<path d="M314.399 123.277L318.627 124.656L320.103 122.953L317.596 114.899L323.4 116.791C323.4 116.791 325.217 122.651 325.708 123.778L326.919 123.936L328.597 125.038L327.176 126.369L326.02 126.727C325.571 129.24 325.13 133.159 325.13 133.159L319.913 136.83L320.751 129.084L318.925 127.477L315.385 129.651L314.399 123.277Z" fill="#231F23"/>
<path d="M407.911 106.81L412.14 108.189L413.616 106.485L411.109 98.4316L416.913 100.323C416.913 100.323 418.729 106.184 419.221 107.31L420.431 107.469L422.11 108.57L420.688 109.901L419.532 110.26C419.084 112.772 418.643 116.692 418.643 116.692L413.426 120.363L414.264 112.617L412.438 111.01L408.897 113.184L407.911 106.81Z" fill="#231F23"/>
<path d="M122.205 80.6259L126.433 82.0047L127.909 80.3014L125.402 72.2478L131.206 74.1392C131.206 74.1392 133.023 79.9997 133.514 81.1261L134.725 81.2847L136.404 82.3862L134.982 83.7171L133.826 84.076C133.377 86.588 132.936 90.5079 132.936 90.5079L127.719 94.1788L128.557 86.4328L126.731 84.8257L123.191 86.9999L122.205 80.6259Z" fill="#231F23"/>
<path d="M225.796 68.6389L230.025 70.0177L231.501 68.3144L228.994 60.2608L234.798 62.1522C234.798 62.1522 236.615 68.0127 237.106 69.139L238.316 69.2977L239.995 70.3992L238.574 71.73L237.417 72.089C236.969 74.601 236.528 78.5209 236.528 78.5209L231.311 82.1918L232.149 74.4458L230.323 72.8387L226.783 75.0129L225.796 68.6389Z" fill="#231F23"/>
<path d="M28.9052 69.2397L33.1334 70.6185L34.6098 68.9151L32.1024 60.8616L37.9069 62.753C37.9069 62.753 39.7233 68.6135 40.2145 69.7398L41.4252 69.8985L43.104 71L41.6822 72.3308L40.5262 72.6897C40.0777 75.2018 39.6367 79.1217 39.6367 79.1217L34.4199 82.7926L35.2578 75.0465L33.4315 73.4395L29.8913 75.6136L28.9052 69.2397Z" fill="#231F23"/>
<path d="M285.488 102.8L289.717 104.179L291.193 102.476L288.686 94.422L294.49 96.3134C294.49 96.3134 296.307 102.174 296.798 103.3L298.008 103.459L299.687 104.56L298.265 105.891L297.109 106.25C296.661 108.762 296.22 112.682 296.22 112.682L291.003 116.353L291.841 108.607L290.015 107L286.475 109.174L285.488 102.8Z" fill="#231F23"/>
<path d="M379.001 86.3324L383.229 87.7112L384.706 86.0079L382.198 77.9543L388.003 79.8457C388.003 79.8457 389.819 85.7062 390.31 86.8326L391.521 86.9913L393.2 88.0927L391.778 89.4236L390.622 89.7825C390.174 92.2945 389.733 96.2144 389.733 96.2144L384.516 99.8854L385.354 92.1393L383.528 90.5322L379.987 92.7064L379.001 86.3324Z" fill="#231F23"/>
<path d="M93.2944 60.1488L97.5227 61.5276L98.9991 59.8242L96.4916 51.7707L102.296 53.6621C102.296 53.6621 104.113 59.5226 104.604 60.6489L105.814 60.8076L107.493 61.9091L106.071 63.2399L104.915 63.5988C104.467 66.1109 104.026 70.0308 104.026 70.0308L98.8092 73.7017L99.647 65.9557L97.8208 64.3486L94.2805 66.5228L93.2944 60.1488Z" fill="#231F23"/>
<path d="M196.886 48.1618L201.114 49.5406L202.591 47.8372L200.083 39.7837L205.888 41.675C205.888 41.675 207.704 47.5356 208.196 48.6619L209.406 48.8206L211.085 49.9221L209.663 51.2529L208.507 51.6118C208.059 54.1238 207.618 58.0437 207.618 58.0437L202.401 61.7147L203.239 53.9686L201.413 52.3616L197.872 54.5357L196.886 48.1618Z" fill="#231F23"/>
<path d="M-0.00501702 48.7624L4.22326 50.1412L5.69965 48.4378L3.19219 40.3843L8.99676 42.2757C8.99676 42.2757 10.8131 48.1362 11.3043 49.2625L12.515 49.4212L14.1938 50.5227L12.772 51.8535L11.616 52.2124C11.1675 54.7244 10.7265 58.6444 10.7265 58.6444L5.50975 62.3153L6.34759 54.5692L4.52136 52.9622L0.981095 55.1363L-0.00501702 48.7624Z" fill="#231F23"/>
<path d="M312.672 86.3589L316.901 87.7377L318.377 86.0344L315.869 77.9808L321.674 79.8722C321.674 79.8722 323.49 85.7327 323.982 86.8591L325.192 87.0177L326.871 88.1192L325.449 89.45L324.293 89.809C323.845 92.321 323.404 96.2409 323.404 96.2409L318.187 99.9118L319.025 92.1658L317.199 90.5587L313.658 92.7329L312.672 86.3589Z" fill="#231F23"/>
<path d="M406.185 69.8912L410.413 71.27L411.89 69.5666L409.382 61.5131L415.187 63.4045C415.187 63.4045 417.003 69.265 417.494 70.3913L418.705 70.5501L420.384 71.6515L418.962 72.9823L417.806 73.3413C417.358 75.8533 416.917 79.7732 416.917 79.7732L411.7 83.4441L412.538 75.6981L410.711 74.091L407.171 76.2652L406.185 69.8912Z" fill="#231F23"/>
<path d="M120.478 43.7076L124.707 45.0864L126.183 43.383L123.675 35.3295L129.48 37.2209C129.48 37.2209 131.296 43.0814 131.788 44.2077L132.998 44.3664L134.677 45.4679L133.255 46.7987L132.099 47.1576C131.651 49.6697 131.21 53.5896 131.21 53.5896L125.993 57.2605L126.831 49.5145L125.005 47.9074L121.464 50.0816L120.478 43.7076Z" fill="#231F23"/>
<path d="M224.07 31.7206L228.298 33.0994L229.775 31.396L227.267 23.3425L233.072 25.2339C233.072 25.2339 234.888 31.0944 235.379 32.2207L236.59 32.3794L238.269 33.4809L236.847 34.8117L235.691 35.1706C235.243 37.6826 234.802 41.6026 234.802 41.6026L229.585 45.2735L230.423 37.5274L228.596 35.9204L225.056 38.0945L224.07 31.7206Z" fill="#231F23"/>
<path d="M27.1789 32.3212L31.4071 33.7L32.8835 31.9966L30.3761 23.9431L36.1806 25.8345C36.1806 25.8345 37.997 31.695 38.4882 32.8213L39.6989 32.98L41.3777 34.0815L39.9559 35.4123L38.7999 35.7712C38.3514 38.2832 37.9104 42.2032 37.9104 42.2032L32.6936 45.8741L33.5315 38.128L31.7052 36.521L28.165 38.6951L27.1789 32.3212Z" fill="#231F23"/>
<path d="M344.479 107.136L348.707 108.515L350.183 106.812L347.676 98.7583L353.48 100.65C353.48 100.65 355.297 106.51 355.788 107.637L356.999 107.795L358.677 108.897L357.256 110.228L356.1 110.586C355.651 113.098 355.21 117.018 355.21 117.018L349.993 120.689L350.831 112.943L349.005 111.336L345.465 113.51L344.479 107.136Z" fill="#231F23"/>
<path d="M437.991 90.6687L442.22 92.0475L443.696 90.3441L441.188 82.2906L446.993 84.182C446.993 84.182 448.809 90.0425 449.301 91.1688L450.511 91.3275L452.19 92.429L450.768 93.7598L449.612 94.1188C449.164 96.6308 448.723 100.551 448.723 100.551L443.506 104.222L444.344 96.4755L442.518 94.8685L438.977 97.0427L437.991 90.6687Z" fill="#231F23"/>
<path d="M152.285 64.4849L156.513 65.8637L157.989 64.1603L155.482 56.1068L161.286 57.9982C161.286 57.9982 163.103 63.8587 163.594 64.985L164.805 65.1437L166.483 66.2452L165.062 67.576L163.906 67.935C163.457 70.447 163.016 74.3669 163.016 74.3669L157.799 78.0378L158.637 70.2918L156.811 68.6847L153.271 70.8589L152.285 64.4849Z" fill="#231F23"/>
<path d="M256.538 52.8067L260.766 54.1855L262.242 52.4821L259.735 44.4286L265.539 46.32C265.539 46.32 267.356 52.1805 267.847 53.3068L269.058 53.4655L270.737 54.567L269.315 55.8978L268.159 56.2568C267.71 58.7688 267.269 62.6887 267.269 62.6887L262.052 66.3596L262.89 58.6136L261.064 57.0065L257.524 59.1807L256.538 52.8067Z" fill="#231F23"/>
<path d="M58.9851 53.0987L63.2134 54.4775L64.6898 52.7741L62.1823 44.7205L67.9869 46.6119C67.9869 46.6119 69.8032 52.4724 70.2944 53.5988L71.5051 53.7575L73.184 54.8589L71.7622 56.1898L70.6061 56.5487C70.1577 59.0607 69.7167 62.9806 69.7167 62.9806L64.4999 66.6516L65.3377 58.9055L63.5115 57.2984L59.9712 59.4726L58.9851 53.0987Z" fill="#231F23"/>
<path d="M341.713 63.1178L345.941 64.4967L347.417 62.7933L344.91 54.7397L350.714 56.6311C350.714 56.6311 352.531 62.4916 353.022 63.618L354.233 63.7767L355.911 64.8781L354.49 66.2089L353.334 66.5679C352.885 69.0799 352.444 72.9998 352.444 72.9998L347.227 76.6707L348.065 68.9247L346.239 67.3176L342.699 69.4918L341.713 63.1178Z" fill="#231F23"/>
<path d="M435.225 46.6501L439.454 48.0289L440.93 46.3256L438.423 38.272L444.227 40.1634C444.227 40.1634 446.043 46.0239 446.535 47.1503L447.745 47.309L449.424 48.4104L448.002 49.7413L446.846 50.1002C446.398 52.6122 445.957 56.5321 445.957 56.5321L440.74 60.203L441.578 52.457L439.752 50.8499L436.212 53.0241L435.225 46.6501Z" fill="#231F23"/>
<path d="M149.519 20.4665L153.747 21.8453L155.223 20.1419L152.716 12.0884L158.52 13.9798C158.52 13.9798 160.337 19.8403 160.828 20.9666L162.039 21.1253L163.718 22.2268L162.296 23.5576L161.14 23.9165C160.691 26.4285 160.25 30.3485 160.25 30.3485L155.033 34.0194L155.871 26.2733L154.045 24.6663L150.505 26.8405L149.519 20.4665Z" fill="#231F23"/>
<path d="M253.11 8.47947L257.339 9.85829L258.815 8.1549L256.308 0.101357L262.112 1.99274C262.112 1.99274 263.929 7.85326 264.42 8.9796L265.63 9.1383L267.309 10.2398L265.888 11.5706L264.731 11.9295C264.283 14.4415 263.842 18.3615 263.842 18.3615L258.625 22.0324L259.463 14.2863L257.637 12.6792L254.097 14.8534L253.11 8.47947Z" fill="#231F23"/>
<path d="M56.2192 9.08009L60.4475 10.4589L61.9239 8.75552L59.4164 0.701975L65.221 2.59336C65.221 2.59336 67.0373 8.45388 67.5285 9.58022L68.7393 9.7389L70.4181 10.8404L68.9963 12.1712L67.8403 12.5301C67.3918 15.0422 66.9508 18.9621 66.9508 18.9621L61.734 22.633L62.5718 14.8869L60.7456 13.2799L57.2053 15.454L56.2192 9.08009Z" fill="#231F23"/>
</svg>
