<svg xmlns="http://www.w3.org/2000/svg" width="609" height="110" viewBox="0 0 609 110" fill="none">
	<path d="M54.6206 98.2858C41.4941 98.2858 -8.98796 103.704 6.53999 88.9567C17.0645 81.9262 23.3971 84.6986 25.5186 84.3153C30.1205 83.4837 37.509 84.3153 42.3306 84.3153C47.604 84.3153 48.5406 78.2137 53.8139 78.2137C57.9963 78.2137 63.6975 80.0675 67.2415 78.2137C76.1268 73.5659 87.1151 71.6428 96.9928 71.6428C102.391 71.6428 107.682 72.6988 112.931 72.6988C117.458 72.6988 121.55 70.0583 125.682 68.0053C136.343 62.7071 148.628 63.1944 160.214 63.1944C162.875 63.1944 168.69 64.2696 170.84 62.6077C175.428 59.0614 177.304 57.9142 183.059 57.9142C189.71 57.9142 196.361 57.9142 203.012 57.9142C208.084 57.9142 215.598 59.2983 220.485 57.6795C225.386 56.0558 227.611 53.6901 232.999 53.6901C237.249 53.6901 241.499 53.6901 245.75 53.6901C257.738 53.6901 268.658 63.1944 280.577 63.1944C290.155 63.1944 308.662 60.9453 317.862 62.6077C324.075 63.7306 349.778 55.0213 349.778 46.2978C349.778 39.8937 317.909 35.7788 312.69 38.0841C303.798 42.0118 299.358 31.9504 291.439 31.5132C282.73 31.0323 275.083 34.6813 266.469 34.6813C260.528 34.6813 255.463 34.6975 250 31.9825C244.814 29.4057 241.66 26.2329 235.655 26.2329C225.303 26.2329 215.4 28.345 204.901 28.345C198.611 28.345 193.495 25.1298 187.782 23.0648C183.397 21.4801 178.708 22.0088 174.087 22.0088C170.171 22.0088 166.255 22.0088 162.34 22.0088C156.933 22.0088 152.877 19.4115 147.995 18.8406C135.219 17.3468 140.622 8.33481 150.12 7.22417C153.589 6.81862 156.967 5.11209 160.982 5.11209C164.996 5.11209 169.01 5.11209 173.024 5.11209C178.043 5.11209 182.748 3 187.841 3C192.091 3 196.341 3 200.591 3C204.18 3 211.997 5.11209 221.311 6.16813C228.236 6.16813 234.375 5.38138 241.499 6.16813C249.814 7.0863 256.322 5.11209 264.639 5.11209C269.401 5.11209 274.163 5.11209 278.925 5.11209C284.444 5.11209 289.087 8.75673 294.627 9.33626C296.546 9.53704 298.013 11.342 299.94 11.4483C302.352 11.5815 304.849 11.4836 307.259 11.4483C315.097 11.3338 322.849 10.3923 330.753 10.3923C340.264 10.3923 348.562 13.5604 357.848 13.5604C362.764 13.5604 366.414 10.3923 371.603 10.3923C375.499 10.3923 379.395 10.3923 383.291 10.3923C386.642 10.3923 392.11 9.30361 395.038 10.9203C398.542 12.8555 402.8 13.5604 406.726 13.5604C413.802 13.5604 423.47 8.68535 430.633 11.683C448.21 19.0387 466.143 17.7846 485.059 17.7846C492.286 17.7846 498.286 19.8967 505.011 19.8967C513.525 19.8967 521.412 18.8406 529.981 18.8406C537.895 18.8406 544.08 23.0648 552.295 23.0648C560.876 23.0648 581.791 20.7568 589.017 24.9814C603.809 27.7336 607.011 35.3497 605.107 37.8694C602.431 41.4092 592.33 51.2493 574.181 50.4633C568.602 50.4633 554.539 55.8948 549.69 58.5722C544.945 61.1921 535.437 56.3643 529.981 56.3643C521.918 56.3643 512.784 60.7792 505.011 58.5722C501.99 57.7142 493.763 52.8999 490.612 52.8999C482.909 52.8999 477.18 53.0407 472.342 58.5722C459.895 70.4249 453.935 69.2183 442.806 70.9092C437.553 70.9092 414.775 75.1668 410.761 78.7364C406.396 82.6177 400.557 84.9248 395.038 84.3153C383.734 83.0671 375.257 91.0221 363.22 96.4598C351.843 101.6 338.83 97.0454 327.094 100.156C321.912 101.529 316.591 103.773 311.687 105.905C305.53 108.583 296.751 105.749 290.849 103.793C277.085 99.2334 265.253 101.212 251.298 101.212C234.929 101.212 236.39 89.9149 220.485 94.1874C207.998 97.5414 198.259 103.543 185.427 103.793C178.642 103.926 158 100.58 151.122 100.58C143.91 102.697 130.288 100.544 123.172 98.2858C117.02 98.2858 111.017 105.005 96.9928 102.675M54.6206 98.2858C60.5903 98.2858 83.1423 100.374 96.9928 102.675M54.6206 98.2858L71.4187 100.58L96.9928 102.675" stroke="#FF4439" stroke-width="5.74464" stroke-linecap="round" />
</svg>
