<svg width="383" height="96" viewBox="0 0 383 96" fill="none" xmlns="http://www.w3.org/2000/svg">
<path d="M208.776 6.30775H218.772C222.105 6.30775 230.257 7.69558 232.603 8.1222C237.13 8.94531 242.675 8.33708 246.982 7.06092C253.982 4.98693 260.678 5.664 267.797 6.95821C273.421 7.98085 291.269 13.6411 296.999 13.6411C302.163 13.6411 319.7 16.0968 319.7 23.0572C318.122 35.8339 293.38 25.2177 287.79 28.0126C284.781 29.5172 280.626 29.7243 277.314 29.7243C273.535 29.7243 269.948 30.8347 266.256 31.573C258.125 33.1993 250.283 31.1816 242.189 30.9568C236.069 30.7868 229.036 28.9853 223.086 31.2991C217.558 33.4489 213.257 35.8866 207.201 35.8866C205.668 35.8866 203.962 36.0862 202.442 35.8524C201.22 35.6642 200.126 34.699 198.916 34.6541C193.344 34.4478 187.551 34.3985 182.107 35.2361C178.613 35.7736 176.341 36.3686 173.309 38.3515C171.268 39.6857 169.563 41.4326 167.009 41.4326C162.475 41.4326 156.743 38.4547 152.494 41.1588C149.655 42.9651 142.626 47.9269 145.921 52.0454C146.474 52.7363 145.946 53.5447 146.811 54.2364C147.396 54.7043 148.715 54.8908 149.447 55.2977C151.12 56.2269 154.374 55.6058 156.225 55.6058C162.491 55.6058 168.911 56.2221 175.02 56.2221C182.167 56.2221 187.674 60.5337 194.808 59.8852C205.359 58.926 216.164 59.1135 226.783 59.3032C232.331 59.4023 240.261 61.3419 244.688 64.8835C247.704 67.296 250.272 66.9091 253.589 65.1231C260.852 61.2124 271.033 62.9665 278.889 64.7123C282.358 65.4833 285.406 66.3497 288.714 67.6222C291.461 68.6786 294.28 67.3141 296.999 67.3141C304.332 67.3141 311.121 67.4156 318.122 69.916C321.206 71.0175 324.157 72.7223 326.954 74.4007C330.097 76.286 356.006 74.2296 359.518 74.2296C378.638 74.2296 396.879 90.855 363.523 93.4695C347.542 93.4695 328.437 89.4329 318.122 93.4695C304.997 98.6053 295.821 91.4719 278.889 91.4719C261.295 96.1712 240.396 88.1033 235.598 89.464C235.598 89.464 232.714 92.4211 214.689 89.464C209.514 88.3631 192.563 82.2473 187.115 82.2473C181.595 82.2473 166.938 89.0299 161.512 89.464C153.625 90.0949 150.358 92.9879 142.896 89.464C138.571 87.4221 140.246 85.4462 127.526 85.4462C92.942 85.4462 99.3617 71.0115 94.6029 71.0115C90.399 71.0115 86.8752 69.779 82.7234 69.779H75.4999C73.9376 69.779 72.4086 68.5466 70.5701 68.5466C68.1833 68.5466 59.9909 69.7668 59.7861 66.0817C59.4706 60.4022 61.5142 59.1179 66.2565 56.5644C71.0553 53.9805 76.806 56.7677 81.354 54.8527C86.3081 52.7668 90.9069 53.6732 96.075 52.5247C98.6647 51.9492 100.029 49.4864 102.306 48.3481C104.022 47.4899 106.567 47.7005 108.468 47.5949C110.481 47.4831 111.967 45.903 113.706 45.13C114.774 44.6553 115.289 40.9733 114.322 40.2002C112.641 38.8554 112.134 37.7353 109.7 37.7353H102.58C96.7589 37.7353 90.6142 37.0954 84.9829 38.6596C79.2777 40.2444 73.4926 37.7353 67.7971 37.7353C64.6337 37.7353 62.0283 39.2836 59.1014 39.5497C55.5988 39.8681 51.9402 39.584 48.4202 39.584C43.1728 39.584 37.7926 40.7415 32.6722 41.9119C29.6695 42.5982 26.0059 42.108 23.1207 41.4669C21.3869 41.0816 19.3303 40.2002 17.5746 40.2002C13.8454 40.2002 7.85744 42.2491 4.32579 40.6795C3.01005 40.0947 0.012207 39.8902 0.012207 38.0434C0.012207 35.8417 0.192016 33.9991 0.662668 31.8811C1.25001 29.2381 11.6789 26.8125 14.0485 26.6432C19.1662 26.2777 24.4561 20.0726 29.1567 18.016C35.4061 15.2819 41.7658 18.016 48.6941 18.016C50.7999 18.016 54.0709 16.3186 55.8149 15.2088C59.484 12.8739 66.5051 16.5638 70.5701 15.2088C76.8241 13.1241 80.5894 7.8413 86.9001 6.17081C93.5714 4.40487 99.3381 6.30775 106.376 6.30775C112.848 6.30775 119.121 0.761719 125.585 0.761719C132.276 0.761719 139.295 6.17081 145.921 6.17081C153.427 6.17081 159.953 2.69923 167.352 3.97979C175.205 5.33903 181.263 0.761719 189.253 0.761719C195.327 0.761719 202.714 6.30775 208.776 6.30775Z" fill="url(#paint0_linear_1_821)"/>
<defs>
<linearGradient id="paint0_linear_1_821" x1="196.443" y1="-9.11043" x2="225.522" y2="124.549" gradientUnits="userSpaceOnUse">
<stop stop-color="#FF2A26"/>
<stop offset="1" stop-color="#FF9B79"/>
</linearGradient>
</defs>
</svg>
