<svg xmlns="http://www.w3.org/2000/svg" width="520" height="105" viewBox="0 0 520 105" fill="none">
	<path d="M469.983 15.2487C478.168 14.0756 481.571 15.6123 485.723 21.899C503.28 29.5827 507.494 32.8505 490.642 38.5235C489.168 38.5235 488.059 41.5453 481.547 40.7446C473.486 42.0791 469.978 39.9728 468.435 39.9728C466.766 39.9728 465.406 41.5006 464.174 42.5425C462.879 43.6384 460.373 44.567 458.697 44.8249C454.391 45.4874 449 45.6777 444.85 44.0641C440.984 42.5605 437.412 41.4943 433.27 41.4943C430.951 41.4943 428.693 41.8131 426.592 42.8638C424.384 43.9677 421.513 44.2013 419.44 45.6364C416.134 47.9253 415.32 50.673 416.853 54.1234C417.879 56.4313 422.414 55.6036 424.46 55.2304L424.597 55.2054C427.251 54.7229 429.636 53.0583 432.374 53.0583C435.22 53.0583 437.986 52.8052 440.59 54.0389C443.344 55.3433 446.15 56.1015 449.179 56.1015C452.556 56.1015 454.767 54.6536 457.868 53.7346C460.102 53.0727 463.576 53.554 465.544 54.6475C467.711 55.8515 470.003 57.9274 472.611 57.9274C484.729 63.2587 484.755 68.5993 487.399 68.5993C488.61 68.5993 491.832 69.6445 500.681 71.7669C517.428 76.5864 523.008 85.3775 507.229 85.3775C506.384 87.0674 470.266 85.3775 468.435 85.3775C460.389 85.3775 454.951 89.2369 447.427 89.2369C438.815 89.2369 433.649 89.3571 421.596 87.3482C416.985 86.5798 412.373 89.2369 407.702 89.2369C402.039 89.2369 400.158 91.2425 394.729 92.4492C390.44 93.4023 386.68 93.2708 382.503 95.1271C378.156 97.0592 371.942 98.0768 367.134 98.0768H351.416C347.232 98.0768 343.886 94.3293 339.889 93.8852C337.022 93.5666 334.484 92.488 331.506 92.488C330.061 92.488 326.14 92.1463 324.869 91.4401C320.506 89.0159 312.415 92.327 307.909 92.488C303.863 92.6325 299.947 93.7689 295.877 93.8852C292.185 93.9907 287.526 94.6311 283.924 95.6317C279.864 96.7593 275.231 96.7779 271.077 97.417C267.742 97.9301 266.181 98.2294 263.043 96.8348C253.472 92.5808 242.85 91.1691 232.305 91.7894C226.519 92.1297 220.365 96.1739 214.685 97.9215C209.643 99.4728 203.441 97.3782 198.462 97.3782H184.102C181.395 97.3782 180.113 98.2971 177.815 99.3187C175.48 100.357 172.748 99.5082 170.518 100.522C166.666 102.273 158.811 101.033 154.606 100.871C149.014 100.656 142.455 99.2619 136.947 98.0379C132.639 97.0807 128.17 93.4305 124.023 93.1866C119.14 92.8993 114.687 91.7894 109.702 91.7894C105.689 91.7894 99.726 90.7118 96.079 92.3327C93.9166 93.2938 90.8195 91.5259 88.9378 93.0313C88.2034 93.6189 83.4775 93.8852 82.4564 93.8852C73.3716 93.8852 64.0344 93.1866 55.1723 93.1866C51.1995 93.1866 45.7148 91.0618 42.2871 89.5384C38.6401 87.9175 32.6768 88.995 28.6645 88.995C20.549 88.995 12.5368 89.0867 6.30945 84.1048C-2.10993 77.3693 8.50422 67.0576 16.4391 66.6399C20.4697 66.4278 24.9793 65.9414 29.3631 65.9414C32.9919 65.9414 40.6738 67.3717 43.5291 65.0875C47.0886 62.2399 50.6425 57.1375 55.2111 56.1222C64.1381 54.1384 73.994 55.5093 82.6504 52.5128C92.9548 48.9459 105.417 48.2087 115.64 52.5128C117.697 53.3791 121.055 54.0652 123.324 54.0652C125.299 54.0652 126.623 54.2058 128.214 53.2114C129.265 52.555 129.166 51.0229 130.31 50.417C135.047 47.909 140.782 47.2267 146.029 46.4195C153.404 45.2848 161.053 42.6758 168.19 40.6367C172.312 39.4588 176.605 37.9975 180.92 37.9975C183.664 37.9975 188.182 37.2022 190.7 38.3468C195.41 40.4878 202.068 40.7919 207.311 40.7919C214.061 40.7919 219.54 37.8389 226.367 39.3559C229.332 40.0147 233.137 40.0933 236.186 40.0933C238.451 40.0933 244.792 42.2594 246.82 40.6367C250.934 37.3458 256.822 36.6063 261.646 34.1941C266.134 31.9499 274.41 32.4627 279.111 33.806C284.994 35.4868 288.323 43.129 292.54 46.924C294.814 48.9711 296.244 50.5722 299.37 50.5722C300.607 50.5722 304.218 50.3952 304.998 49.4855C307.01 47.1378 306.669 45.1193 308.103 42.5384C308.986 40.9478 310.684 39.3332 311.945 37.9975L312.06 37.8758C314.674 35.1073 319.69 29.795 323.472 28.9546C325.779 28.442 328.141 29.6144 330.497 29.6144C333.746 29.6144 335.372 27.3889 336.939 24.7242C339.132 20.9962 344.995 15.6425 349.32 15.6425C353.913 15.6425 358.09 13.5674 361.39 10.5971C362.522 9.57812 373.759 9.07885 374.819 10.403C376.011 11.8929 379.376 10.0537 380.757 10.0537C383.961 10.0537 385.211 7.45781 388.092 6.01737C399.689 0.219039 410.943 5.84977 421.625 10.5971C427.34 13.1373 442.259 9.30477 447.427 8.15626C452.719 6.98036 464.374 15.2487 469.983 15.2487Z" stroke="url(#paint0_linear_71_2655)" stroke-width="5.74464" stroke-linecap="round" />
	<defs>
		<linearGradient id="paint0_linear_71_2655" x1="267.18" y1="-6.66762" x2="290.804" y2="134.287" gradientUnits="userSpaceOnUse">
			<stop stop-color="#FF2A26" />
			<stop offset="1" stop-color="#FF9B79" />
		</linearGradient>
	</defs>
</svg>
